<?xml version="1.0" encoding="utf-8"?>
<!-- Generator: Adobe Illustrator 24.1.1, SVG Export Plug-In . SVG Version: 6.00 Build 0)  -->
<svg version="1.1" xmlns="http://www.w3.org/2000/svg" xmlns:xlink="http://www.w3.org/1999/xlink" x="0px" y="0px" width="150px"
	 height="150px" viewBox="0 0 150 150" class="cyclist" xml:space="preserve">
<g id="Layer_3">
	<polygon style="fill:#FCCDAE;" points="55.2,129.8 56.6,125.7 62.3,127.1 60.7,130.9 	"/>
	<path style="fill:#0D4C75;" d="M52.1,69.7c0,0,14.5,28.3,15.5,30.1c1,1.8-12.7,27.6-12.7,27.6l8.5,1.9c0,0,11.7-27.1,11.9-28.8
		c0.2-1.7-8.7-29.1-8.7-29.1L52.1,69.7z"/>
	<polygon style="fill:#9E978F;" points="53.5,131.7 55.1,128.6 61.7,130 61,132.3 55.8,133.8 	"/>
	<g>
		<path style="fill:#5E2E10;" d="M52.9,137.2h20.2c0,0-0.1-2.7-1.2-3.4c-1.1-0.7-8.7-2.6-9.7-2.8c-1.1-0.2-3,1.5-5.2,1.5
			c-2.2,0-2.6-1.6-3.3-2.2C53.1,129.8,51.9,135.2,52.9,137.2z"/>
		<rect x="52.9" y="137.2" style="fill:#B8825F;" width="20.2" height="0.8"/>
	</g>
</g>
<g id="Layer_1">

		<ellipse id="shadow" transform="matrix(0.9997 -2.520462e-02 2.520462e-02 0.9997 -3.6739 1.9269)" style="opacity:0.2;enable-background:new    ;" cx="74.6" cy="146.7" rx="73.6" ry="2.1"/>
	<g>
		<g id="group">
			<g>
				<g>
					<path style="fill:#535C5C;" d="M32.4,113.9L32.4,113.9h-0.3c-0.3,0-0.5-0.3-0.5-0.5c0-0.3,0.3-0.5,0.5-0.5h0.3
						c0.3,0,0.5,0.3,0.5,0.5C32.8,113.8,32.5,113.9,32.4,113.9z"/>
				</g>
				<g>
					<path style="fill:#535C5C;" d="M65.8,117C65.8,117,65.6,117,65.8,117H65c-0.2,0-0.2,0-0.3-0.2c-0.2,0-0.2,0.2-0.3,0.2h-0.6
						c-0.2,0-0.2,0-0.3-0.2c-0.2,0-0.2,0.2-0.3,0.2h-0.6c-0.2,0-0.2,0-0.3-0.2c-0.2,0-0.2,0.2-0.3,0.2h-0.6c-0.2,0-0.2,0-0.3-0.2
						c-0.2,0-0.2,0.2-0.3,0.2h-0.6c-0.2,0-0.2,0-0.3-0.2c-0.2,0-0.2,0.2-0.3,0.2H59c-0.2,0-0.2,0-0.3-0.2c-0.2,0-0.2,0.2-0.3,0.2
						h-0.6c-0.2,0-0.2,0-0.3-0.2c-0.2,0-0.2,0.2-0.3,0.2h-0.6c-0.2,0-0.2,0-0.3-0.2c-0.2,0-0.2,0.2-0.3,0.2h-0.6
						c-0.2,0-0.2,0-0.3-0.2c-0.2,0-0.2,0.2-0.3,0.2h-0.6c-0.2,0-0.2,0-0.3-0.2c-0.2,0-0.2,0.2-0.3,0.2H53c-0.2,0-0.2,0-0.3-0.2
						c-0.2,0-0.2,0.2-0.3,0.2h-0.6c-0.2,0-0.2,0-0.3-0.2c-0.2,0-0.2,0.2-0.3,0.2h-0.6c-0.2,0-0.2,0-0.3-0.2c-0.2,0-0.2,0.2-0.3,0.2
						h-0.6c-0.2,0-0.2,0-0.3-0.2c-0.2,0-0.2,0.2-0.3,0.2h-0.6c-0.2,0-0.2,0-0.3-0.2c-0.2,0-0.2,0.2-0.3,0.2H47c-0.2,0-0.2,0-0.3-0.2
						c-0.2,0-0.2,0.2-0.3,0.2h-0.6c-0.2,0-0.2,0-0.3-0.2c-0.2,0-0.2,0.2-0.3,0.2h-0.9c-0.2,0-0.2,0-0.3-0.2c-0.2,0-0.2,0.2-0.3,0.2
						H43c-0.2,0-0.2,0-0.3-0.2c-0.2,0-0.2,0.2-0.3,0.2h-0.6c-0.2,0-0.2,0-0.3-0.2c-0.2,0-0.2,0.2-0.3,0.2h-0.6c-0.2,0-0.2,0-0.3-0.2
						c-0.2,0-0.2,0.2-0.3,0.2h-0.8c-0.2,0-0.2,0-0.3-0.2c-0.2,0-0.2,0.2-0.3,0.2H38c-0.2,0-0.2,0-0.3-0.2c-0.2,0-0.2,0.2-0.3,0.2
						h-0.6c-0.2,0-0.2,0-0.3-0.2c-1.2-2.7-1.4-2.7-1.5-2.7h-0.6c-0.2,0-0.2,0-0.3-0.2c-0.2,0-0.2,0.2-0.3,0.2h-0.6
						c-0.3,0-0.5-0.3-0.5-0.5c0-0.3,0.3-0.5,0.5-0.5h0.6c0.2,0,0.2,0,0.3,0.2c0.2,0,0.2-0.2,0.3-0.2H35c0.2,0,0.2,0,0.3,0.2
						c0.2,0,0.2-0.2,0.3-0.2h0.6c0.2,0,0.2,0,0.3,0.2c0.2,0,0.2-0.2,0.3-0.2h0.6c0.2,0,0.2,0,0.3,0.2c0.2,0,0.2-0.2,0.3-0.2h0.6
						c0.2,0,0.2,0,0.3,0.2c0.2,0,0.2-0.2,0.3-0.2h0.6c0.2,0,0.2,0,0.3,0.2c0.2,0,0.2-0.2,0.3-0.2H41c0.2,0,0.2,0,0.3,0.2
						c0.2,0,0.2-0.2,0.3-0.2h0.6c0.2,0,0.2,0,0.3,0.2c0.2,0,0.2-0.2,0.3-0.2h0.6c0.2,0,0.2,0,0.3,0.2c0.2,0,0.2-0.2,0.3-0.2h0.6
						c0.2,0,0.2,0,0.3,0.2c0.2,0,0.2-0.2,0.3-0.2h0.6c0.2,0,0.2,0,0.3,0.2c0.2,0,0.2-0.2,0.3-0.2H47c0.2,0,0.2,0,0.3,0.2
						c0.2,0,0.2-0.2,0.3-0.2h0.6c0.2,0,0.2,0,0.3,0.2c0.2,0,0.2-0.2,0.3-0.2h0.6c0.2,0,0.2,0,0.3,0.2c0.2,0,0.2-0.2,0.3-0.2h0.6
						c0.2,0,0.2,0,0.3,0.2c0.2,0,0.2-0.2,0.3-0.2h0.6c0.2,0,0.2,0,0.3,0.2c0.2,0,0.2-0.2,0.3-0.2H53c0.2,0,0.2,0,0.3,0.2
						c0.2,0,0.2-0.2,0.3-0.2h0.6c0.2,0,0.2,0,0.3,0.2c0.2,0,0.2-0.2,0.3-0.2h0.6c0.2,0,0.2,0,0.3,0.2c0.2,0,0.2-0.2,0.3-0.2h0.6
						c0.2,0,0.2,0,0.3,0.2c0.2,0,0.2-0.2,0.3-0.2h0.6c0.2,0,0.2,0,0.3,0.2c0.2,0,0.2-0.2,0.3-0.2H59c0.2,0,0.2,0,0.3,0.2
						c0.2,0,0.2-0.2,0.3-0.2h0.6c0.2,0,0.2,0,0.3,0.2c0.2,0,0.2-0.2,0.3-0.2h0.6c0.2,0,0.2,0,0.3,0.2c0.2,0,0.2-0.2,0.3-0.2h0.6
						c0.2,0,0.2,0,0.3,0.2c0.2,0,0.2-0.2,0.3-0.2h0.6c0.3,0,0.5,0.3,0.5,0.5C66.2,117,65.9,117,65.8,117z"/>
				</g>
				<g>
					<path style="fill:#535C5C;" d="M66.7,117.3L66.7,117.3h-0.3c-0.3,0-0.5-0.3-0.5-0.5c0-0.3,0.3-0.5,0.5-0.5h0.3
						c0.3,0,0.5,0.3,0.5,0.5S67,117.3,66.7,117.3z"/>
				</g>
			</g>
			<g>
				<g>
					<path style="fill:#535C5C;" d="M29.4,122.7L29.4,122.7h-0.3c-0.3,0-0.5-0.3-0.3-0.6c0-0.3,0.3-0.5,0.6-0.3l0.3,0.2
						c0.3,0,0.5,0.3,0.3,0.6C29.8,122.7,29.7,123,29.4,122.7z"/>
				</g>
				<g>
					<path style="fill:#535C5C;" d="M62,130.6C61.9,130.6,61.9,130.6,62,130.6l-0.8-0.2c-0.2,0-0.2-0.2-0.3-0.2
						c-0.2,0-0.2,0.2-0.3,0L60,130c-0.2,0-0.2-0.2-0.3-0.2c-0.2,0-0.2,0.2-0.3,0l-0.6-0.2c-0.2,0-0.2-0.2-0.3-0.2
						c-0.2,0-0.2,0.2-0.3,0l-0.6-0.2c-0.2,0-0.2-0.2-0.3-0.2c-0.2,0-0.2,0.2-0.3,0l-0.9-0.2c-0.2,0-0.2-0.2-0.3-0.2
						c-0.2,0-0.2,0.2-0.3,0l-0.6-0.2c-0.2,0-0.2-0.2-0.3-0.2c-0.2,0-0.2,0.2-0.3,0l-0.6-0.2c-0.2,0-0.2-0.2-0.3-0.2
						c-0.2,0-0.2,0.2-0.3,0l-0.6-0.2c-0.2,0-0.2-0.2-0.3-0.2c-0.2,0-0.2,0.2-0.3,0l-0.6-0.2c-0.2,0-0.2-0.2-0.3-0.2
						c-0.2,0-0.2,0.2-0.3,0l-0.9-1.1c-0.2,0-0.2-0.2-0.3-0.2c-0.2,0-0.2,0.2-0.3,0l-0.6-0.2c-0.2,0-0.2-0.2-0.3-0.2
						c-0.2,0-0.2,0.2-0.3,0l-0.8,1.1c-0.2,0-0.2-0.2-0.3-0.2c-0.2,0-0.2,0.2-0.3,0l-0.6-0.5c-0.2,0-0.2-0.2-0.3-0.2
						c-0.2,0-0.2,0.2-0.3,0l-0.6-0.2c-0.2,0-0.2-0.2-0.3-0.2c-0.2,0-0.2,0.2-0.3,0l-0.8-0.2c-0.2,0-0.2-0.2-0.3-0.2
						c-0.2,0-0.2,0.2-0.3,0l-0.6-0.5c-0.2,0-0.2-0.2-0.3-0.2s-0.2,0.2-0.3,0l-0.6-0.2c-0.2,0-0.2-0.2-0.3-0.2s-0.2,0.2-0.3,0
						l-0.8-0.2c-0.2,0-0.2-0.2-0.3-0.2s-0.2,0.2-0.3,0l-0.6-0.2c-0.2,0-0.2-0.2-0.3-0.2s-0.2,0.2-0.3,0l-0.8-0.2
						c-0.2,0-0.2-0.2-0.3-0.2s-0.2,0.2-0.3,0l-0.6-0.2c-0.2,0-0.2-0.2-0.3-0.2s-0.2,0.2-0.3,0l-0.6-0.2c-0.2,0-0.2-0.2-0.3-0.2
						s-0.2,0.2-0.3,0l-0.6-0.2c-0.2,0-0.2-0.2-0.3-0.2s-0.2,0.2-0.3,0l-0.6-0.2c-0.2,0-0.2-0.2-0.3-0.2s-0.2,0.2-0.3,0l-0.9-0.2
						c-0.2,0-0.2-0.2-0.3-0.2c-0.2,0-0.2,0.2-0.3,0l-0.6-0.2c-0.3,0-0.5-0.3-0.3-0.6c0-0.3,0.3-0.5,0.6-0.3l0.6,0.2
						c0.2,0,0.2,0.2,0.3,0.2c0.2,0,0.2-0.2,0.3,0l0.6,0.2c0.2,0,0.2,0.2,0.3,0.2c0.2,0,0.2-0.2,0.3,0l0.6,0.2c0.2,0,0.2,0.2,0.3,0.2
						c0.2,0,0.2-0.2,0.3,0l0.6,0.2c0.2,0,0.2,0.2,0.3,0.2c0.2,0,0.2-0.2,0.3,0l0.6,0.2c0.2,0,0.2,0.2,0.3,0.2c0.2,0,0.2-0.2,0.3,0
						l0.6,0.2c0.2,0,0.2,0.2,0.3,0.2c0.2,0,0.2-0.2,0.3,0l0.6,0.2c0.2,0,0.2,0.2,0.3,0.2c0.2,0,0.2-0.2,0.3,0l0.6,0.2
						c0.2,0,0.2,0.2,0.3,0.2c0.2,0,0.2-0.2,0.3,0l0.6,0.2c0.2,0,0.2,0.2,0.3,0.2c0.2,0,0.2-0.2,0.3,0l0.6,0.2c0.2,0,0.2,0.2,0.3,0.2
						c0.2,0,0.2-0.2,0.3,0l0.6,0.2c0.2,0,0.2,0.2,0.3,0.2c0.2,0,0.2-0.2,0.3,0l0.6,0.2c0.2,0,0.2,0.2,0.3,0.2s0.2-0.2,0.3,0l0.6,0.2
						c0.2,0,0.2,0.2,0.3,0.2s0.2-0.2,0.3,0l0.6,0.2c0.2,0,0.2,0.2,0.3,0.2s0.2-0.2,0.3,0l0.6,0.2c0.2,0,0.2,0.2,0.3,0.2
						c0.2,0,0.2-0.2,0.3,0l0.6,0.2c0.2,0,0.2,0.2,0.3,0.2c0.2,0,0.2-0.2,0.3,0l0.6,0.2c0.2,0,0.2,0.2,0.3,0.2c0.2,0,0.2-0.2,0.3,0
						l0.6,0.2c0.2,0,0.2,0.2,0.3,0.2c0.2,0,0.2-0.2,0.3,0l0.6,0.2c0.2,0,0.2,0.2,0.3,0.2c0.2,0,0.2-0.2,0.3,0l0.6,0.2
						c0.2,0,0.2,0.2,0.3,0.2c0.2,0,0.2-0.2,0.3,0l0.6,0.2c0.2,0,0.2,0.2,0.3,0.2c0.2,0,0.2-0.2,0.3,0l0.6,0.2c0.2,0,0.2,0.2,0.3,0.2
						c0.2,0,0.2-0.2,0.3,0l0.6,0.2c0.2,0,0.2,0.2,0.3,0.2c0.2,0,0.2-0.2,0.3,0l0.6,0.2c0.2,0,0.2,0.2,0.3,0.2c0.2,0,0.2-0.2,0.3,0
						l0.6,0.2c0.2,0,0.2,0.2,0.3,0.2c0.2,0,0.2-0.2,0.3,0l0.6,0.2c0.3,0,0.5,0.3,0.3,0.6C62.5,130.6,62.2,130.6,62,130.6z"/>
				</g>
				<g>
					<path style="fill:#535C5C;" d="M62.9,130.9L62.9,130.9l-0.5-0.2c-0.3,0-0.5-0.3-0.3-0.6c0-0.3,0.3-0.5,0.6-0.3L63,130
						c0.3,0,0.5,0.3,0.3,0.6C63.4,130.9,63.1,130.9,62.9,130.9z"/>
				</g>
			</g>
			<path id="chain" style="fill:#535C5C;" d="M63.9,130.3L63.9,130.3l-1.4-0.4l0,0l-1.4-0.4l0,0l-1.4-0.4l0,0l-1.4-0.4l0,0l-1.8-0.6
				l0,0l-1.4-0.4l0,0l-1-0.3l0,0l-1.4-0.4l0,0l-1.4-0.4l0,0l-1.4-0.4l0,0l-1.4-0.4l0,0l-1.4-0.4l0,0l-1.4-0.4l0,0l-1.4-0.4l0,0
				l-1.8-0.6l0,0l-1.4-0.4l0,0l-1.4-0.4l0,0l-1-0.3l0,0l-1.4-0.4l0,0l-1.4-0.4l0,0l-1.4-0.4l0,0l-1.4-0.4l0,0L32,120l0,0l-1.4-0.4
				l0,0l-1.8-0.6l0,0l-1.4-0.4c0,0-0.5,1.5,0.4,1.8c0.4,0.1,0.6-0.1,0.8-0.3c0.1,0.3,0.2,0.6,0.6,0.7c0.4,0.1,0.6-0.1,0.8-0.3
				c0.1,0.3,0.2,0.6,0.6,0.7c0.4,0.1,0.6-0.1,0.8-0.3c0.1,0.3,0.2,0.6,0.6,0.7c0.4,0.1,0.6-0.1,0.8-0.3c0.1,0.3,0.2,0.6,0.6,0.7
				c0.4,0.1,0.6-0.1,0.8-0.3c0.1,0.3,0.2,0.6,0.6,0.7c0.4,0.1,0.6-0.1,0.8-0.3c0.1,0.3,0.2,0.6,0.6,0.7c0.4,0.1,0.6-0.1,0.8-0.3
				c0.1,0.3,0.2,0.6,0.6,0.7c0.4,0.1,0.6-0.1,0.8-0.3c0.1,0.3,0.2,0.6,0.6,0.7c0.4,0.1,0.6-0.1,0.8-0.3c0.1,0.3,0.2,0.6,0.6,0.7
				c0.4,0.1,0.6-0.1,0.8-0.3c0.1,0.3,0.2,0.6,0.6,0.7c0.4,0.1,0.6-0.1,0.8-0.3c0.1,0.3,0.2,0.6,0.6,0.7c0.4,0.1,0.6-0.1,0.8-0.3
				c0.1,0.3,0.2,0.6,0.6,0.7c0.4,0.1,0.6-0.1,0.8-0.3c0.1,0.3,0.2,0.6,0.6,0.7c0.4,0.1,0.6-0.1,0.8-0.3c0.1,0.3,0.2,0.6,0.6,0.7
				c0.4,0.1,0.6-0.1,0.8-0.3c0.1,0.3,0.2,0.6,0.6,0.7c0.4,0.1,0.6-0.1,0.8-0.3c0.1,0.3,0.2,0.6,0.6,0.7c0.4,0.1,0.6-0.1,0.8-0.3
				c0.1,0.3,0.2,0.6,0.6,0.7c0.4,0.1,0.6-0.1,0.8-0.3c0.1,0.3,0.2,0.6,0.6,0.7c0.4,0.1,0.6-0.1,0.8-0.3c0.1,0.3,0.2,0.6,0.6,0.7
				c0.4,0.1,0.6-0.1,0.8-0.3c0.1,0.3,0.2,0.6,0.6,0.7c0.4,0.1,0.6-0.1,0.8-0.3c0.1,0.3,0.2,0.6,0.6,0.7c0.4,0.1,0.6-0.1,0.8-0.3
				c0.1,0.3,0.2,0.6,0.6,0.7c0.4,0.1,0.6-0.1,0.8-0.3c0.1,0.3,0.2,0.6,0.6,0.7c0.4,0.1,0.6-0.1,0.8-0.3c0.1,0.3,0.2,0.6,0.6,0.7
				c0.4,0.1,0.6-0.1,0.8-0.3c0.1,0.3,0.2,0.6,0.6,0.7c0.4,0.1,0.6-0.1,0.8-0.3c0.1,0.3,0.2,0.6,0.6,0.7c1,0.3,1.3-1.3,1.3-1.3
				L63.9,130.3z"/>
		</g>
		<g id="wheel_wheel--front">
			<g>
				<line style="fill:none;stroke:#E9F0EA;stroke-width:2.2231;stroke-miterlimit:10;" x1="126.9" y1="97.8" x2="107.4" y2="139"/>

					<line style="fill:none;stroke:#E9F0EA;stroke-width:2.2231;stroke-miterlimit:10;" x1="134.6" y1="103.8" x2="99.5" y2="132.7"/>
				<line style="fill:none;stroke:#E9F0EA;stroke-width:2.2231;stroke-miterlimit:10;" x1="139.1" y1="112.4" x2="95" y2="123.9"/>

					<line style="fill:none;stroke:#E9F0EA;stroke-width:2.2231;stroke-miterlimit:10;" x1="139.4" y1="122.4" x2="94.7" y2="113.6"/>

					<line style="fill:none;stroke:#E9F0EA;stroke-width:2.2231;stroke-miterlimit:10;" x1="135.5" y1="131.5" x2="98.9" y2="104.6"/>
				<line style="fill:none;stroke:#E9F0EA;stroke-width:2.2231;stroke-miterlimit:10;" x1="128.2" y1="138" x2="106.5" y2="97.9"/>

					<line style="fill:none;stroke:#E9F0EA;stroke-width:2.0737;stroke-miterlimit:10;" x1="117.3" y1="95.8" x2="117.3" y2="141.1"/>
			</g>
			<path style="fill:#2B2B2B;" d="M117.3,112c-3.2,0-5.9,2.7-5.9,5.9c0,3.3,2.6,5.9,5.9,5.9c3.2,0,5.9-2.7,5.9-5.9
				C123.1,114.7,120.5,112,117.3,112z"/>
			<g style="opacity:0.4;">
				<g>
					<g>
						<path style="fill:#CCE3E3;" d="M116.4,122.7C116.3,122.7,116.3,122.7,116.4,122.7c-0.2,0-0.3,0-0.5-0.2
							c-0.3-0.2-0.5-0.3-0.3-0.6c0.2-0.3,0.3-0.5,0.6-0.3c0.2,0,0.2,0,0.2,0c0.3,0,0.5,0.3,0.3,0.6
							C116.9,122.4,116.6,122.7,116.4,122.7z M118.4,122.4c-0.2,0-0.5-0.2-0.5-0.3c-0.2-0.3,0.2-0.6,0.3-0.6c0.1,0,0.2,0,0.2,0
							c0.3-0.2,0.6,0,0.6,0.3c0.2,0.3,0,0.6-0.3,0.6C118.7,122.4,118.7,122.4,118.4,122.4C118.5,122.4,118.4,122.4,118.4,122.4z
							 M114.5,121.5c-0.2,0-0.3,0-0.3-0.2l-0.2-0.2c-0.2-0.2-0.2-0.6,0-0.8s0.6-0.2,0.8,0l0.2,0.2c0.2,0.2,0.2,0.6,0,0.8
							C114.6,121.5,114.6,121.5,114.5,121.5z M120.4,121.2c-0.2,0-0.3,0-0.3-0.2c-0.2-0.2-0.2-0.5,0-0.8l0.2-0.2
							c0.2-0.2,0.5-0.3,0.8-0.2c0.2,0.2,0.3,0.5,0.2,0.8c0,0.2-0.2,0.2-0.2,0.2C120.5,121.2,120.5,121.2,120.4,121.2z M113.4,119.4
							c-0.2,0-0.5-0.2-0.5-0.5c0-0.2,0-0.2,0-0.3c0-0.3,0.2-0.6,0.5-0.6s0.6,0.2,0.6,0.5c0,0.2,0,0.2,0,0.2
							C113.9,119.1,113.7,119.4,113.4,119.4L113.4,119.4z M121.3,119.1L121.3,119.1c-0.3,0-0.6-0.3-0.5-0.6c0-0.2,0-0.2,0-0.2
							c0-0.3,0.3-0.5,0.6-0.5c0.3,0,0.5,0.3,0.5,0.6c0,0.2,0,0.2,0,0.3C121.7,119.1,121.4,119.1,121.3,119.1z M113.6,117.3h-0.2
							c-0.3-0.2-0.5-0.5-0.3-0.6c0-0.2,0-0.2,0.2-0.3c0.2-0.3,0.5-0.3,0.6-0.3c0.3,0.2,0.3,0.5,0.3,0.6c0,0,0,0.2-0.2,0.2
							C113.9,117,113.7,117.3,113.6,117.3z M121,117c-0.2,0-0.3-0.2-0.5-0.3c0,0,0-0.2-0.2-0.2c-0.2-0.3,0-0.6,0.2-0.8
							c0.3-0.2,0.6,0,0.6,0.2s0.2,0.2,0.2,0.3c0.2,0.3,0,0.6-0.3,0.6C121.1,117,121,117,121,117z M114.9,115.3
							c-0.2,0-0.3-0.2-0.5-0.2c-0.2-0.2-0.2-0.6,0.2-0.8c0.2,0,0.2-0.2,0.3-0.2c0.2-0.2,0.6-0.2,0.8,0.2c0.2,0.4,0.2,0.6-0.2,0.8
							l-0.2,0.2C115.1,115.1,115.1,115.3,114.9,115.3z M119.5,115.1c-0.2,0-0.2,0-0.3-0.2l-0.2-0.2c-0.3-0.2-0.3-0.5-0.2-0.8
							c0.1-0.3,0.5-0.3,0.6-0.2c0.2,0,0.2,0.2,0.3,0.2c0.2,0.2,0.3,0.5,0.2,0.8C119.8,115,119.6,115.1,119.5,115.1z M117,114.4
							c-0.3,0-0.5-0.2-0.5-0.5s0.2-0.6,0.5-0.6c0.2,0,0.2,0,0.3,0c0.3,0,0.5,0.2,0.5,0.5s-0.2,0.5-0.5,0.5l0,0
							C117.2,114.4,117.2,114.4,117,114.4L117,114.4z"/>
					</g>
				</g>
			</g>
			<path style="fill:#CCE3E3;" d="M117.3,89.7c-15.6,0-28.3,12.8-28.3,28.4s12.5,28.3,28.3,28.3s28.3-12.7,28.3-28.3
				S132.9,89.7,117.3,89.7z M117.3,140.5c-12.4,0-22.5-10-22.5-22.5s10-22.5,22.5-22.5s22.4,10.1,22.4,22.7
				C139.7,130.6,129.6,140.5,117.3,140.5z"/>
			<path style="fill:#2B2B2B;" d="M117.3,89c-16,0-29.2,13-29.2,29.2s13,29,29.2,29s29.2-13.2,29.2-29.2
				C146.2,102,133.4,89,117.3,89z M117.3,142.2c-13.3,0-24-10.7-24-24S104,94,117.3,94s24,10.7,24,24.2
				C141.4,131.6,130.6,142.2,117.3,142.2z"/>
			<path style="fill:#CCE3E3;" d="M117.3,115.4c-1.4,0-2.6,1.2-2.6,2.6s1.2,2.6,2.6,2.6c1.4,0,2.6-1.2,2.6-2.6
				C119.8,116.7,118.7,115.4,117.3,115.4z"/>
			<path style="fill:#292E2E;" d="M117.3,116.7c-0.8,0-1.2,0.6-1.2,1.4s0.6,1.4,1.2,1.4c0.8,0,1.2-0.6,1.2-1.4
				S117.9,116.7,117.3,116.7z"/>
		</g>
		<g id="wheel_wheel--back">
			<g>
				<line style="fill:none;stroke:#E9F0EA;stroke-width:2.2231;stroke-miterlimit:10;" x1="41.1" y1="97.8" x2="21.8" y2="139"/>
				<line style="fill:none;stroke:#E9F0EA;stroke-width:2.2231;stroke-miterlimit:10;" x1="49" y1="103.8" x2="13.9" y2="132.7"/>
				<line style="fill:none;stroke:#E9F0EA;stroke-width:2.2231;stroke-miterlimit:10;" x1="53.5" y1="112.4" x2="9.4" y2="123.9"/>
				<line style="fill:none;stroke:#E9F0EA;stroke-width:2.2231;stroke-miterlimit:10;" x1="53.8" y1="122.4" x2="9.1" y2="113.6"/>
				<line style="fill:none;stroke:#E9F0EA;stroke-width:2.2231;stroke-miterlimit:10;" x1="49.9" y1="131.5" x2="13.2" y2="104.6"/>
				<line style="fill:none;stroke:#E9F0EA;stroke-width:2.2231;stroke-miterlimit:10;" x1="42.5" y1="138" x2="20.7" y2="97.9"/>
				<line style="fill:none;stroke:#E9F0EA;stroke-width:2.0737;stroke-miterlimit:10;" x1="31.6" y1="95.8" x2="31.6" y2="141.1"/>
			</g>
			<path style="fill:#CCE3E3;" d="M31.6,89.7c-15.6,0-28.3,12.8-28.3,28.4s12.7,28.3,28.3,28.3s28.3-12.7,28.3-28.3
				S47.5,89.7,31.6,89.7z M31.6,140.5c-12.4,0-22.5-10-22.5-22.5s10-22.5,22.5-22.5s22.5,10,22.5,22.5S44.2,140.5,31.6,140.5z"/>
			<path style="fill:#2B2B2B;" d="M31.6,89c-16,0-28.9,13-28.9,29.2s13,29.2,29.2,29.2s29.2-13,29.2-29.2C60.8,102,47.8,89,31.6,89z
				 M31.6,142.2c-13.3,0-24-10.7-24-24S18.3,94,31.6,94s24,10.7,24,24.2C55.7,131.6,45.1,142.2,31.6,142.2z"/>
			<path style="fill:#2B2B2B;" d="M31.6,112c-3.2,0-5.9,2.7-5.9,5.9c0,3.3,2.6,5.9,5.9,5.9s5.9-2.7,5.9-5.9S35,112,31.6,112z"/>
			<g style="opacity:0.4;">
				<g>
					<g>
						<path style="fill:#CCE3E3;" d="M30.7,122.7L30.7,122.7c-0.2,0-0.3,0-0.5-0.2c-0.3-0.2-0.5-0.3-0.3-0.6s0.3-0.5,0.6-0.3h0.2
							c0.3,0,0.5,0.3,0.3,0.6C31.2,122.4,31,122.7,30.7,122.7z M32.8,122.4c-0.2,0-0.5-0.2-0.5-0.3c-0.2-0.3,0.2-0.6,0.3-0.6
							s0.2,0,0.2,0c0.3-0.2,0.6,0,0.6,0.3c0.2,0.3,0,0.6-0.3,0.6C33.1,122.4,33,122.4,32.8,122.4L32.8,122.4z M28.8,121.5
							c-0.2,0-0.3,0-0.3-0.2l-0.2-0.2c-0.2-0.2-0.2-0.6,0-0.8s0.6-0.2,0.8,0l0.2,0.2c0.2,0.2,0.2,0.6,0,0.8S28.9,121.5,28.8,121.5z
							 M34.6,121.2c-0.2,0-0.3,0-0.3-0.2c-0.2-0.2-0.2-0.5,0-0.8l0.2-0.2c0.2-0.2,0.5-0.3,0.8-0.2c0.2,0.2,0.3,0.5,0.2,0.8
							c0,0.2-0.2,0.2-0.2,0.2C35,121.2,34.8,121.2,34.6,121.2z M27.7,119.4c-0.2,0-0.5-0.2-0.5-0.5c0-0.2,0-0.2,0-0.3
							c0-0.3,0.2-0.6,0.5-0.6s0.6,0.2,0.6,0.5c0,0.2,0,0.2,0,0.2C28.3,119.1,28.1,119.4,27.7,119.4
							C27.8,119.4,27.8,119.4,27.7,119.4z M35.7,119.1C35.7,119.1,35.6,119.1,35.7,119.1c-0.3,0-0.6-0.3-0.5-0.6c0-0.2,0-0.2,0-0.2
							c0-0.3,0.3-0.5,0.6-0.5s0.5,0.3,0.5,0.6c0,0.2,0,0.2,0,0.3C36.2,119.1,35.9,119.1,35.7,119.1z M28,117.3h-0.2
							c-0.3-0.2-0.5-0.5-0.3-0.6c0-0.2,0-0.2,0.2-0.3c0.2-0.3,0.5-0.3,0.6-0.3c0.3,0.2,0.3,0.5,0.3,0.6c0,0,0,0.2-0.2,0.2
							C28.3,117,28.1,117.3,28,117.3z M35.4,117c-0.2,0-0.3-0.2-0.5-0.3c0,0,0-0.2-0.2-0.2c-0.2-0.3,0-0.6,0.2-0.8
							c0.3-0.2,0.6,0,0.6,0.2s0.2,0.2,0.2,0.3c0.2,0.3,0,0.6-0.3,0.6C35.4,117,35.4,117,35.4,117z M29.4,115.3
							c-0.2,0-0.3-0.2-0.5-0.2c-0.2-0.2-0.2-0.6,0.2-0.8c0.2,0,0.2-0.2,0.3-0.2c0.2-0.2,0.6-0.2,0.8,0.2s0.2,0.6-0.2,0.8l-0.2,0.2
							C29.5,115.1,29.4,115.3,29.4,115.3z M33.9,115.1c-0.2,0-0.2,0-0.3-0.2l-0.2-0.2c-0.3-0.2-0.3-0.5-0.2-0.8s0.5-0.3,0.8-0.2
							c0.2,0,0.2,0.2,0.3,0.2c0.2,0.2,0.3,0.5,0.2,0.8C34.2,115,34,115.1,33.9,115.1z M31.5,114.4c-0.3,0-0.5-0.2-0.5-0.5
							s0.2-0.6,0.5-0.6c0.2,0,0.2,0,0.3,0c0.3,0,0.5,0.2,0.5,0.5s-0.2,0.5-0.5,0.5l0,0C31.6,114.4,31.5,114.4,31.5,114.4L31.5,114.4
							z"/>
					</g>
				</g>
			</g>
			<path style="fill:#CCE3E3;" d="M31.6,115.4c-1.4,0-2.6,1.2-2.6,2.6s1.2,2.7,2.6,2.7s2.6-1.2,2.6-2.6
				C34.2,116.7,33.1,115.4,31.6,115.4z"/>
			<path style="fill:#292E2E;" d="M31.6,116.7c-0.8,0-1.2,0.6-1.2,1.4s0.6,1.4,1.2,1.4c0.8,0,1.2-0.6,1.2-1.4
				C33,117.3,32.4,116.7,31.6,116.7z"/>
		</g>
		<g>
			<g>
				<path style="fill:#C71B08;" d="M102.2,79.5c-0.5,0-0.9-0.3-1.1-0.8c-0.5-1.4-1.7-5.4-2.3-7.6c-0.3-1.1-0.3-2.6,0.6-3.8
					c0.5-0.6,1.4-1.4,2.9-1.4h5.4c0.6,0,1.1,0.5,1.1,1.1s-0.5,1.1-1.1,1.1h-5.4c-0.8,0-1.1,0.3-1.1,0.5c-0.2,0.4-0.2,1,0,1.8
					c0.6,2,1.8,6.2,2.3,7.4c0.2,0.6,0,1.2-0.6,1.4C102.5,79.5,102.2,79.5,102.2,79.5z"/>
			</g>
			<path style="fill:#C71B08;" d="M102.5,81.3c0.5,0,0.8,0.3,0.8,0.8v1.2c0,0.5-0.3,0.8-0.8,0.8H54.1c-0.5,0-0.8-0.3-0.8-0.8V82
				c0-0.5,0.3-0.8,0.8-0.8h48.4V81.3z"/>
			<path style="fill:#C71B08;" d="M100.7,81.6c0.3-0.3,0.8-0.3,1.1,0l0.9,0.8c0.3,0.3,0.3,0.8,0,1.1l-32.5,36
				c-0.3,0.3-0.8,0.3-1.1,0l-0.9-0.8c-0.3-0.3-0.3-0.8,0-1.1L100.7,81.6z"/>
			<path style="fill:#C71B08;" d="M66.4,123c0.2,0.5-0.2,0.9-0.6,0.9l-1.1,0.3c-0.5,0.2-0.9-0.2-0.9-0.6L49.6,72.2
				c-0.2-0.5,0.2-0.9,0.6-0.9l1.1-0.3c0.5-0.2,0.9,0.2,0.9,0.6L66.4,123z"/>
			<path style="fill:#A81707;" d="M55.1,79.5c0.2,0.6-0.2,1.4-0.9,1.5l-1.8,0.5c-0.6,0.2-1.4-0.2-1.5-0.9l-2.6-9.7
				c-0.2-0.6,0.2-1.4,0.9-1.5l1.8-0.5c0.6-0.2,1.4,0.2,1.5,0.9L55.1,79.5z"/>
			<path style="fill:#C71B08;" d="M118.5,117.9c0.2,0.5,0,0.9-0.5,1.1l-1.1,0.3c-0.5,0.2-0.9,0-1.1-0.5L101,79.5
				c-0.2-0.5,0-0.9,0.5-1.1l1.1-0.5c0.5-0.2,0.9,0,1.1,0.5L118.5,117.9z"/>
			<path style="fill:#A81707;" d="M106.5,84.9c0.3,0.6-0.2,1.4-0.8,1.7l-1.7,0.6c-0.6,0.3-1.4-0.2-1.7-0.8l-2.7-8
				c-0.3-0.6,0.2-1.4,0.8-1.7l1.7-0.6c0.6-0.3,1.4,0.2,1.7,0.8L106.5,84.9z"/>
			<path style="fill:#0D0D0D;" d="M62.9,71.6c-3.6,0-7.4,2.9-11.8,2.9s-9.2-2.9-9.8-5.1c-0.6-2.4,2.4-3.9,4.5-2.7
				c2.3,1.2,3.8,2.4,7.3,2.4s7.3-0.2,8.8,0.2C63.4,69.5,63.4,71,62.9,71.6z"/>
			<polygon style="fill:#1A1C1C;" points="62.3,137.8 60.8,137.8 64.7,124.2 66.1,124.2 			"/>
			<path style="fill:#272B2B;" d="M67.9,138.3c0,0.3-0.3,0.6-0.6,0.6H57.2c-0.3,0-0.6-0.3-0.6-0.6v-0.8c0-0.3,0.3-0.6,0.6-0.6h10.1
				c0.3,0,0.6,0.3,0.6,0.6C67.9,137.5,67.9,138.3,67.9,138.3z"/>
			<path style="fill:#C71B08;" d="M32.8,119.1c-0.2,0.3-0.8,0.5-1.1,0.3l-1.1-0.6c-0.3-0.2-0.5-0.8-0.3-1.1l21.9-35.2
				c0.2-0.3,0.8-0.5,1.1-0.3l0.9,0.6c0.3,0.2,0.5,0.8,0.3,1.1L32.8,119.1z"/>
			<path style="fill:#C71B08;" d="M30.7,119.7c-0.5,0-0.8-0.5-0.6-0.9l0.2-1.1c0-0.5,0.5-0.8,0.9-0.6l34.6,5.1
				c0.5,0,0.8,0.5,0.6,0.9l-0.2,1.1c0,0.5-0.5,0.8-0.9,0.6L30.7,119.7z"/>
			<circle style="fill:#2B2B2B;" cx="107.4" cy="67.1" r="2.7"/>
			<circle style="fill:#CCE3E3;" cx="107.4" cy="67.1" r="1.4"/>
		</g>
		<g id="crank">
			<polygon style="fill:#CCE3E3;" points="71.4,120.9 70.5,119.4 66.1,122.1 66.1,117 64.3,117 64.3,122.1 59.9,119.4 59,120.9
				63.5,123.6 59,126.6 59.9,128.1 64.3,125.4 64.3,130.6 66.1,130.6 66.1,125.4 70.5,128.1 71.4,126.6 66.8,123.6 			"/>
			<path style="fill:#4D5757;" d="M73.2,121.8c-0.2-0.2-0.3-0.5-0.5-0.6c0-0.2,0-0.5,0-0.8c0-0.6,0-1.4-0.5-2s-1.2-0.8-1.8-0.9
				c-0.3,0-0.6-0.2-0.6-0.2c-0.2-0.2-0.3-0.3-0.5-0.6c-0.3-0.5-0.8-1.2-1.5-1.4c-0.2,0-0.5-0.2-0.6-0.2c-0.5,0-0.9,0.2-1.4,0.3
				c0,0.2-0.3,0.2-0.5,0.2c-0.2,0-0.5-0.2-0.8-0.2c-0.5-0.2-0.9-0.3-1.4-0.3c-0.2,0-0.5,0-0.6,0.2c-0.8,0.3-1.2,0.9-1.5,1.4
				c-0.2,0.2-0.3,0.5-0.3,0.5c-0.2,0.2-0.5,0.2-0.6,0.2c-0.6,0.2-1.4,0.3-1.8,0.9c-0.5,0.6-0.5,1.4-0.5,2c0,0.3,0,0.6,0,0.8
				s-0.2,0.3-0.5,0.6c-0.5,0.5-0.9,1.1-0.9,1.8c0,0.8,0.5,1.4,0.9,1.8c0.2,0.2,0.3,0.5,0.5,0.6c0,0.2,0,0.5,0,0.8c0,0.6,0,1.4,0.5,2
				s1.2,0.8,1.8,0.9c0.3,0,0.6,0.2,0.6,0.2c0.2,0.2,0.3,0.3,0.5,0.6c0.3,0.5,0.8,1.2,1.5,1.4c0.2,0,0.5,0.2,0.6,0.2
				c0.5,0,0.9-0.2,1.4-0.3c0.3-0.2,0.6-0.2,0.8-0.2s0.5,0.2,0.8,0.2c0.5,0.2,0.9,0.3,1.4,0.3c0.2,0,0.5,0,0.6-0.2
				c0.8-0.3,1.2-0.9,1.5-1.4c0.2-0.2,0.3-0.5,0.5-0.6c0.2-0.2,0.5-0.2,0.6-0.2c0.6-0.2,1.4-0.3,1.8-0.9c0.5-0.6,0.5-1.4,0.5-2
				c0-0.3,0-0.6,0-0.8s0.2-0.3,0.5-0.6c0.5-0.5,0.9-1.1,0.9-1.8C74.1,122.7,73.7,122.1,73.2,121.8z M65.5,129.1
				c-3.2,0-5.7-2.6-5.7-5.7c0-3.2,2.6-5.7,5.7-5.7s5.7,2.6,5.7,5.7C71.2,126.6,68.7,129.1,65.5,129.1z"/>
			<circle style="fill:#4B5454;" cx="65.5" cy="123.6" r="3.6"/>
			<circle style="fill:#5D6969;" cx="65.5" cy="123.6" r="2.4"/>
			<circle style="fill:#798787;" cx="65.5" cy="123.6" r="1.7"/>
			<circle style="fill:#343B3B;" cx="65.5" cy="123.6" r="1.1"/>
		</g>
		<g>
			<polygon style="fill:#1A1C1C;" points="66.5,122.7 65.2,122.7 69,109.1 70.3,109.1 			"/>
			<path style="fill:#272B2B;" d="M76.2,108.8c0,0.3-0.3,0.6-0.6,0.6H65.5c-0.3,0-0.6-0.3-0.6-0.6V108c0-0.3,0.3-0.6,0.6-0.6h10.1
				c0.3,0,0.6,0.3,0.6,0.6V108.8z"/>
		</g>
	</g>
</g>
<g id="Layer_2">
	<g>
		<polygon style="fill:#FCCDAE;" points="91.2,20.9 85.2,23.1 86.6,30.8 95.1,26.5 		"/>
		<path style="fill:#E6B28F;" d="M109.5,60.1c-0.5,0.1-5.4-0.5-6-0.6c-0.6,0-17-1.9-19.2-1.8c0,0,1.7-14.8,1.5-19.3l-9.1,0.3
			c0,0,0.2,15.2,0.8,18.7c0.6,3.5,1.1,4.2,3.2,4.7c2.1,0.5,22.7,1.2,22.7,1.2s0.5,2.7,2.2,3c1.7,0.3,3.4,0.2,3.4,0.2
			s2.3,0.6,2.8-0.7C112.2,64.6,110,60.1,109.5,60.1z"/>
		<path style="fill:#141414;" d="M76.4,42l10-1.3c0,0,1.9-13.9-5.4-12.9C73.7,28.9,76.4,42,76.4,42z"/>
		<polygon style="fill:#FCCDAE;" points="64.5,100.7 66.9,96.7 73,98 70.5,101.7 		"/>
		<polygon style="fill:#9E978F;" points="63.7,101.7 64.8,99.1 71.5,100.7 70.6,102.5 66,103.8 		"/>
		<g>
			<path style="fill:#5E2E10;" d="M62.5,107.6h20.2c0,0-0.1-2.7-1.2-3.4c-1.1-0.7-8.7-2.6-9.7-2.8c-1.1-0.2-3,1.5-5.2,1.5
				c-2.2,0-2.6-1.6-3.3-2.2C62.7,100.2,61.5,105.6,62.5,107.6z"/>
			<rect x="62.5" y="107.6" style="fill:#B8825F;" width="20.2" height="0.8"/>
		</g>
		<path style="fill:#116399;" d="M64.4,97.5l8.7,2.9c0,0,20.2-18.5,22.9-21.5c2.7-3,2.9-6,0-7.1c-2.9-1-30-11.7-31.5-11.9
			C62.9,59.9,41.9,63,41.9,63s0.2,6.3,4,8.1C58,76.8,82.1,79,82.1,79L64.4,97.5z"/>
		<path style="fill:#242424;" d="M65.2,60.2c0,0-11.7,4.3-23.1,4.2c-4.1,0-6.7-3.1-6.7-3.1C35.5,60.1,42.3,41,62.1,30
			c6.2-3.4,14.4-6.3,23-7.3c0,0,2.8,11.2,0,15.6C82.3,42.7,76.7,40.6,65.2,60.2z"/>
		<path style="fill:#303030;" d="M83.9,22.7l1.5-0.3c0,0,1.2,4.1,1.5,8.3l-0.6,1.1L83.9,22.7z"/>
		<path style="fill:#FCCDAE;" d="M91.8,24.3c0,0,2.6,3.1,4.5,4.2c1.8,1,7.6,3.1,8,2.6c0.4-0.5,2.4-5.1,2.8-7.6c0,0,2.2,0.5,2.6,0.6
			c0,0-0.4-5.2-0.9-7.9c0,0,0.9-4.3-0.4-7.1c-1.3-2.8-13.4-6.7-17.9-1.8C86,12,91.8,24.3,91.8,24.3z"/>
		<path style="fill:#632704;" d="M97.7,21.2c0,0-1-3.4,0.2-5c1.2-1.6,3.7-2.2,3.7-5.1c0.1-3,6.2,0.9,7.3,0.7c1.2-0.2,4-5.8,0-8.7
			c0,0,0.9,1.4,0.6,3.2c0,0,0.2-3.2-4.4-5c0,0,1.2,1.3,1.3,3.5c0,0-1.8-3.5-6.2-3.5c0,0,1.6,0.7,2.2,1.8c0,0-3.2-1.8-10.4,0.5
			c-7.3,2.3-3.8,11.2-3.3,13c0.5,1.7,0.4,3.8-1,4.1c0,0,2.5,1.8,3.3,0.5c0.8-1.2,1.4-3.9,1.4-3.9s2.2-0.4,2.4-0.1
			c0.2,0.3,0.1,3.9,0.1,3.9H97.7z"/>
		<path style="fill:#FCCDAE;" d="M95.2,15c0.6,1.3,0.2,2.8-0.9,3.3c-1.1,0.5-2.5-0.2-3.1-1.5c-0.6-1.3-0.2-2.8,0.9-3.3
			C93.2,13,94.6,13.6,95.2,15z"/>
		<g>
			<path style="fill:#1C1B1A;" d="M106.1,17.5c0,0.6-0.5,1-1,1c-0.6,0-1-0.5-1-1c0-0.6,0.5-1,1-1C105.7,16.5,106.1,17,106.1,17.5z"
				/>
			<path style="fill:#FFFFFF;" d="M105.5,17.3c0,0.2-0.2,0.4-0.4,0.4c-0.2,0-0.4-0.2-0.4-0.4c0-0.2,0.2-0.4,0.4-0.4
				C105.3,16.9,105.5,17.1,105.5,17.3z"/>
		</g>
		<path style="fill:#632704;" d="M106.8,15.1c0,0.2-0.2,0.4-0.4,0.4h-3c-0.2,0-0.4-0.2-0.4-0.4l0,0c0-0.2,0.2-0.4,0.4-0.4h3
			C106.6,14.7,106.8,14.9,106.8,15.1L106.8,15.1z"/>
		<path style="fill:#FFFFFF;" d="M103,24.6c0,0,1.2,0.8,3.6,1.2c0,0-0.2,0.7-0.4,1.2C106.2,27.1,104.2,26.5,103,24.6z"/>
		<path style="fill:#996208;" d="M41.9,54.2l3.3,1c8.8-25.7,32-31,32-31c2.6-0.6,4.9-1,4.9-1C66,24.2,48.9,30.9,41.9,54.2z"/>
		<path style="fill:#996208;" d="M64.5,60.5c0,0,4.4-4,8-11c1.5-1.9,2.6-2.9,2.6-2.9l1.8-1.6c0,0-2.3,9.2-8.6,16.7L64.5,60.5z"/>
		<g>
			<g>
				<g>

						<rect x="41.1" y="54.7" transform="matrix(0.2769 -0.9609 0.9609 0.2769 -23.1712 82.3903)" style="fill:#825207;" width="4.2" height="3.8"/>

						<rect x="63.5" y="61.2" transform="matrix(0.2769 -0.9609 0.9609 0.2769 -13.145 108.6661)" style="fill:#825207;" width="4.2" height="3.8"/>
				</g>
				<path style="fill:#996208;" d="M62.4,81.2c-0.1,0.3-0.4,0.4-0.6,0.3l-25.1-7.2c-0.3-0.1-0.4-0.4-0.3-0.6L41.1,57
					c0.1-0.3,0.4-0.4,0.6-0.3l25.1,7.2c0.3,0.1,0.4,0.4,0.3,0.6L62.4,81.2z"/>
				<path style="fill:#AB7010;" d="M63.1,75.5c-0.2,0.8-1.1,1.3-1.9,1l-21.4-6.2c-0.8-0.2-1.3-1.1-1-1.9L42.1,57
					c0.2-0.8,1.1-1.3,1.9-1l21.4,6.2c0.8,0.2,1.3,1.1,1,1.9L63.1,75.5z"/>
				<path style="fill:#D1B62E;" d="M53.5,75.1c-0.1,0.3-0.4,0.4-0.6,0.3l-5.5-1.6c-0.3-0.1-0.4-0.4-0.3-0.6l0.6-2
					c0.1-0.3,0.4-0.4,0.6-0.3l5.5,1.6c0.3,0.1,0.4,0.4,0.3,0.6L53.5,75.1z"/>
				<path style="fill:#AB931F;" d="M52.8,74.4c0,0.1-0.2,0.2-0.3,0.2l-4.3-1.3C48,73.2,48,73.1,48,73l0.3-0.9c0-0.1,0.2-0.2,0.3-0.2
					l4.3,1.3c0.1,0,0.2,0.2,0.2,0.3L52.8,74.4z"/>
			</g>
			<path style="fill:#6E4605;" d="M46,55.6c0,0.1-0.2,0.2-0.3,0.2l-4.2-1.2c-0.1,0-0.2-0.2-0.2-0.3l0.2-0.6c0-0.1,0.2-0.2,0.3-0.2
				l4.2,1.2c0.1,0,0.2,0.2,0.2,0.3L46,55.6z"/>
			<path style="fill:#6E4605;" d="M68.4,62.1c0,0.1-0.2,0.2-0.3,0.2L64,61c-0.1,0-0.2-0.2-0.2-0.3l0.2-0.6c0-0.1,0.2-0.2,0.3-0.2
				l4.2,1.2c0.1,0,0.2,0.2,0.2,0.3L68.4,62.1z"/>
		</g>
		<path style="fill:#FCCDAE;" d="M74.6,39.7c0,0,1,16.6,1.8,20.4c0.8,3.8,1.3,4.5,3.6,5c2.2,0.4,23.5,0,23.5,0s0.6,2.9,2.4,3.1
			c1.8,0.3,3.5,0.1,3.5,0.1s2.4,0.5,2.9-0.9c0.5-1.4-2.1-6.2-2.6-6.1c-0.5,0.1-5.6-0.3-6.3-0.3s-17.7-1.2-20-0.9
			c0,0,1-16.2,0.5-21.2L74.6,39.7z"/>
		<path style="fill:#2B2B2B;" d="M110.5,67.7c0,1.5-1.2,2.7-2.7,2.7c-1.5,0-2.7-1.2-2.7-2.7c0-1.5,1.2-2.7,2.7-2.7
			C109.3,65,110.5,66.2,110.5,67.7z"/>
		<path style="fill:#CCE3E3;" d="M109.2,67.7c0,0.8-0.6,1.4-1.4,1.4c-0.8,0-1.4-0.6-1.4-1.4c0-0.8,0.6-1.4,1.4-1.4
			C108.6,66.3,109.2,66.9,109.2,67.7z"/>
		<path style="fill:#303030;" d="M73.9,42.6l10.8-1.2c0,0,3-13.7-4.4-13.5C72.8,28,73.9,42.6,73.9,42.6z"/>
	</g>
</g>
</svg>
