<svg xmlns="http://www.w3.org/2000/svg" viewBox="0 0 620 380"><path fill="#4DC2D2" d="M171.8 55.9s9.4-5.5 6-9c-3.4-3.5-13.1-4.3-28.3 5.9-16.8 11.3-32.5 30.7-29.1 48.4 6.3 33.1 53.3 29 58.1 28.8 4.8-.2 4.5-9.1-1-9.3-5.5-.2-40.7 4.1-43.4-18.5-2.6-22.5 2.7-33.1 37.7-46.3z"/><path fill="none" stroke="#E9F0EA" stroke-width="3" stroke-miterlimit="10" d="M170 157.8L81.6 345.5M205.5 185.2l-160 132M226 225.1L25 276.2M227.5 269.9L23.8 230.5M209.8 311.1L42.4 188.6M176.2 340.7L77 158.5M126.5 148v208"/><path fill="#00354D" d="M3.4 252.1c0 67.6 54.8 122.4 122.4 122.4 67.6 0 122.4-54.8 122.4-122.4 0-67.6-54.8-122.4-122.4-122.4-67.6-.1-122.4 54.7-122.4 122.4zm18.6 0c0-57.3 46.5-103.8 103.8-103.8s103.8 46.5 103.8 103.8-46.5 103.8-103.8 103.8S22 309.4 22 252.1z"/><circle fill="none" stroke="#E9F0EA" stroke-width="6" stroke-miterlimit="10" cx="125.8" cy="252.1" r="109.5"/><g><path fill="none" stroke="#E9F0EA" stroke-width="3" stroke-miterlimit="10" d="M539.7 157.8l-88.4 187.7M575.2 185.2l-160 132M595.7 225.1l-201 51.1M597.2 269.9l-203.6-39.4M579.5 311.1L412.1 188.6M545.9 340.7l-99.2-182.2M495.5 148v208"/><path fill="#00354D" d="M373.1 252.1c0 67.6 54.8 122.4 122.4 122.4 67.6 0 122.4-54.8 122.4-122.4 0-67.6-54.8-122.4-122.4-122.4-67.6-.1-122.4 54.7-122.4 122.4zm18.6 0c0-57.3 46.5-103.8 103.8-103.8s103.8 46.5 103.8 103.8-46.5 103.8-103.8 103.8-103.8-46.5-103.8-103.8z"/><circle fill="none" stroke="#E9F0EA" stroke-width="6" stroke-miterlimit="10" cx="495.5" cy="252.1" r="109.5"/></g><path fill="#004667" d="M123.2 250.8c2.5 3.7 9.5 4.1 9.5-1.8 0-6 .2-.8.2-.8s29.8-24 39.9-58.8c10.1-34.7 23.2-65.3 24.5-64.7 1.2.6 40.7 43.1 50.3 54.5 9.7 11.3 83 89.4 88.4 94.1 5.3 4.7 90.6-10.3 92.1-10.3 1.4 0 59-10.3 60.8-9 0 0 2.1 5.1 5.8 4.1 3.7-1 12.9-5.8 5.1-12.1-7.8-6.4-52.2-73.8-52.2-73.8s-46.6-69.9-47.3-72.3c-.6-2.5.6-.8 1-11.7.4-11.1 13.1-55.1 14.7-55.8l-9-1.2s-4.6 13.9-7.8 25.6c-3.1 11.1-5.7 30.8-9.3 31.4-3.6.5-179.8 0-179.8 0v-3.5s5-2.5 1.8-3.5l.9-5.5-9.4-3.5-2 5.1s-38.2 121-44.2 131.5-26.7 36-29.2 36.4c-2.5.3-7.3 1.9-4.8 5.6zM351 262.2c2.8-8.7 42.4-151.2 42.4-151.2s.8-10.2 7.4 0c6.6 10.2 81.7 124.1 81.7 124.1s10.7 12.5-5.1 14.6c-15.8 2-122.6 17.4-122.6 17.4s-6.7 3.8-3.8-4.9zM201 110c1.8-6.4.3-10.7 10-12 9.7-1.3 176 0 176 0s-42.7 165.5-46.7 164.2C336.1 260.9 199.2 116.4 201 110z"/><path fill="#276169" d="M440.9 19.4l4.6-1.8s.2 2.4-.9 4.5-3.2 10.3-8.7 11.1c-5.4.8-10.4-.5-14.2-.4-3.9.2-17.2-.8-21.2-.7-4 .1-21.9-6.8-20.9-9.8l4.3.5s17.4 8 48.8 7.4c4.7.1 8.2-1.5 8.2-10.8z"/><path fill="#276169" d="M405.9 29s3.7 8.2 4.9 9.9c1.2 1.7 4.5 2.5 7.9-.9 3.4-3.4 1.3-8 1.3-8-5.3 1.2-14.1-1-14.1-1zm2.3 1.8s6.1 1.5 9.7.6c0 0 1.5 3.2-.9 5.5-2.3 2.3-4.6 1.8-5.5.6-.7-1.1-3.3-6.7-3.3-6.7z"/><path fill="#4DC2D2" d="M446.9 8s8.7-1.5 8.5 2.1c-.1 3.5-4 5.5-11.6 8.2C436.2 21 427 27.8 420 30c-7 2.2-24.1-4.4-33.2-6.3-9-1.9-20.1-2.9-20.1-5.1 0-2.2-2.3-9 31.5-6 28.5 2.5 40.8-4.3 48.7-4.6z"/><path fill="#004667" d="M213.7 69.4s12.4-25.8 5.4-28.9c-7.1-3.1-44-1-47.8 3.6-3.8 4.6-1 12.4 1.9 14.2 2.9 1.7 10.7.5 10.9-4.1.2-4.5 12.4-8.8 16.5-8.2 4 .6 11.9-.8 12.6.8.8 1.5-12.1 18.6-10.1 20.7 1.8 2 8.8 5.9 10.6 1.9z"/><path fill="#4DC2D2" d="M220 73.4c0-3.5-3.3-6.4-6.8-6.4H205c-3.5 0-6 2.9-6 6.4v.1c0 3.5 2.5 6.5 6 6.5h8.3c3.5 0 6.8-3 6.8-6.5v-.1z"/><path fill="none" stroke="#004667" stroke-width="3" stroke-linecap="round" stroke-linejoin="round" stroke-miterlimit="10" stroke-dasharray="0,2" d="M492.2 249.3s6.7 7.6-36.3 16.8c-43 9.2-123.5 45.7-143.2 13.7-16.3-26.5 16.1-39.7 26-40.1 9.9-.4 129.6 1.9 129.6 1.9s23.9-1.9 23.9 7.7z"/><circle fill="#5C5E5C" cx="332.3" cy="265.3" r="25.7"/><circle fill="#5C5E5C" cx="476.3" cy="253.3" r="15"/><circle fill="#FFF" cx="476.3" cy="253.3" r="6"/><circle fill="#FFF" cx="332.3" cy="265.3" r="9.4"/><g fill="#00354D"><path d="M289.436 276.265l44.953-12.646 1.083 3.85-44.953 12.646z"/><path d="M282 267h11v22h-11z"/></g><circle fill="#00354D" cx="333.3" cy="266" r="3.4"/></svg>