<svg version="1.1" class="Layer_1" xmlns="http://www.w3.org/2000/svg" xmlns:xlink="http://www.w3.org/1999/xlink" x="0px" y="0px"
	 width="150px" height="150px" viewBox="0 0 150 150" style="enable-background:new 0 0 150 150;" xml:space="preserve">
<ellipse style="opacity:0.2;enable-background:new    ;" cx="74.2" cy="147.9" rx="74.2" ry="2.1"/>
<g id="Layer_2_1_">
	<path style="fill:#E0BFA5;" d="M90.6,88.3l-22.7,22.6l6.5,10.6l-17-9.6l24.2-25.6L56,80.9c0,0-7.7-8.4-0.9-14
		c5-4.1,24.5,6.7,34.7,12.8C92.9,81.6,93.3,85.9,90.6,88.3z"/>
	<path style="fill:#00263C;" d="M57.3,111.8l17.4,9.9l0.4-1l-4.8-6.4l-0.7,0.1c-1.6,0.1-3.3-0.2-4.8-0.9l-2.9-1.5
		c-1-0.5-1.5-1.6-1.1-2.7l0.5-1.5L57.3,111.8z"/>
	<path style="fill:#E0BFA5;" d="M73.2,34.1L74,51.5l12.9,5.6l5.8,0.7l0.7,6c0.1,0.5-0.3,1-0.9,1l0,0c-0.4,0-0.7-0.3-0.9-0.6l0,0
		l-1,0.1c-0.3,0-0.6-0.2-0.7-0.4l0,0l-1.1,0.2c-0.2,0-0.4-0.1-0.4-0.3l0,0h-0.3c-0.3,0-0.6-0.1-0.8-0.4l-0.5-0.8
		c-0.2-0.3-0.1-0.8,0.2-1l0,0l-13.7-3.5c-2.4-0.6-4.3-2.6-4.7-5.1l-2-18.1c-0.2-1.4,0.5-2.7,1.8-3.3l0,0
		C70.6,30.2,73.1,31.7,73.2,34.1z"/>
</g>
<g>
	<g>
		<g>
			<path style="fill:#2E2B23;" d="M68.6,123.5l-6-7.1c-0.2-0.3-0.6-0.3-0.9-0.1c-0.3,0.2-0.3,0.6-0.1,0.9l6.1,7.2l-0.1,1
				c-0.1,0.4,0.1,0.8,0.3,1l0.9,0.9c0.3,0.3,0.9,0.4,1.3,0.1l1-0.7c0.4-0.3,0.5-0.9,0.2-1.3l-0.8-1.2c-0.2-0.3-0.5-0.5-0.9-0.5
				L68.6,123.5z"/>
			<polygon style="fill:#2E2B23;" points="58.8,112.9 57.3,115.9 64.2,119.2 65.5,116.3 			"/>
		</g>
		<g class="crank">
			<path style="fill:#504B45;" d="M73.7,126.3l4.7-0.9l-4.8-0.7c-0.4-0.1-0.7-0.6-0.4-0.9l2.7-4l-3.8,2.9c-0.4,0.3-0.9,0.1-1-0.4
				l-0.9-4.7l-0.7,4.8c-0.1,0.4-0.6,0.7-0.9,0.4l-4-2.7l2.9,3.8c0.3,0.4,0.1,0.9-0.4,1l-4.7,0.9l4.8,0.7c0.4,0.1,0.7,0.6,0.4,0.9
				l-2.7,4l3.8-2.9c0.4-0.3,0.9-0.1,1,0.4l0.9,4.7l0.7-4.8c0.1-0.4,0.6-0.7,0.9-0.4l4,2.7l-2.9-3.8
				C73.1,126.9,73.3,126.4,73.7,126.3z"/>
		</g>
		<g class="wheel">
			<polygon style="fill:#786F6E;" points="29.4,147.1 25.4,146.3 32.9,120.2 33.5,120.4 26.1,145.9 29,146.4 37.1,121.3 37.6,121.4
							"/>
			<polygon style="fill:#786F6E;" points="37.3,122.3 36.8,122.1 44.1,96.6 41.2,96.1 33.2,121.2 32.6,121.1 40.8,95.4 44.8,96.2
							"/>
			<polygon style="fill:#786F6E;" points="12.8,135.5 10.5,132.1 34.3,119 34.6,119.5 11.4,132.3 13,134.8 36.5,122.6 36.7,123.1
							"/>
			<polygon style="fill:#786F6E;" points="35.9,123.5 35.7,123 58.9,110.2 57.2,107.7 33.8,119.9 33.5,119.4 57.4,107 59.7,110.4
							"/>
			<polygon style="fill:#786F6E;" points="34.9,123.7 9.3,115.5 10.1,111.6 36.1,119 36,119.6 10.5,112.3 9.9,115.2 35.1,123.2
				"/>
			<polygon style="fill:#786F6E;" points="60.2,130.9 34.1,123.5 34.2,122.9 59.7,130.2 60.3,127.3 35.1,119.3 35.3,118.8 61,127
							"/>
			<polygon style="fill:#786F6E;" points="33.2,122.9 20.9,98.9 24.3,96.7 37.4,120.4 36.9,120.7 24.1,97.5 21.6,99.1 33.7,122.6
							"/>
			<polygon style="fill:#786F6E;" points="46,145.8 32.8,122.1 33.3,121.8 46.2,145 48.6,143.4 36.5,119.9 37,119.6 49.4,143.6
				"/>
			<polygon style="fill:#786F6E;" points="19,142.1 15.9,139.8 33.6,119.4 33.9,119.7 16.4,139.8 19,141.6 36.9,122.1 37.2,122.4
							"/>
			<polygon style="fill:#786F6E;" points="36.6,123.1 36.3,122.8 53.8,102.7 51.3,100.9 33.3,120.3 33,120.1 51.2,100.4 54.4,102.7
							"/>
			<polygon style="fill:#786F6E;" points="9,124.6 8.4,120.8 35.3,118.9 35.4,119.3 8.8,121.1 9.3,124.2 35.8,123.2 35.8,123.5
				"/>
			<polygon style="fill:#786F6E;" points="34.9,123.6 34.9,123.2 61.4,121.4 61,118.3 34.5,119.3 34.5,119 61.3,117.9 61.9,121.7
							"/>
			<polygon style="fill:#786F6E;" points="34,123.3 14.2,105.1 16.5,102 36.9,119.8 36.7,120 16.6,102.6 14.7,105.1 34.2,123.1
				"/>
			<polygon style="fill:#786F6E;" points="53.7,140.5 33.3,122.7 33.6,122.5 53.6,139.9 55.5,137.4 36,119.4 36.3,119.2 56,137.4
							"/>
			<polygon style="fill:#786F6E;" points="32.8,121.9 31.7,95.1 35.6,94.5 37.4,121.5 37.1,121.5 35.2,94.9 32.1,95.4 33.2,121.9
							"/>
			<polygon style="fill:#786F6E;" points="34.7,148 32.8,121 33.2,121 35,147.6 38.1,147.1 37,120.6 37.4,120.6 38.5,147.4 			"/>
			<path style="fill:#2E2B23;" d="M35.2,94.2c-15,0-27.1,12.2-27.1,27.1c0,15,12.2,27.1,27.1,27.1s27.1-12.2,27.1-27.1
				C62.3,106.4,50.2,94.2,35.2,94.2z M35.2,145.4c-13.3,0-24.1-10.8-24.1-24.1s10.8-24.1,24.1-24.1s24.1,10.8,24.1,24.1
				S48.5,145.4,35.2,145.4z"/>
			<path style="fill:#574B2A;" d="M35.2,97.2C21.8,97.2,11,108,11,121.4s10.8,24.2,24.2,24.2s24.2-10.8,24.2-24.2
				C59.4,108,48.5,97.2,35.2,97.2z M35.2,144.5c-12.8,0-23.1-10.3-23.1-23.1s10.3-23.1,23.1-23.1s23.1,10.3,23.1,23.1
				S47.9,144.5,35.2,144.5z"/>
			<circle style="fill:#433836;" cx="35.2" cy="121.4" r="2.9"/>
		</g>
		<g class="wheel">
			<g>
				<polygon style="fill:#786F6E;" points="116.7,146.3 112.7,145.5 120.2,119.4 120.8,119.6 113.5,145.1 116.3,145.6 124.4,120.5
					124.9,120.6 				"/>
			</g>
			<g>
				<polygon style="fill:#786F6E;" points="124.6,121.5 124.1,121.3 131.4,95.8 128.5,95.2 120.5,120.4 120,120.2 128.1,94.6
					132.1,95.4 				"/>
			</g>
			<g>
				<polygon style="fill:#786F6E;" points="100.1,134.7 97.9,131.3 121.6,118.1 121.9,118.6 98.7,131.5 100.3,133.9 123.8,121.8
					124.1,122.3 				"/>
			</g>
			<g>
				<polygon style="fill:#786F6E;" points="123.3,122.7 123,122.2 146.2,109.4 144.6,106.9 121.1,119.1 120.8,118.6 144.8,106.2
					147,109.6 				"/>
			</g>
			<g>
				<polygon style="fill:#786F6E;" points="122.2,122.9 96.6,114.7 97.4,110.7 123.5,118.2 123.3,118.8 97.8,111.5 97.2,114.3
					122.4,122.4 				"/>
			</g>
			<g>
				<polygon style="fill:#786F6E;" points="147.5,130.1 121.4,122.6 121.6,122.1 147.1,129.4 147.6,126.5 122.5,118.5 122.6,118
					148.3,126.1 				"/>
			</g>
			<g>
				<polygon style="fill:#786F6E;" points="120.6,122.1 108.2,98.1 111.6,95.9 124.7,119.6 124.2,119.9 111.4,96.7 108.9,98.3
					121.1,121.8 				"/>
			</g>
			<g>
				<polygon style="fill:#786F6E;" points="133.3,145 120.1,121.3 120.6,121 133.5,144.2 135.9,142.6 123.8,119.1 124.3,118.8
					136.7,142.8 				"/>
			</g>
			<g>
				<polygon style="fill:#786F6E;" points="106.3,141.3 103.2,139 120.9,118.6 121.2,118.9 103.7,139 106.3,140.8 124.3,121.3
					124.5,121.6 				"/>
			</g>
			<g>
				<polygon style="fill:#786F6E;" points="123.9,122.2 123.6,122 141.1,101.9 138.6,100.1 120.6,119.5 120.3,119.3 138.6,99.6
					141.7,101.9 				"/>
			</g>
			<g>
				<polygon style="fill:#786F6E;" points="96.3,123.8 95.7,120 122.7,118.1 122.7,118.5 96.1,120.3 96.6,123.4 123.1,122.4
					123.1,122.7 				"/>
			</g>
			<g>
				<polygon style="fill:#786F6E;" points="122.2,122.8 122.2,122.4 148.7,120.6 148.3,117.5 121.8,118.5 121.8,118.1 148.6,117.1
					149.2,120.9 				"/>
			</g>
			<g>
				<polygon style="fill:#786F6E;" points="121.3,122.5 101.6,104.3 103.9,101.2 124.2,118.9 124,119.2 103.9,101.8 102.1,104.3
					121.5,122.3 				"/>
			</g>
			<g>
				<polygon style="fill:#786F6E;" points="141,139.7 120.6,121.9 120.9,121.6 141,139.1 142.8,136.6 123.3,118.6 123.6,118.3
					143.3,136.6 				"/>
			</g>
			<g>
				<polygon style="fill:#786F6E;" points="120.1,121.1 119.1,94.3 122.9,93.7 124.8,120.7 124.4,120.7 122.6,94.1 119.5,94.6
					120.5,121.1 				"/>
			</g>
			<g>
				<polygon style="fill:#786F6E;" points="122,147.2 120.1,120.2 120.5,120.2 122.3,146.8 125.4,146.3 124.4,119.8 124.7,119.8
					125.8,146.6 				"/>
			</g>
			<path style="fill:#2E2B23;" d="M122.5,93.4c-15,0-27.1,12.2-27.1,27.1c0,15,12.2,27.1,27.1,27.1s27.1-12.2,27.1-27.1
				C149.6,105.5,137.5,93.4,122.5,93.4z M122.5,144.6c-13.3,0-24.1-10.8-24.1-24.1s10.8-24.1,24.1-24.1s24.1,10.8,24.1,24.1
				S135.8,144.6,122.5,144.6z"/>
			<path style="fill:#574B2A;" d="M122.5,96.4c-13.4,0-24.2,10.8-24.2,24.2s10.8,24.2,24.2,24.2s24.2-10.8,24.2-24.2
				C146.7,107.2,135.8,96.4,122.5,96.4z M122.5,143.6c-12.8,0-23.1-10.3-23.1-23.1s10.3-23.1,23.1-23.1s23.1,10.3,23.1,23.1
				S135.2,143.6,122.5,143.6z"/>
			<circle style="fill:#433836;" cx="122.5" cy="120.5" r="2.9"/>
		</g>
		<g>
			<path style="fill:#504B45;" d="M66.5,93c-0.2,0-0.5-0.1-0.6-0.3L60.7,83c-0.2-0.3-0.1-0.7,0.3-0.9c0.3-0.2,0.7-0.1,0.9,0.3
				l5.2,9.7c0.2,0.3,0.1,0.7-0.3,0.9C66.7,92.9,66.6,93,66.5,93z"/>
			<path style="fill:#504B45;" d="M102.3,79.3c-0.3,0-0.5-0.2-0.6-0.5L98.3,68c-0.1-0.4,0.1-0.7,0.4-0.8c0.4-0.1,0.7,0.1,0.8,0.4
				l3.4,10.9c0.1,0.4-0.1,0.7-0.4,0.8C102.4,79.3,102.4,79.3,102.3,79.3z"/>
			<path style="fill:#746C67;" d="M18.6,97.6C18.5,97.6,18.5,97.6,18.6,97.6c-0.3,0-0.4-0.2-0.4-0.4l1.6-8.6c0-0.2,0.2-0.3,0.4-0.3
				c0.2,0,0.3,0.2,0.3,0.4l-1.6,8.6C18.9,97.5,18.7,97.6,18.6,97.6z"/>
			<path style="fill:#504B45;" d="M92.1,63.4l0.4,4.2c0,0-1.5-1.7-4.4-1.7s-4.4,1.9-4.4,1.9s-0.1,0.9,0.9,0.8c1-0.2,0.5-1.1,0.5-1.1
				s1.4-1.4,3.9-0.7c2.4,0.7,4.3,2.5,4.3,2.5l3.6-0.7l-0.6-1.3c0,0-1.9-0.2-2.4-1.6c-0.4-1.4,2.2-3,2.2-3S93.4,60.3,92.1,63.4z"/>
			<path style="fill:#87A132;" d="M62.2,114.6c-3.2-12-14.1-20.8-27-20.8c-12.1,0-22.3,7.6-26.3,18.3c-1.9,3.8-3.3,5.6-4.1,4.7
				c3-14,15.4-24.6,30.3-24.6c15,0,27.5,10.7,30.4,24.9C64.2,117.6,63,117.1,62.2,114.6z"/>
			<path style="fill:#87A132;" d="M145.2,104.6c-7.4-9.9-20.8-14-32.9-9.2c-11.2,4.5-17.9,15.5-17.5,26.8c-0.3,4.3-0.9,6.4-2,5.9
				C90.3,114,97.9,99.5,111.7,94c13.9-5.6,29.5-0.4,37.5,11.7C148.2,106.7,146.9,106.7,145.2,104.6z"/>
			<path style="fill:#7A4B32;" d="M70.7,77.1l1.8,3.6c0,0-3.6,4.6-9.4,5.4c-5.7,0.9-15.6-2-15.6-4.1c0.1-2,2.4-4.2,6.5-4.2
				c4,0,5.6,2.3,9.5,2.3C67.3,80.1,70.7,77.1,70.7,77.1z"/>
			<path style="fill:#583721;" d="M72.5,80.7c0,0-3.6,4.6-9.4,5.4c-5.7,0.9-15.6-2-15.6-4.1c0,0,1.9-2.1,6.5-0.3
				C58.5,83.5,62.6,84.8,72.5,80.7z"/>
			<g>
				<path style="fill:#504B45;" d="M116.3,116.7L116.3,116.7c-0.6,0-1-0.5-1-1s1-12,4.5-18.2c3.6-6.5,7.8-8.2,8-8.2
					c0.5-0.1,1,0.2,1.2,0.7c0.1,0.5-0.2,1-0.7,1.2c0,0-3.7,1-6.9,6.7c-3.3,5.8-4.1,17.9-4.1,18C117.3,116.3,116.8,116.7,116.3,116.7
					z"/>
			</g>
			<g>
				<path style="fill:#9A8150;" d="M98.4,68.2c-1.3,0-2.5-0.8-2.9-2.1l-0.3-0.8c-0.5-1.5-1.9-2.4-3.5-2.3l-2.3,0.1l-4.5,2
					c-0.3,0.2-0.7,0-0.9-0.3c-0.2-0.3,0-0.7,0.3-0.9l1.3-0.6H85c-0.4,0-0.7-0.3-0.7-0.6c0-0.4,0.3-0.7,0.6-0.7l4.1-0.3l6.8-3.1
					c1.1-0.5,2.3-0.5,3.4,0.1c1.1,0.5,1.8,1.5,2,2.7l0.5,2.4c0.2,1,0,2-0.6,2.8s-1.5,1.4-2.5,1.5C98.6,68.2,98.5,68.2,98.4,68.2z
					 M92.7,61.7c1.8,0.3,3.3,1.5,3.8,3.2l0.3,0.8c0.3,0.8,1,1.2,1.8,1.1c0.6-0.1,1.2-0.4,1.6-0.9s0.5-1.2,0.4-1.8l-0.5-2.4
					c-0.2-0.8-0.6-1.4-1.3-1.7c-0.7-0.4-1.5-0.4-2.2,0L92.7,61.7z"/>
			</g>
			<path style="fill:#2E2B23;" d="M94.2,62.1l2.3,3.6c0,0-2.1-0.9-4.7,0.6c-2.6,1.4-3,3.7-3,3.7s0.4,0.9,1.2,0.3
				c0.8-0.6,0-1.2,0-1.2s0.6-1.9,3.1-2.5s4.9,0.2,4.9,0.2l2.8-2.3l-1.1-0.8c0,0-1.8,0.8-2.8-0.3c-1-1,0.6-3.7,0.6-3.7
				S93.8,58.8,94.2,62.1z"/>
			<path style="fill:#7A4B32;" d="M91.9,60.7l-11.3,0.1c-0.4,0.8-0.5,1.6-0.5,2.2c0.1,0.7,0.9,1.1,1.5,0.7l0.7-0.4l0.8,0.6
				c0.4,0.3,0.9,0.2,1.3-0.1l0.6-0.5l0.7,0.6c0.4,0.3,0.9,0.3,1.3,0l0.6-0.5l0.7,0.6c0.4,0.3,1.1,0.3,1.4-0.1l0.4-0.4l0.4,0.4
				c0.5,0.4,1.3,0.1,1.4-0.5l0,0C92.6,62.6,92.8,61.9,91.9,60.7z"/>
			<path style="fill:#583721;" d="M92.6,59.8l-9.9,5.3c0.1,0.9,0.3,1.7,0.6,2.2c0.4,0.6,1.3,0.5,1.7-0.1l0.4-0.7l1,0.1
				c0.5,0,0.9-0.2,1.1-0.7l0.3-0.8l0.9,0.2c0.5,0.1,1-0.2,1.2-0.6l0.3-0.7l0.9,0.2c0.5,0.1,1.1-0.2,1.2-0.8l0.2-0.6l0.5,0.1
				c0.7,0.2,1.2-0.5,1-1.1l0,0C94.2,61.2,94,60.5,92.6,59.8z"/>
			<g>
				<path style="fill:#87A132;" d="M122.4,121.7c-0.2,0-0.3,0-0.5-0.1l-1.7-0.9c-2.6-1.4-4.6-3.6-5.6-6.4l-13.3-35.7
					c-0.2-0.5,0.1-1.1,0.6-1.2c0.5-0.2,1.1,0.1,1.2,0.6l13.3,35.7c0.9,2.3,2.5,4.2,4.7,5.4l1.7,0.9c0.5,0.2,0.7,0.8,0.4,1.3
					C123.1,121.5,122.7,121.7,122.4,121.7z"/>
			</g>
			<g>
				<path style="fill:#ABB44D;" d="M106.7,95.5c-0.4,0-0.9-0.3-0.9-0.8c-0.1-0.5,0.2-1,0.7-1.2l23-4.9c0.5-0.1,1,0.2,1.2,0.7
					c0.1,0.5-0.2,1-0.7,1.2l-23,4.9C106.8,95.5,106.8,95.5,106.7,95.5z"/>
			</g>
			<g>
				<path style="fill:#2E2B23;" d="M101.2,78.9c-0.3,0-0.6-0.2-0.7-0.5c-0.2-0.4,0.1-0.9,0.5-1l1.6-0.6c0.4-0.2,0.9,0.1,1,0.5
					c0.2,0.4-0.1,0.9-0.5,1l-1.6,0.6C101.4,78.9,101.3,78.9,101.2,78.9z"/>
			</g>
			<path class="chain" style="fill:#21211E;" d="M70.6,132L70.6,132l-1.4-0.4l0,0l-1.4-0.4l0,0l-1.4-0.4l0,0l-1.4-0.4l0,0l-1.8-0.5l0,0
				l-1.4-0.4l0,0l-1-0.3l0,0l-1.4-0.4l0,0l-1.4-0.4l0,0l-1.4-0.4l0,0l-1.4-0.4l0,0l-1.4-0.4l0,0l-1.4-0.4l0,0l-1.4-0.4l0,0l-1.8-0.5
				l0,0l-1.4-0.4l0,0l-1.4-0.4l0,0l-1-0.3l0,0l-1.4-0.4l0,0l-1.4-0.4l0,0l-1.4-0.4l0,0l-1.4-0.4l0,0l-1.4-0.4l0,0l-1.4-0.4l0,0
				l-1.8-0.5l0,0l-1.4-0.4c0,0-0.5,1.5,0.5,1.8c0.4,0.1,0.6-0.1,0.8-0.3c0.1,0.3,0.2,0.6,0.6,0.7c0.4,0.1,0.6-0.1,0.8-0.3
				c0.1,0.3,0.2,0.6,0.6,0.7c0.4,0.1,0.6-0.1,0.8-0.3c0.1,0.3,0.2,0.6,0.6,0.7c0.4,0.1,0.6-0.1,0.8-0.3c0.1,0.3,0.2,0.6,0.6,0.7
				c0.4,0.1,0.6-0.1,0.8-0.3c0.1,0.3,0.2,0.6,0.6,0.7c0.4,0.1,0.6-0.1,0.8-0.3c0.1,0.3,0.2,0.6,0.6,0.7c0.4,0.1,0.6-0.1,0.8-0.3
				c0.1,0.3,0.2,0.6,0.6,0.7c0.4,0.1,0.6-0.1,0.8-0.3c0.1,0.3,0.2,0.6,0.6,0.7c0.4,0.1,0.6-0.1,0.8-0.3c0.1,0.3,0.2,0.6,0.6,0.7
				c0.4,0.1,0.6-0.1,0.8-0.3c0.1,0.3,0.2,0.6,0.6,0.7c0.4,0.1,0.6-0.1,0.8-0.3c0.1,0.3,0.2,0.6,0.6,0.7c0.4,0.1,0.6-0.1,0.8-0.3
				c0.1,0.3,0.2,0.6,0.6,0.7c0.4,0.1,0.6-0.1,0.8-0.3c0.1,0.3,0.2,0.6,0.6,0.7c0.4,0.1,0.6-0.1,0.8-0.3c0.1,0.3,0.2,0.6,0.6,0.7
				c0.4,0.1,0.6-0.1,0.8-0.3c0.1,0.3,0.2,0.6,0.6,0.7c0.4,0.1,0.6-0.1,0.8-0.3c0.1,0.3,0.2,0.6,0.6,0.7c0.4,0.1,0.6-0.1,0.8-0.3
				c0.1,0.3,0.2,0.6,0.6,0.7c0.4,0.1,0.6-0.1,0.8-0.3c0.1,0.3,0.2,0.6,0.6,0.7c0.4,0.1,0.6-0.1,0.8-0.3c0.1,0.3,0.2,0.6,0.6,0.7
				c0.4,0.1,0.6-0.1,0.8-0.3c0.1,0.3,0.2,0.6,0.6,0.7c0.4,0.1,0.6-0.1,0.8-0.3c0.1,0.3,0.2,0.6,0.6,0.7c0.4,0.1,0.6-0.1,0.8-0.3
				c0.1,0.3,0.2,0.6,0.6,0.7c0.4,0.1,0.6-0.1,0.8-0.3c0.1,0.3,0.2,0.6,0.6,0.7c0.4,0.1,0.6-0.1,0.8-0.3c0.1,0.3,0.2,0.6,0.6,0.7
				c0.4,0.1,0.6-0.1,0.8-0.3c0.1,0.3,0.2,0.6,0.6,0.7c0.4,0.1,0.6-0.1,0.8-0.3c0.1,0.3,0.2,0.6,0.6,0.7c1,0.3,1.3-1.3,1.3-1.3
				L70.6,132z"/>
			<path style="fill:#87A132;" d="M70.9,126.8c-0.8,0-1.5-0.1-2.3-0.2l-34.1-4.7l-0.6-16l-14.4-17c-0.2-0.3-0.2-0.7,0.1-0.9
				c0.3-0.2,0.7-0.2,0.9,0.1l14.7,17.4l0.6,15.3l33,4.5c7.4,1,14.3-3.2,16.9-10.1c1.9-5,3.7-9.3,5.4-12.9c2.7-5.7,6.6-9.2,9.4-11.2
				c3-2.1,5.4-2.9,5.5-2.9c0.4-0.1,0.7,0.1,0.8,0.4c0.1,0.4-0.1,0.7-0.4,0.8c0,0-2.3,0.7-5.2,2.8c-2.7,1.9-6.4,5.2-8.9,10.6
				c-1.7,3.5-3.5,7.8-5.3,12.8c-1.4,3.6-3.9,6.7-7.3,8.7C77.1,125.9,74,126.8,70.9,126.8z"/>
			<path style="fill:#87A132;" d="M35.2,122.4c-0.4,0-0.6-0.3-0.7-0.6c0-0.4,0.3-0.7,0.6-0.7c0.2,0,20.3-1,30.4-1.5
				c10-0.5,14.4-3.1,17.1-10.1c1.9-5,3.7-9.3,5.4-12.9c2.7-5.7,6.6-9.2,9.4-11.2c3-2.1,5.4-2.9,5.5-2.9c0.4-0.1,0.7,0.1,0.8,0.4
				c0.1,0.4-0.1,0.7-0.4,0.8c0,0-2.3,0.7-5.2,2.8c-2.7,1.9-6.4,5.2-8.9,10.6c-1.7,3.5-3.5,7.8-5.3,12.8c-2.8,7.5-7.8,10.5-18.3,11
				C55.5,121.4,35.4,122.4,35.2,122.4L35.2,122.4z"/>
			<path style="fill:#4D893D;" d="M70.7,116.6l-25.1-0.2c-1.4,0-2.8,0.4-4,1.2l-5.3,3.5l14.8-1c5.1-0.3,9.8,2.9,11.3,7.8l0,0
				c1.1,3.5,4.3,6,7.9,6.1l0,0c4.9,0.2,8.9-3.6,9-8.5l0,0C79.4,120.6,75.5,116.6,70.7,116.6z M70.7,130.8c-2.9,0-5.2-2.3-5.2-5.2
				c0-2.9,2.3-5.2,5.2-5.2c2.9,0,5.2,2.3,5.2,5.2C75.8,128.5,73.5,130.8,70.7,130.8z"/>
			<path style="fill:#ABB44D;" d="M35.2,122.4c-0.2,0-0.4-0.1-0.5-0.2c-0.3-0.3-0.2-0.7,0-0.9l30.8-29c0.5-0.5,1.3-0.6,2-0.3
				L92,104.6c0.3,0.2,0.5,0.6,0.3,0.9s-0.6,0.5-0.9,0.3l-24-12.3c-0.4-0.2-1-0.2-1.4,0.2l-30.4,28.6
				C35.5,122.4,35.3,122.4,35.2,122.4z"/>
			<polygon style="fill:#2E2B23;" points="81.4,138.9 82.8,135.9 76,132.6 74.6,135.5 			"/>
		</g>
		<g>
			<path style="fill:#2E2B23;" d="M71.5,128.4l6,7.1c0.2,0.3,0.6,0.3,0.9,0.1s0.3-0.6,0.1-0.9l-6.1-7.2l0.1-1c0.1-0.4-0.1-0.8-0.3-1
				l-0.9-0.9c-0.3-0.3-0.9-0.4-1.3-0.1l-1,0.7c-0.4,0.3-0.5,0.9-0.2,1.3l0.8,1.2c0.2,0.3,0.5,0.5,0.9,0.5L71.5,128.4z"/>
		</g>
	</g>
	<g>
		<polygon style="fill:#977F3C;" points="45.5,88.6 45.5,74.5 6.4,74.5 14.7,88.6 		"/>
		<path style="fill:#45684C;" d="M8,74.1c0,0-3.4,0.5-3.6-2.3C4.1,69.1,8,69.2,8,69.2S4.8,66,6.4,63.8c1.6-2.3,4.6,0,4.6,0
			s-2.7-5.8,0.1-7.2s5.3,2.5,5.3,2.5s0-5.3,2.9-5.3c3,0,3.3,3.6,3.3,3.6s2.4-4.6,5.5-4.6s3.5,4.8,3.5,4.8s1.3-5.2,4.4-5.3
			s2.6,6.1,2.6,6.1s3.2-2.5,5.2-0.9s-0.9,4.9-0.9,4.9s3.6-1.1,4.5,1.3c0.9,2.4-2.1,4.5-2.1,4.5v5.9H8z"/>
		<path style="fill:#FFFFFF;" d="M11.6,69.3c0,0-1.8-2-2.8-0.5c-1,1.6,1.8,2.1,1.8,2.1s-2.2,0.6-1.9,1.9C8.8,74,11.1,72,11.1,72
			s-0.2,2.7,1,2.6s0.5-2.6,0.5-2.6s1.5,1.5,2.1,0.5c0.5-1-1.5-1.7-1.5-1.7s2.2,0.1,2-1C15,68.5,13,69.5,13,69.5s1-2.6-0.4-2.6
			S11.6,69.3,11.6,69.3z"/>
		<circle style="fill:#D7B24C;" cx="11.8" cy="70.6" r="0.8"/>
		<path style="fill:#FFFFFF;" d="M21.1,60.5c0,0,0.5-2.7-1.4-2.5c-1.9,0.1-0.5,2.7-0.5,2.7s-1.9-1.3-2.7-0.3c-0.9,1,2.2,1.5,2.2,1.5
			s-2.3,1.5-1.4,2.4c0.8,0.9,2.4-1.3,2.4-1.3s-0.2,2.1,0.9,1.9c1.2-0.2,0.4-2.2,0.4-2.2s1.3,1.8,2,1c0.8-0.9-1.2-1.9-1.2-1.9
			s2.6-0.8,1.8-1.9C22.7,58.7,21.1,60.5,21.1,60.5z"/>
		<circle style="fill:#D7B24C;" cx="20.2" cy="61.6" r="0.8"/>
		<path style="fill:#FFFFFF;" d="M28.1,69.8c0,0,2.7-0.4,2-2.1C29.4,66,27.4,68,27.4,68s0.7-2.2-0.5-2.7s-0.8,2.6-0.8,2.6
			s-2.1-1.7-2.7-0.6s1.9,1.9,1.9,1.9s-2.1,0.4-1.5,1.5c0.6,1,2.3-0.3,2.3-0.3s-1.3,1.8-0.3,2.2c1.1,0.5,1.4-1.7,1.4-1.7
			s1.6,2.3,2.4,1.1C30.3,70.8,28.1,69.8,28.1,69.8z"/>
		<circle style="fill:#D7B24C;" cx="26.8" cy="69.3" r="0.8"/>
		<path style="fill:#FFFFFF;" d="M33.5,58c0,0,2.3,1.4,2.8-0.5c0.5-1.8-2.3-1.4-2.3-1.4s1.9-1.3,1.2-2.4c-0.6-1.1-2.2,1.6-2.2,1.6
			s-0.6-2.6-1.8-2.1s0.4,2.6,0.4,2.6s-1.9-0.9-2.1,0.2s2,1.1,2,1.1s-2.1,0.6-1.6,1.6c0.6,1,2.2-0.5,2.2-0.5S32,61,33.3,60.5
			C34.6,60.2,33.5,58,33.5,58z"/>
		<circle style="fill:#D7B24C;" cx="32.8" cy="56.8" r="0.8"/>
		<path style="fill:#FFFFFF;" d="M39.3,68.1c0,0,0.3,2.7,2,2S41,67.4,41,67.4s2.2,0.7,2.7-0.5s-2.6-0.8-2.6-0.8s1.7-2.1,0.7-2.7
			c-1.1-0.7-1.9,1.9-1.9,1.9s-0.4-2.1-1.4-1.6c-1.1,0.5,0.3,2.3,0.3,2.3s-1.7-1.4-2.2-0.3s1.7,1.4,1.7,1.4s-2.3,1.5-1.2,2.3
			C38.2,70.3,39.3,68.1,39.3,68.1z"/>
		<circle style="fill:#D7B24C;" cx="39.8" cy="66.8" r="0.8"/>
		<path style="fill:#504B45;" d="M61.3,99.4c-0.2,0-0.3,0-0.5-0.1l-15-9.9H14.6c-0.5,0-0.8-0.4-0.8-0.8c0-0.5,0.4-0.8,0.8-0.8h31.7
			L60.5,97c-0.5,0.5,0.5,1.4,1.1,0.8C62,98,62.2,98.6,62,99C61.8,99.2,61.6,99.4,61.3,99.4z"/>

			<line style="fill:none;stroke:#795E19;stroke-width:2.0642;stroke-linecap:round;stroke-miterlimit:10;" x1="45.5" y1="74.5" x2="6.4" y2="74.5"/>
	</g>
	<g style="display:none;">
		<path style="display:inline;fill:#7F6D61;" d="M125.7,65.8c0,0-0.8-1.3-1.1-1.9c-0.1,0.6-0.3,1.2-0.5,1.9c-0.4-0.6-0.7-1.2-1-1.9
			c-0.2,0.6-0.3,1.3-0.5,1.9c-0.3-0.6-0.7-1.3-1-1.9c-0.2,0.6-0.3,1.3-0.5,1.9c-0.3-0.6-0.7-1.3-1-1.9c-0.2,0.6-0.3,1.3-0.5,2
			c-0.3-0.7-0.7-1.3-1-2c-0.2,0.7-0.4,1.3-0.6,2c-0.3-0.7-0.6-1.3-1-2c-0.2,0.7-0.4,1.3-0.6,2c-0.3-0.7-0.6-1.4-0.9-2
			c-0.2,0.7-0.4,1.4-0.6,2c-0.3-0.7-0.6-1.4-0.9-2.1c-0.2,0.7-0.4,1.4-0.6,2.1c-0.3-0.7-0.6-1.4-0.9-2.1c-0.2,0.7-0.4,1.4-0.7,2.1
			c-0.3-0.7-0.6-1.4-0.9-2.1c-0.2,0.6-0.6,1.9-0.7,2.1l-0.4-1.7l-0.1,2.1l-0.4-1.6l-0.1,2.1l-0.4-1.6l-0.1,2.1l-0.4-1.6l-0.1,2.1
			l0,0l-0.3-1.5l-0.1,2l0,0l-0.3-1.5l-0.1,2l0,0l-0.3-1.5l-0.1,1.9l0,0l-0.3-1.4l-0.2,2l0.9,25l4-4c6.1-1.2,18.2-2.4,18.2-2.4
			S126.9,72.9,125.7,65.8z"/>
		<path style="display:inline;fill:#BCAB9F;" d="M129.3,88.6l-3.6-22.8l-0.5-1.1l-0.3,1.9l-0.1,0.1l-0.4-1.2l-0.3,1.9l0,0l-0.4-1.2
			l-0.4,2l0,0l-0.4-1.3l-0.4,2l-0.4-1.3l-0.4,2.1l3.6,21.5h0.1l1.6-2L129.3,88.6z"/>
		<path style="display:inline;fill:#7E9E5C;" d="M108.8,71.6c0,0-3.5-6.1-2.3-7.5c1.1-1.4,2.1,0,2.1,0s-0.1-3.7,0.9-3.8
			c1.1-0.1,1.6,2.6,1.6,2.6s0.4-2.8,1.5-2.3s0,4.8,0,4.8s2.3-2.9,3.2-2c0.9,0.9-0.8,2.9-0.8,2.9s1-1,1.7,0.1s-4.7,5.1-4.7,5.1
			L108.8,71.6L108.8,71.6z"/>
		<path style="display:inline;fill:#BBC44E;" d="M117,62.2c0,0,0.6-4,3.5-6c2.8-2,7.1,1.9,6.6,3c-0.4,1.1-2.8-0.8-2.8-0.8
			s1.3,1.6,0.4,2.1s-2.7-1.4-2.7-1.4s0.5,1.6,0,1.7c-0.5,0-1.4-1.4-1.4-1.4S118.9,59.7,117,62.2z"/>
		<path style="display:inline;fill:#CD862A;" d="M113.3,72.6l1.4-11.3c0.1-0.7,0.8-1.1,1.4-0.9l3,1c0.6,0.2,0.9,0.9,0.6,1.5l-5,10.2
			C114.3,73.8,113.2,73.4,113.3,72.6z"/>
		<path style="display:inline;fill:#BBC44E;" d="M122.8,63.7c0,0,2.4-3.3,5.8-3.7c3.4-0.5,5.4,4.9,4.5,5.7c-0.9,0.8-2.1-2-2.1-2
			s0.4,2-0.6,2c-1.1,0.1-1.7-2.4-1.7-2.4s-0.3,1.7-0.8,1.5s-0.6-1.9-0.6-1.9S125.7,62.4,122.8,63.7z"/>
		<path style="display:inline;fill:#CD862A;" d="M114.7,71.3l6.4-9.4c0.4-0.6,1.2-0.6,1.7-0.1L125,64c0.5,0.5,0.4,1.2-0.1,1.6
			l-9.1,6.7C115.1,72.9,114.3,72,114.7,71.3z"/>
		<path style="display:inline;fill:#9E8577;" d="M120.5,67.9c0,0-0.3,1.2-0.5,1.9c-0.4-0.6-0.7-1.2-1-1.9c-0.2,0.6-0.3,1.3-0.5,1.9
			c-0.3-0.6-0.7-1.3-1-1.9c-0.2,0.6-0.3,1.3-0.5,1.9c-0.3-0.6-0.7-1.3-1-1.9c-0.2,0.6-0.3,1.3-0.5,2c-0.3-0.7-0.7-1.3-1-2
			c-0.2,0.7-0.4,1.3-0.6,2c-0.3-0.7-0.6-1.3-1-2c-0.2,0.7-0.4,1.3-0.6,2c-0.3-0.7-0.6-1.4-0.9-2c-0.2,0.7-0.4,1.4-0.6,2
			c-0.3-0.7-0.6-1.4-0.9-2.1c-0.2,0.7-0.4,1.4-0.6,2.1c-0.3-0.7-0.6-1.4-0.9-2.1c-0.2,0.7-0.4,1.4-0.7,2.1c-0.3-0.7-0.9-2.1-0.9-2.1
			l-0.7,2.2c0.3,8.3,0.6,16.7,0.9,25c6.1-1.2,12.1-2.4,18.1-3.7l-3.6-21.5L120.5,67.9z"/>
	</g>
</g>
<g>
	<g style="display:none;">
		<path style="display:inline;fill:#866D60;" d="M124.9,66c0,0-0.8-1.2-1.1-1.9c-0.1,0.6-0.3,1.2-0.4,1.8c-0.3-0.6-0.7-1.2-1-1.8
			c-0.2,0.6-0.3,1.2-0.5,1.9c-0.3-0.6-0.7-1.2-1-1.9c-0.2,0.6-0.3,1.3-0.5,1.9c-0.3-0.6-0.7-1.3-1-1.9c-0.2,0.6-0.3,1.3-0.5,1.9
			c-0.3-0.6-0.6-1.3-1-1.9c-0.2,0.6-0.4,1.3-0.5,2c-0.3-0.7-0.6-1.3-0.9-2c-0.2,0.7-0.4,1.3-0.6,2c-0.3-0.7-0.6-1.3-0.9-2
			c-0.2,0.7-0.4,1.3-0.6,2c-0.3-0.7-0.6-1.4-0.9-2c-0.2,0.7-0.4,1.4-0.6,2c-0.3-0.7-0.6-1.4-0.9-2.1c-0.2,0.7-0.4,1.4-0.6,2.1
			c-0.3-0.7-0.6-1.4-0.8-2.1c-0.2,0.6-0.6,1.9-0.7,2.1l-0.4-1.6l-0.1,2.1l-0.3-1.5l-0.1,2.1l-0.3-1.5l-0.1,2.1l-0.3-1.5l-0.1,2l0,0
			l-0.3-1.5l-0.1,2l0,0l-0.3-1.5l-0.1,1.9l0,0l-0.3-1.4l-0.1,1.9l0,0l-0.3-1.4l-0.2,1.9l0.9,24.6l4-4c6-1.1,17.9-2.3,17.9-2.3
			S126.1,73.1,124.9,66z"/>
		<g style="display:inline;">
			<g>
				<path style="fill:#2B271D;" d="M68.7,122.9l-5.9-7c-0.2-0.3-0.6-0.3-0.9-0.1c-0.3,0.2-0.3,0.6-0.1,0.9l6,7.1l-0.1,0.9
					c-0.1,0.4,0.1,0.7,0.3,1l0.9,0.9c0.3,0.3,0.9,0.4,1.3,0.1l1-0.7c0.4-0.3,0.5-0.9,0.2-1.3l-0.8-1.2c-0.2-0.3-0.5-0.5-0.8-0.5
					L68.7,122.9z"/>
			</g>
			<g>
				<path style="fill:#514A43;" d="M101.8,79.4c-0.3,0-0.5-0.2-0.6-0.5l-3.3-10.7c-0.1-0.3,0.1-0.7,0.4-0.8c0.3-0.1,0.7,0.1,0.8,0.4
					l3.3,10.7c0.1,0.3-0.1,0.7-0.4,0.8C102,79.3,101.9,79.4,101.8,79.4z"/>
			</g>
			<g>
				<path style="fill:#514A43;" d="M66.5,92.8c-0.2,0-0.5-0.1-0.6-0.3l-5.2-9.6c-0.2-0.3-0.1-0.7,0.3-0.9c0.3-0.2,0.7-0.1,0.9,0.3
					l5.2,9.6c0.2,0.3,0.1,0.7-0.3,0.9C66.8,92.8,66.6,92.8,66.5,92.8z"/>
			</g>
			<g>
				<path style="fill:#786C67;" d="M19.3,97.4C19.2,97.4,19.2,97.4,19.3,97.4c-0.3,0-0.4-0.2-0.4-0.4l1.6-8.5c0-0.2,0.2-0.3,0.4-0.3
					c0.2,0,0.3,0.2,0.3,0.4l-1.6,8.5C19.6,97.3,19.4,97.4,19.3,97.4z"/>
			</g>
			<path style="fill:#514A43;" d="M91.8,63.7l0.4,4.2c0,0-1.4-1.7-4.3-1.7S83.6,68,83.6,68s-0.1,0.9,0.9,0.8c1-0.2,0.5-1.1,0.5-1.1
				s1.4-1.4,3.8-0.7c2.4,0.7,4.2,2.4,4.2,2.4l3.5-0.7l-0.6-1.2c0,0-1.9-0.2-2.3-1.5c-0.4-1.4,2.2-2.9,2.2-2.9S93.1,60.6,91.8,63.7z"
				/>
			<path style="fill:#514A43;" d="M73.7,125.7l4.6-0.9l-4.7-0.7c-0.4-0.1-0.7-0.6-0.4-0.9l2.7-3.9l-3.8,2.9
				c-0.4,0.3-0.9,0.1-0.9-0.4l-0.9-4.6l-0.7,4.7c-0.1,0.4-0.6,0.7-0.9,0.4l-3.9-2.7l2.9,3.8c0.3,0.4,0.1,0.9-0.4,0.9l-4.6,0.9
				l4.7,0.7c0.4,0.1,0.7,0.6,0.4,0.9l-2.7,3.9l3.8-2.9c0.4-0.3,0.9-0.1,0.9,0.4l0.9,4.6l0.7-4.7c0.1-0.4,0.6-0.7,0.9-0.4l3.9,2.7
				l-2.9-3.8C73,126.3,73.2,125.8,73.7,125.7z"/>
			<g>
				<polygon style="fill:#7C706E;" points="30,146.2 26,145.4 33.4,119.7 34,119.8 26.7,145 29.6,145.5 37.5,120.7 38,120.9 				"/>
			</g>
			<g>
				<polygon style="fill:#7C706E;" points="37.8,121.7 37.2,121.6 44.4,96.4 41.6,95.9 33.7,120.7 33.2,120.5 41.2,95.2 45.2,96
									"/>
			</g>
			<g>
				<polygon style="fill:#7C706E;" points="13.6,134.7 11.4,131.4 34.8,118.4 35,118.9 12.2,131.6 13.8,134 36.9,122.1 37.2,122.6
									"/>
			</g>
			<g>
				<polygon style="fill:#7C706E;" points="36.4,123 36.1,122.5 59,109.8 57.4,107.4 34.3,119.3 34,118.8 57.6,106.7 59.8,110
					"/>
			</g>
			<g>
				<polygon style="fill:#7C706E;" points="35.4,123.1 10.1,115.1 10.9,111.1 36.6,118.5 36.5,119.1 11.3,111.9 10.8,114.7
					35.6,122.6 				"/>
			</g>
			<g>
				<polygon style="fill:#7C706E;" points="60.3,130.3 34.6,122.9 34.7,122.3 59.9,129.6 60.4,126.7 35.6,118.8 35.8,118.3
					61.1,126.3 				"/>
			</g>
			<g>
				<polygon style="fill:#7C706E;" points="33.7,122.3 21.6,98.7 24.9,96.5 37.8,119.9 37.4,120.2 24.7,97.3 22.3,98.9 34.2,122
									"/>
			</g>
			<g>
				<polygon style="fill:#7C706E;" points="46.3,144.9 33.3,121.5 33.8,121.3 46.5,144.1 48.9,142.5 37,119.4 37.4,119.1
					49.6,142.7 				"/>
			</g>
			<g>
				<polygon style="fill:#7C706E;" points="19.7,141.3 16.6,139 34.1,118.9 34.4,119.2 17.2,139 19.7,140.8 37.4,121.6 37.7,121.8
									"/>
			</g>
			<g>
				<polygon style="fill:#7C706E;" points="37.1,122.5 36.8,122.2 54,102.4 51.5,100.6 33.8,119.8 33.5,119.6 51.5,100.1
					54.6,102.4 				"/>
			</g>
			<g>
				<polygon style="fill:#7C706E;" points="9.8,124 9.2,120.2 35.8,118.4 35.8,118.8 9.7,120.6 10.1,123.6 36.2,122.6 36.2,123
					"/>
			</g>
			<g>
				<polygon style="fill:#7C706E;" points="35.4,123 35.3,122.6 61.5,120.8 61.1,117.8 35,118.8 34.9,118.4 61.4,117.4 62,121.2
									"/>
			</g>
			<g>
				<polygon style="fill:#7C706E;" points="34.5,122.8 15,104.8 17.3,101.7 37.4,119.2 37.1,119.5 17.3,102.3 15.5,104.8
					34.7,122.5 				"/>
			</g>
			<g>
				<polygon style="fill:#7C706E;" points="53.9,139.7 33.8,122.2 34.1,121.9 53.9,139.1 55.7,136.6 36.5,118.9 36.7,118.6
					56.2,136.6 				"/>
			</g>
			<g>
				<polygon style="fill:#7C706E;" points="33.3,121.4 32.3,94.9 36,94.3 37.9,120.9 37.5,120.9 35.7,94.8 32.7,95.2 33.7,121.3
									"/>
			</g>
			<g>
				<polygon style="fill:#7C706E;" points="35.1,147.1 33.3,120.5 33.7,120.5 35.5,146.6 38.5,146.2 37.5,120.1 37.9,120.1
					38.9,146.5 				"/>
			</g>
			<path style="fill:#2B271D;" d="M35.6,94c-14.8,0-26.8,12-26.8,26.8s12,26.8,26.8,26.8s26.8-12,26.8-26.8
				C62.4,106,50.4,94,35.6,94z M35.6,144.5c-13.1,0-23.7-10.6-23.7-23.7s10.6-23.7,23.7-23.7s23.7,10.6,23.7,23.7
				S48.8,144.5,35.6,144.5z"/>
			<path style="fill:#5B4A23;" d="M35.6,97c-13.2,0-23.9,10.7-23.9,23.9s10.7,23.9,23.9,23.9s23.9-10.7,23.9-23.9
				C59.5,107.6,48.8,97,35.6,97z M35.6,143.6c-12.6,0-22.8-10.2-22.8-22.8S23.1,98,35.6,98s22.8,10.2,22.8,22.8
				S48.2,143.6,35.6,143.6z"/>
			<path style="fill:#7CA11F;" d="M62.3,114.1c-3.1-11.8-13.9-20.5-26.7-20.5c-11.9,0-22,7.5-25.9,18.1c-1.8,3.8-3.2,5.5-4,4.7
				c2.9-13.8,15.2-24.2,29.9-24.2c14.8,0,27.2,10.5,30,24.5C64.3,117.1,63.1,116.6,62.3,114.1z"/>
			<g>
				<g>
					<polygon style="fill:#7C706E;" points="116.1,145.4 112.1,144.6 119.5,118.9 120,119 112.8,144.2 115.7,144.7 123.6,119.9
						124.1,120.1 					"/>
				</g>
				<g>
					<polygon style="fill:#7C706E;" points="123.9,120.9 123.3,120.8 130.5,95.6 127.7,95.1 119.8,119.9 119.2,119.7 127.3,94.4
						131.2,95.2 					"/>
				</g>
				<g>
					<polygon style="fill:#7C706E;" points="99.7,133.9 97.5,130.6 120.9,117.7 121.1,118.1 98.3,130.8 99.9,133.2 123,121.3
						123.3,121.8 					"/>
				</g>
				<g>
					<polygon style="fill:#7C706E;" points="122.5,122.2 122.2,121.7 145.1,109 143.5,106.6 120.3,118.5 120.1,118.1 143.7,105.9
						145.9,109.2 					"/>
				</g>
				<g>
					<polygon style="fill:#7C706E;" points="121.5,122.3 96.2,114.3 97,110.4 122.7,117.7 122.5,118.3 97.4,111.1 96.8,113.9
						121.7,121.8 					"/>
				</g>
				<g>
					<polygon style="fill:#7C706E;" points="146.4,129.5 120.7,122.1 120.8,121.5 146,128.8 146.5,125.9 121.7,118 121.9,117.5
						147.2,125.5 					"/>
				</g>
				<g>
					<polygon style="fill:#7C706E;" points="119.8,121.5 107.6,97.9 111,95.7 123.9,119.1 123.5,119.4 110.8,96.5 108.4,98.1
						120.3,121.2 					"/>
				</g>
				<g>
					<polygon style="fill:#7C706E;" points="132.4,144.1 119.4,120.7 119.9,120.5 132.6,143.3 135,141.7 123,118.6 123.5,118.3
						135.7,141.9 					"/>
				</g>
				<g>
					<polygon style="fill:#7C706E;" points="105.8,140.5 102.7,138.2 120.2,118.1 120.5,118.4 103.3,138.2 105.7,140 123.5,120.8
						123.7,121 					"/>
				</g>
				<g>
					<polygon style="fill:#7C706E;" points="123.2,121.7 122.9,121.4 140.1,101.6 137.6,99.8 119.9,119 119.6,118.8 137.6,99.3
						140.7,101.6 					"/>
				</g>
				<g>
					<polygon style="fill:#7C706E;" points="95.9,123.2 95.3,119.5 121.9,117.6 121.9,118 95.7,119.8 96.2,122.8 122.3,121.8
						122.3,122.2 					"/>
				</g>
				<g>
					<polygon style="fill:#7C706E;" points="121.5,122.2 121.4,121.8 147.6,120 147.2,117 121,118 121,117.6 147.5,116.6
						148.1,120.4 					"/>
				</g>
				<g>
					<polygon style="fill:#7C706E;" points="120.5,122 101.1,104 103.4,100.9 123.5,118.4 123.2,118.7 103.4,101.5 101.6,104
						120.8,121.7 					"/>
				</g>
				<g>
					<polygon style="fill:#7C706E;" points="140,138.9 119.9,121.4 120.1,121.1 139.9,138.3 141.8,135.8 122.6,118.1 122.8,117.8
						142.3,135.8 					"/>
				</g>
				<g>
					<polygon style="fill:#7C706E;" points="119.4,120.6 118.4,94.1 122.1,93.5 124,120.1 123.6,120.2 121.8,94 118.7,94.4
						119.8,120.5 					"/>
				</g>
				<g>
					<polygon style="fill:#7C706E;" points="121.2,146.3 119.4,119.7 119.8,119.7 121.6,145.8 124.6,145.4 123.6,119.3 123.9,119.3
						125,145.7 					"/>
				</g>
				<path style="fill:#2B271D;" d="M121.7,93.2c-14.8,0-26.8,12-26.8,26.8s12,26.8,26.8,26.8s26.8-12,26.8-26.8
					S136.5,93.2,121.7,93.2z M121.7,143.8c-13.1,0-23.7-10.6-23.7-23.7s10.6-23.7,23.7-23.7s23.7,10.6,23.7,23.7
					S134.8,143.8,121.7,143.8z"/>
				<path style="fill:#5B4A23;" d="M121.7,96.2c-13.2,0-23.9,10.7-23.9,23.9s10.7,23.9,23.9,23.9s23.9-10.7,23.9-23.9
					C145.6,106.8,134.9,96.2,121.7,96.2z M121.7,142.8c-12.6,0-22.8-10.2-22.8-22.8s10.2-22.8,22.8-22.8s22.8,10.2,22.8,22.8
					S134.3,142.8,121.7,142.8z"/>
				<circle style="fill:#453533;" cx="121.7" cy="120" r="2.8"/>
			</g>
			<path style="fill:#7CA11F;" d="M144.1,104.3c-7.3-9.8-20.5-13.8-32.4-9c-11,4.5-17.6,15.2-17.2,26.5c-0.3,4.2-0.9,6.3-2,5.8
				c-2.5-13.9,5-28.2,18.7-33.7s29.1-0.4,37,11.5C147.1,106.4,145.8,106.3,144.1,104.3z"/>
			<path style="fill:#884A2D;" d="M70.7,77.2l1.8,3.6c0,0-3.6,4.5-9.2,5.3C57.6,86.9,47.8,84,47.8,82c0.1-2,2.4-4.2,6.4-4.2
				s5.6,2.2,9.3,2.2C67.3,80.1,70.7,77.2,70.7,77.2z"/>
			<path style="fill:#62341A;" d="M72.5,80.8c0,0-3.6,4.5-9.2,5.3C57.6,86.9,47.8,84,47.8,82c0,0,1.9-2.1,6.4-0.3
				C58.7,83.5,62.7,84.8,72.5,80.8z"/>
			<g>
				<path style="fill:#514A43;" d="M115.7,116.2C115.7,116.2,115.6,116.2,115.7,116.2c-0.6,0-1-0.5-1-1s1-11.9,4.4-18
					c3.6-6.4,7.7-8.1,7.9-8.1c0.5-0.1,1,0.2,1.2,0.7c0.1,0.5-0.2,1-0.7,1.2c0,0-3.7,1-6.8,6.6c-3.2,5.7-4,17.6-4,17.8
					C116.6,115.8,116.2,116.2,115.7,116.2z"/>
			</g>
			<g>
				<path style="fill:#A3814C;" d="M98,68.4c-1.3,0-2.4-0.8-2.8-2.1l-0.3-0.8c-0.5-1.5-1.9-2.4-3.4-2.3l-2.2,0.1l-4.4,2
					c-0.3,0.2-0.7,0-0.9-0.3c-0.2-0.3,0-0.7,0.3-0.9l1.3-0.6h-0.5c-0.4,0-0.7-0.3-0.7-0.6c0-0.4,0.3-0.7,0.6-0.7l4-0.2l6.7-3
					c1.1-0.5,2.3-0.5,3.3,0.1c1,0.5,1.8,1.5,2,2.6l0.5,2.4c0.2,1,0,2-0.6,2.8s-1.5,1.3-2.5,1.5C98.2,68.4,98.1,68.4,98,68.4z
					 M92.3,62c1.7,0.3,3.2,1.5,3.8,3.2l0.3,0.8c0.2,0.8,1,1.2,1.8,1.1c0.6-0.1,1.2-0.4,1.6-0.9s0.5-1.1,0.4-1.8L99.6,62
					c-0.2-0.7-0.6-1.4-1.3-1.7c-0.7-0.3-1.5-0.4-2.2,0L92.3,62z"/>
			</g>
			<path style="fill:#2B271D;" d="M93.8,62.4l2.3,3.5c0,0-2.1-0.8-4.6,0.6s-3,3.6-3,3.6s0.4,0.9,1.1,0.3c0.8-0.6,0-1.2,0-1.2
				s0.6-1.9,3-2.4s4.9,0.2,4.9,0.2l2.8-2.3l-1.1-0.8c0,0-1.8,0.7-2.8-0.3s0.5-3.6,0.5-3.6S93.5,59.1,93.8,62.4z"/>
			<path style="fill:#884A2D;" d="M91.5,61l-11.1,0.1c-0.4,0.8-0.5,1.6-0.5,2.2c0.1,0.7,0.9,1.1,1.5,0.7l0.7-0.4l0.8,0.6
				c0.4,0.3,0.9,0.2,1.3-0.1l0.6-0.5l0.7,0.6c0.4,0.3,0.9,0.3,1.3,0l0.6-0.5l0.7,0.6c0.4,0.3,1,0.3,1.4-0.1l0.4-0.4l0.4,0.3
				c0.5,0.4,1.3,0.1,1.4-0.5l0,0C92.2,62.9,92.4,62.2,91.5,61z"/>
			<path style="fill:#62341A;" d="M92.3,60.1l-9.8,5.3c0.1,0.9,0.3,1.6,0.6,2.2c0.4,0.6,1.3,0.5,1.6-0.1l0.4-0.7l1,0.1
				c0.5,0,0.9-0.2,1.1-0.6l0.3-0.8l0.9,0.2c0.5,0.1,1-0.2,1.2-0.6l0.3-0.7l0.9,0.2c0.5,0.1,1.1-0.2,1.2-0.7l0.2-0.6l0.5,0.1
				c0.7,0.1,1.2-0.5,1-1.1l0,0C93.8,61.5,93.7,60.8,92.3,60.1z"/>
			<g>
				<path style="fill:#7CA11F;" d="M121.6,121.2c-0.2,0-0.3,0-0.4-0.1l-1.7-0.9c-2.6-1.4-4.5-3.6-5.6-6.3l-13.2-35.2
					c-0.2-0.5,0.1-1,0.6-1.2s1,0.1,1.2,0.6l13.2,35.2c0.9,2.3,2.5,4.2,4.7,5.3l1.7,0.9c0.5,0.2,0.6,0.8,0.4,1.3
					C122.3,121,122,121.2,121.6,121.2z"/>
			</g>
			<g>
				<path style="fill:#A8B442;" d="M106.2,95.3c-0.4,0-0.8-0.3-0.9-0.8s0.2-1,0.7-1.1l22.7-4.9c0.5-0.1,1,0.2,1.1,0.7
					s-0.2,1-0.7,1.1l-22.7,4.9C106.3,95.3,106.2,95.3,106.2,95.3z"/>
			</g>
			<g>
				<path style="fill:#2B271D;" d="M100.7,79c-0.3,0-0.6-0.2-0.7-0.5c-0.1-0.4,0.1-0.9,0.5-1l1.6-0.6c0.4-0.1,0.9,0.1,1,0.5
					s-0.1,0.9-0.5,1L101,79C100.9,79,100.8,79,100.7,79z"/>
			</g>
			<path style="fill:#E4B241;" d="M39.6,66.6c0.2-0.4,0.7-0.4,1.1-0.2c0.4,0.2,0.4,0.7,0.2,1.1s-0.7,0.4-1.1,0.2
				C39.5,67.4,39.4,67,39.6,66.6z"/>
			<polygon style="fill:#2B271D;" points="58.9,112.5 57.5,115.4 64.2,118.7 65.5,115.9 			"/>
			<path style="fill:#1B1B18;" d="M70.6,131.3L70.6,131.3l-1.4-0.4l0,0l-1.4-0.4l0,0l-1.4-0.4l0,0l-1.4-0.4l0,0l-1.8-0.5l0,0
				l-1.4-0.4l0,0l-1-0.3l0,0l-1.4-0.4l0,0l-1.4-0.4l0,0l-1.4-0.4l0,0l-1.4-0.4l0,0l-1.4-0.4l0,0l-1.4-0.4l0,0l-1.4-0.4l0,0l-1.8-0.5
				l0,0l-1.4-0.4l0,0l-1.4-0.4l0,0l-1-0.3l0,0l-1.4-0.4l0,0l-1.4-0.4l0,0l-1.4-0.4l0,0l-1.4-0.4l0,0l-1.4-0.4l0,0l-1.4-0.4l0,0
				l-1.8-0.5l0,0l-1.4-0.4c0,0-0.5,1.5,0.5,1.8c0.4,0.1,0.6-0.1,0.8-0.3c0.1,0.3,0.2,0.6,0.6,0.7c0.4,0.1,0.6-0.1,0.8-0.3
				c0.1,0.3,0.2,0.6,0.6,0.7c0.4,0.1,0.6-0.1,0.8-0.3c0.1,0.3,0.2,0.6,0.6,0.7c0.4,0.1,0.6-0.1,0.8-0.3c0.1,0.3,0.2,0.6,0.6,0.7
				c0.4,0.1,0.6-0.1,0.8-0.3c0.1,0.3,0.2,0.6,0.6,0.7c0.4,0.1,0.6-0.1,0.8-0.3c0.1,0.3,0.2,0.6,0.6,0.7c0.4,0.1,0.6-0.1,0.8-0.3
				c0.1,0.3,0.2,0.6,0.6,0.7c0.4,0.1,0.6-0.1,0.8-0.3c0.1,0.3,0.2,0.6,0.6,0.7c0.4,0.1,0.6-0.1,0.8-0.3c0.1,0.3,0.2,0.6,0.6,0.7
				c0.4,0.1,0.6-0.1,0.8-0.3c0.1,0.3,0.2,0.6,0.6,0.7c0.4,0.1,0.6-0.1,0.8-0.3c0.1,0.3,0.2,0.6,0.6,0.7c0.4,0.1,0.6-0.1,0.8-0.3
				c0.1,0.3,0.2,0.6,0.6,0.7c0.4,0.1,0.6-0.1,0.8-0.3c0.1,0.3,0.2,0.6,0.6,0.7c0.4,0.1,0.6-0.1,0.8-0.3c0.1,0.3,0.2,0.6,0.6,0.7
				c0.4,0.1,0.6-0.1,0.8-0.3c0.1,0.3,0.2,0.6,0.6,0.7c0.4,0.1,0.6-0.1,0.8-0.3c0.1,0.3,0.2,0.6,0.6,0.7c0.4,0.1,0.6-0.1,0.8-0.3
				c0.1,0.3,0.2,0.6,0.6,0.7c0.4,0.1,0.6-0.1,0.8-0.3c0.1,0.3,0.2,0.6,0.6,0.7c0.4,0.1,0.6-0.1,0.8-0.3c0.1,0.3,0.2,0.6,0.6,0.7
				c0.4,0.1,0.6-0.1,0.8-0.3c0.1,0.3,0.2,0.6,0.6,0.7c0.4,0.1,0.6-0.1,0.8-0.3c0.1,0.3,0.2,0.6,0.6,0.7c0.4,0.1,0.6-0.1,0.8-0.3
				c0.1,0.3,0.2,0.6,0.6,0.7c0.4,0.1,0.6-0.1,0.8-0.3c0.1,0.3,0.2,0.6,0.6,0.7c0.4,0.1,0.6-0.1,0.8-0.3c0.1,0.3,0.2,0.6,0.6,0.7
				c0.4,0.1,0.6-0.1,0.8-0.3c0.1,0.3,0.2,0.6,0.6,0.7c0.4,0.1,0.6-0.1,0.8-0.3c0.1,0.3,0.2,0.6,0.6,0.7c1,0.2,1.3-1.3,1.3-1.3
				L70.6,131.3z"/>
			<path style="fill:#2A6849;" d="M8.9,74.3c0,0-3.4,0.5-3.6-2.2s3.6-2.6,3.6-2.6S5.7,66.3,7.2,64c1.6-2.2,4.6,0,4.6,0
				s-2.7-5.7,0.1-7.1c2.8-1.4,5.3,2.5,5.3,2.5s0-5.3,2.9-5.3s3.3,3.6,3.3,3.6s2.4-4.5,5.5-4.5s3.4,4.7,3.4,4.7s1.3-5.1,4.3-5.2
				c3.1-0.1,2.5,6,2.5,6s3.2-2.5,5.1-0.9c1.9,1.6-0.9,4.9-0.9,4.9s3.5-1.1,4.4,1.3c0.9,2.4-2,4.4-2,4.4v5.9H8.9z"/>
			<polygon style="fill:#A08034;" points="45.8,88.5 45.8,74.6 7.2,74.6 15.5,88.5 			"/>

				<line style="fill:none;stroke:#825E05;stroke-width:6.8615;stroke-linecap:round;stroke-miterlimit:10;" x1="45.8" y1="74.6" x2="7.2" y2="74.6"/>
			<circle style="fill:#453533;" cx="35.6" cy="120.8" r="2.8"/>
			<g>
				<path style="fill:#7CA11F;" d="M70.9,126.1c-0.8,0-1.5-0.1-2.3-0.2L35,121.4l-0.6-15.8L20.2,88.8c-0.2-0.3-0.2-0.7,0.1-0.9
					c0.3-0.2,0.7-0.2,0.9,0.1l14.5,17.1l0.5,15.1l32.5,4.5c7.3,1,14.1-3.1,16.7-10c1.8-4.9,3.6-9.2,5.3-12.7c2.7-5.6,6.5-9.1,9.3-11
					c3-2.1,5.4-2.8,5.5-2.9c0.3-0.1,0.7,0.1,0.8,0.4c0.1,0.3-0.1,0.7-0.4,0.8c0,0-2.3,0.7-5.1,2.7c-2.6,1.8-6.3,5.1-8.8,10.5
					c-1.7,3.5-3.4,7.7-5.2,12.6c-1.3,3.6-3.9,6.6-7.2,8.6C77,125.3,73.9,126.1,70.9,126.1z"/>
			</g>
			<g>
				<path style="fill:#7CA11F;" d="M35.6,121.9c-0.3,0-0.6-0.3-0.7-0.6c0-0.4,0.3-0.7,0.6-0.7c0.2,0,20-1,30-1.4
					c9.8-0.4,14.2-3.1,16.8-10c1.8-4.9,3.6-9.2,5.3-12.7c2.7-5.6,6.5-9.1,9.3-11c3-2.1,5.4-2.8,5.5-2.9c0.3-0.1,0.7,0.1,0.8,0.4
					c0.1,0.3-0.1,0.7-0.4,0.8c0,0-2.3,0.7-5.1,2.7c-2.6,1.8-6.3,5.1-8.8,10.5c-1.7,3.5-3.4,7.7-5.2,12.6c-2.8,7.4-7.7,10.4-18,10.8
					C55.6,120.9,35.9,121.9,35.6,121.9C35.7,121.9,35.7,121.9,35.6,121.9z"/>
			</g>
			<path style="fill:#008934;" d="M70.6,116.1l-24.8-0.2c-1.4,0-2.8,0.4-4,1.2l-5.2,3.5l14.6-1c5-0.3,9.6,2.8,11.1,7.6l0,0
				c1.1,3.5,4.2,5.9,7.8,6l0,0c4.8,0.2,8.8-3.6,8.9-8.4l0,0C79.2,120.1,75.4,116.1,70.6,116.1z M70.7,130.1c-2.8,0-5.1-2.3-5.1-5.1
				c0-2.8,2.3-5.1,5.1-5.1c2.8,0,5.1,2.3,5.1,5.1C75.7,127.8,73.5,130.1,70.7,130.1z"/>
			<g>
				<path style="fill:#A8B442;" d="M35.6,121.9c-0.2,0-0.4-0.1-0.5-0.2c-0.2-0.3-0.2-0.7,0-0.9l30.4-28.6c0.5-0.5,1.3-0.6,1.9-0.3
					l24.2,12.4c0.3,0.2,0.5,0.6,0.3,0.9s-0.6,0.5-0.9,0.3L67.4,93.3c-0.4-0.2-1-0.1-1.3,0.2l-30,28.2
					C36,121.8,35.8,121.9,35.6,121.9z"/>
			</g>
			<polygon style="fill:#2B271D;" points="81.2,138.1 82.6,135.2 75.9,131.9 74.6,134.7 			"/>
			<g>
				<path style="fill:#514A43;" d="M61.4,99.1c-0.2,0-0.3,0-0.5-0.1l-14.8-9.8H15.4c-0.5,0-0.8-0.4-0.8-0.8c0-0.5,0.4-0.8,0.8-0.8
					h31.2l14,9.2c-0.5,0.5,0.5,1.3,1.1,0.8c0.4,0.3,0.6,0.8,0.3,1.2C61.9,99,61.7,99.1,61.4,99.1z"/>
			</g>
			<path style="fill:#FFFFFF;" d="M12.4,69.5c0,0-1.8-2-2.8-0.5s1.7,2,1.7,2s-2.2,0.6-1.9,1.9c0.2,1.3,2.6-0.8,2.6-0.8
				s-0.2,2.6,1,2.6c1.2-0.1,0.5-2.6,0.5-2.6s1.5,1.5,2,0.4c0.5-1-1.5-1.7-1.5-1.7s2.2,0.1,2-1c-0.2-1.1-2.2-0.2-2.2-0.2
				s1-2.5-0.4-2.6C12,67.1,12.4,69.5,12.4,69.5z"/>
			<path style="fill:#E4B241;" d="M13.4,70.8c0,0.4-0.3,0.8-0.8,0.8s-0.8-0.3-0.8-0.8s0.3-0.8,0.8-0.8S13.4,70.4,13.4,70.8z"/>
			<path style="fill:#FFFFFF;" d="M21.7,60.8c0,0,0.5-2.6-1.4-2.5c-1.8,0.1-0.5,2.6-0.5,2.6s-1.8-1.3-2.7-0.3
				c-0.8,1,2.2,1.5,2.2,1.5s-2.2,1.4-1.4,2.4c0.8,0.9,2.3-1.2,2.3-1.2s-0.2,2.1,0.9,1.9c1.1-0.2,0.4-2.2,0.4-2.2s1.3,1.8,2,0.9
				c0.8-0.9-1.2-1.8-1.2-1.8s2.6-0.8,1.8-1.9C23.3,59.1,21.7,60.8,21.7,60.8z"/>
			<path style="fill:#E4B241;" d="M21.3,62.5c-0.3,0.3-0.8,0.2-1.1-0.1C20,62,20,61.5,20.4,61.3c0.3-0.3,0.8-0.2,1.1,0.1
				C21.7,61.7,21.7,62.2,21.3,62.5z"/>
			<path style="fill:#FFFFFF;" d="M28.7,70c0,0,2.6-0.4,1.9-2.1s-2.7,0.3-2.7,0.3s0.7-2.1-0.5-2.6s-0.8,2.6-0.8,2.6
				s-2.1-1.7-2.7-0.6s1.9,1.8,1.9,1.8s-2.1,0.4-1.5,1.5c0.6,1,2.2-0.3,2.2-0.3s-1.3,1.8-0.3,2.2c1.1,0.5,1.4-1.7,1.4-1.7
				s1.6,2.2,2.3,1.1C30.9,71,28.7,70,28.7,70z"/>
			<path style="fill:#E4B241;" d="M27,70.1c-0.4-0.2-0.5-0.7-0.2-1.1c0.2-0.4,0.7-0.5,1.1-0.2s0.5,0.7,0.2,1.1
				C27.8,70.3,27.3,70.4,27,70.1z"/>
			<path style="fill:#FFFFFF;" d="M34,58.4c0,0,2.3,1.3,2.8-0.4c0.5-1.8-2.3-1.4-2.3-1.4s1.8-1.3,1.2-2.4c-0.6-1.1-2.2,1.6-2.2,1.6
				s-0.6-2.6-1.8-2.1c-1.1,0.5,0.4,2.6,0.4,2.6s-1.9-0.9-2.1,0.2c-0.2,1.2,2,1.1,2,1.1s-2.1,0.6-1.6,1.6c0.6,1,2.1-0.5,2.1-0.5
				s-0.1,2.7,1.2,2.3C35.1,60.5,34,58.4,34,58.4z"/>
			<ellipse style="fill:#E4B241;" cx="33.3" cy="57.2" rx="0.8" ry="0.8"/>
			<path style="fill:#FFFFFF;" d="M39.7,68.3c0,0,0.3,2.7,2,2s-0.3-2.7-0.3-2.7s2.1,0.7,2.7-0.4c0.5-1.2-2.5-0.8-2.5-0.8
				s1.7-2,0.7-2.7c-1.1-0.6-1.9,1.9-1.9,1.9S40,63.5,38.9,64c-1,0.5,0.3,2.2,0.3,2.2s-1.7-1.4-2.2-0.3c-0.5,1,1.7,1.4,1.7,1.4
				s-2.3,1.5-1.2,2.3C38.7,70.5,39.7,68.3,39.7,68.3z"/>
			<g>
				<path style="fill:#2B271D;" d="M71.4,127.7l5.9,7c0.2,0.3,0.6,0.3,0.9,0.1s0.3-0.6,0.1-0.9l-6-7.1l0.1-0.9
					c0.1-0.4-0.1-0.7-0.3-1l-0.9-0.9c-0.3-0.3-0.9-0.4-1.3-0.1l-1,0.7c-0.4,0.3-0.5,0.9-0.2,1.3l0.8,1.2c0.2,0.3,0.5,0.5,0.8,0.5
					L71.4,127.7z"/>
			</g>
		</g>
		<path style="display:inline;fill:#6F9E57;" d="M108.2,71.8c0,0-3.4-6-2.3-7.4s2,0,2,0s-0.1-3.6,0.9-3.8c1-0.1,1.5,2.6,1.5,2.6
			s0.4-2.8,1.5-2.3s0,4.8,0,4.8s2.3-2.9,3.1-2c0.9,0.9-0.8,2.9-0.8,2.9s1-1,1.6,0.1s-4.6,5-4.6,5L108.2,71.8L108.2,71.8z"/>
		<path style="display:inline;fill:#B8C441;" d="M116.3,62.5c0,0,0.6-3.9,3.4-5.9c2.8-1.9,7,1.9,6.5,2.9c-0.4,1.1-2.7-0.8-2.7-0.8
			s1.3,1.5,0.4,2.1c-0.9,0.5-2.6-1.3-2.6-1.3s0.5,1.6,0,1.6s-1.4-1.4-1.4-1.4S118.2,60,116.3,62.5z"/>
		<path style="display:inline;fill:#E28618;" d="M112.7,72.8l1.4-11.2c0.1-0.7,0.8-1.1,1.4-0.9l2.9,1c0.6,0.2,0.9,0.9,0.6,1.5l-5,10
			C113.7,73.9,112.6,73.6,112.7,72.8z"/>
		<path style="display:inline;fill:#B8C441;" d="M122,64c0,0,2.4-3.2,5.7-3.7c3.4-0.5,5.3,4.8,4.5,5.6c-0.9,0.8-2.1-1.9-2.1-1.9
			s0.4,1.9-0.6,2s-1.7-2.4-1.7-2.4s-0.3,1.6-0.7,1.5c-0.5-0.2-0.6-1.9-0.6-1.9S124.9,62.7,122,64z"/>
		<path style="display:inline;fill:#E28618;" d="M114.1,71.5l6.4-9.3c0.4-0.6,1.2-0.6,1.6-0.1l2.2,2.2c0.5,0.5,0.4,1.2-0.1,1.6
			l-9,6.6C114.5,73,113.6,72.2,114.1,71.5z"/>
		<g style="display:inline;">
			<path style="fill:#A78577;" d="M119.8,68.1c0,0-0.3,1.2-0.4,1.8c-0.3-0.6-0.7-1.2-1-1.8c-0.2,0.6-0.3,1.2-0.5,1.9
				c-0.3-0.6-0.7-1.2-1-1.9c-0.2,0.6-0.3,1.3-0.5,1.9c-0.3-0.6-0.7-1.3-1-1.9c-0.2,0.6-0.3,1.3-0.5,1.9c-0.3-0.6-0.6-1.3-1-1.9
				c-0.2,0.6-0.4,1.3-0.5,2c-0.3-0.7-0.6-1.3-0.9-2c-0.2,0.7-0.4,1.3-0.6,2c-0.3-0.7-0.6-1.3-0.9-2c-0.2,0.7-0.4,1.3-0.6,2
				c-0.3-0.7-0.6-1.4-0.9-2c-0.2,0.7-0.4,1.4-0.6,2c-0.3-0.7-0.6-1.4-0.9-2.1c-0.2,0.7-0.4,1.4-0.6,2.1c-0.3-0.7-0.8-2.1-0.8-2.1
				l-0.7,2.2c0.3,8.2,0.6,16.4,0.9,24.6c6-1.1,11.9-2.4,17.9-3.7L120.9,70L119.8,68.1z"/>
			<path style="fill:#C3AC9F;" d="M128.5,88.5L124.9,66l-0.5-1.1l-0.3,1.8l-0.1,0.1l-0.4-1.2l-0.3,1.9l0,0l-0.4-1.2l-0.3,2l0,0
				l-0.4-1.3l-0.4,2l-0.4-1.3l-0.4,2.1l3.6,21.2h0.1l1.6-1.9L128.5,88.5z"/>
		</g>
	</g>
	<path style="fill:#D0A280;" d="M72.6,32l3.5-3.3l5.4,1.2c1,0.2,2-0.4,2.2-1.5c0.7-3.9,1.5-12.5,0.9-14.7C83.3,9.3,76.2,6.4,71.4,9
		c-4.8,2.6-5.7,13.2-1,17.6l-0.7,2.6L72.6,32z"/>
	<path style="fill:#D0A280;" d="M84.4,18.8l2.8,3c0.3,0.3,0.2,0.9-0.3,1l-2.8,0.8L84.4,18.8z"/>
	<path style="fill:#602310;" d="M73.1,22.2c-0.2-4.2,1-3.5,1-3.5s0.8,1.9,1.6,1.8s1-5.5,4-8.1c0,0,10.1,5.1,9.9-3.7
		c-0.3-8.8-11.5-6-11.5-6C61.4-4.5,47,13,50.8,32C61.8,26.8,72.3,33,73.1,22.2z"/>
	<path style="fill:#00263C;" d="M71.9,26.4c0,0-5-7.1-1.9-15.4s6.3-8.7,6.3-8.7l3.3,0.1c0,0-4.3,4.9-6.3,10.9
		C71.2,19.2,71.9,26.4,71.9,26.4z"/>
	<path style="fill:#D0A280;" d="M74.4,19.3c0,0-0.9-2.6-2.9-1C70,19.5,72,22.7,73,22.9s1.5-1.2,1.5-1.2L74.4,19.3z"/>
	<path style="fill:#D0A280;" d="M85.2,102l-8.6,23.2l9,12.2l-15.9-9.1L77,99.2L56.6,77.1c0,0-1.5-11.3,7.3-12
		C71.2,64.6,82,89.4,85.1,97C85.7,98.6,85.8,100.4,85.2,102z"/>
	<path style="fill:#00263C;" d="M69.1,128.4l16.5,9.4l0.4-1l-4.8-6.5l-1,0.1c-1.7,0.1-3.4-0.2-5-1l-0.8-0.4
		c-1.6-0.8-2.9-2.2-3.6-3.9l-0.4-1L69.1,128.4z"/>
	<path style="fill:#0D657B;" d="M66.3,63.7l-1.7-8.1l3.1-6.8c0,0,3.3,1.3,4.8-0.4c1.4-1.7,1-16.9,1-16.9l-3.8-3.3
		c0,0-10.6,0.6-17.1,10.3s-4.9,25.3-4.9,25.3c0.7,14.6,5.8,17,5.8,17c8.4,0.8,10.1,7.8,10.1,7.8l19.1-14.2L66.3,63.7z"/>
	<path style="fill:#D0A280;" d="M70.3,37.1L71,54.5l12.9,5.6l5.8,0.7l0.7,6c0.1,0.5-0.3,1-0.9,1l0,0c-0.4,0-0.7-0.3-0.9-0.6l0,0
		l-1,0.1c-0.3,0-0.6-0.2-0.7-0.4l0,0H86c-0.2,0-0.4-0.1-0.4-0.3l0,0h-0.3c-0.3,0-0.6-0.1-0.8-0.4L84,65.4c-0.2-0.3-0.1-0.8,0.2-1
		l0,0l-13.7-3.5c-2.4-0.6-4.3-2.6-4.7-5.1l-2-18.1c-0.2-1.4,0.5-2.7,1.8-3.3l0,0C67.7,33.2,70.2,34.7,70.3,37.1z"/>
	<ellipse style="fill:#D0A280;" cx="66.7" cy="36.6" rx="5.6" ry="6.5"/>
	<g>
		<path style="fill:#588691;" d="M56.4,58.5c-3.6,0-6.9-1.2-9.4-3.6c-0.4-0.3-0.4-0.9,0-1.2c0.3-0.4,0.9-0.4,1.2,0
			c2.7,2.6,6.2,3.6,10.4,3c3.2-0.4,5.5-1.7,5.6-1.7c0.4-0.2,1-0.1,1.2,0.4c0.2,0.4,0.1,1-0.4,1.2c-0.1,0.1-2.6,1.4-6.1,1.9
			C58.1,58.5,57.2,58.5,56.4,58.5z"/>
	</g>
</g>
</svg>
