<svg xmlns="http://www.w3.org/2000/svg" viewBox="0 0 1020 300"><g fill="#FFF"><path opacity=".4" d="M933.4 187.3c-.5-1.8-.8-3.8-.8-5.8 0-11.7 9.5-21.2 21.2-21.2 8.6 0 16 5.1 19.3 12.5 1.7-.8 3.5-1.2 5.4-1.2 7.2 0 13 5.8 13 13.1 0 .6 0 1.2-.1 1.8 5.5 1.5 9.6 6.6 9.6 12.6 0 7.2-5.8 13.1-13 13.1h-48.7c-7.2 0-13-5.8-13-13.1-.1-5.3 2.9-9.7 7.1-11.8zM44.3 69c-.8-2.7-1.2-5.5-1.2-8.5 0-17.2 13.9-31.1 31-31.1 12.6 0 23.4 7.5 28.2 18.3 2.4-1.1 5.1-1.7 7.9-1.7 10.5 0 19 8.6 19 19.1 0 .9-.1 1.7-.2 2.6 8.1 2.2 14.1 9.6 14.1 18.4 0 10.6-8.5 19.1-19 19.1H52.9c-10.5 0-19-8.6-19-19.1-.1-7.5 4.2-14 10.4-17.1z"/><path opacity=".2" d="M429.8 117.1c-.9-3.3-1.5-6.8-1.5-10.5 0-21.2 17.1-38.4 38.3-38.4 15.5 0 28.9 9.3 34.9 22.6 3-1.4 6.3-2.2 9.8-2.2 13 0 23.5 10.6 23.5 23.6 0 1.1-.1 2.2-.2 3.2 10 2.7 17.4 11.9 17.4 22.8 0 13-10.5 23.6-23.5 23.6h-88.1c-13 0-23.5-10.6-23.5-23.6-.1-9.3 5.2-17.3 12.9-21.1z"/><path opacity=".28" d="M252.7 219.1c.8-2.7 1.2-5.5 1.2-8.5 0-17.1-13.8-31-30.9-31-12.5 0-23.3 7.5-28.2 18.2-2.4-1.1-5.1-1.7-7.9-1.7-10.5 0-19 8.5-19 19.1 0 .9.1 1.7.2 2.6-8.1 2.2-14 9.6-14 18.4 0 10.5 8.5 19.1 19 19.1h71.2c10.5 0 19-8.5 19-19.1-.1-7.5-4.4-14-10.6-17.1z"/><path opacity=".3" d="M799.9 70.5c-.7-2.7-1.1-5.6-1.1-8.6 0-17.5 13.2-31.6 29.5-31.6 11.9 0 22.2 7.6 26.8 18.6 2.3-1.1 4.9-1.8 7.6-1.8 10 0 18.1 8.7 18.1 19.4 0 .9-.1 1.8-.2 2.6 7.7 2.2 13.4 9.8 13.4 18.7 0 10.7-8.1 19.4-18.1 19.4H808c-10 0-18.1-8.7-18.1-19.4 0-7.5 4-14.1 10-17.3z"/></g></svg>