<svg xmlns="http://www.w3.org/2000/svg" viewBox="0 220 960 106"><path fill="#CE9E24" d="M0 220h959.8v106.6H0z"/><g fill="#B79021"><ellipse cx="636.6" cy="303.8" rx="14.8" ry="4.3"/><ellipse cx="816.4" cy="254.4" rx="14.8" ry="4.3"/><ellipse cx="248.5" cy="255.5" rx="9.4" ry="2.7"/><ellipse cx="50.4" cy="293.6" rx="9.4" ry="2.7"/><ellipse cx="126.7" cy="244.2" rx="17.1" ry="5"/><ellipse cx="187.1" cy="303.5" rx="13.3" ry="4"/><ellipse cx="36.7" cy="242.7" rx="8.1" ry="2.3"/><ellipse cx="697.1" cy="244.7" rx="6.7" ry="2"/><ellipse cx="824.3" cy="299.2" rx="6.7" ry="2"/></g><g fill="#967523"><ellipse cx="921.9" cy="241.8" rx="3.4" ry=".9"/><ellipse cx="226.8" cy="245.3" rx="3.7" ry="1.1"/><ellipse cx="80.9" cy="303.5" rx="3.7" ry="1.1"/><ellipse cx="345.3" cy="286.6" rx="3.7" ry="1.1"/><ellipse cx="754.5" cy="255.5" rx="3.7" ry="1.1"/></g><g fill="#F7F0DF"><path d="M880 280.3c0 .5-.3.8-.8.8h-140c-.5 0-.8-.3-.8-.8V271c0-.5.3-.8.8-.8H879c.5 0 .8.3.8.8l.2 9.3zM550.7 280.3c0 .5-.3.8-.8.8H410.1c-.5 0-.8-.3-.8-.8V271c0-.5.3-.8.8-.8h139.7c.5 0 .8.3.8.8l.1 9.3zM221.5 280.3c0 .5-.3.8-.8.8h-140c-.5 0-.8-.3-.8-.8V271c0-.5.3-.8.8-.8h139.8c.5 0 .8.3.8.8l.2 9.3z"/></g></svg>