<svg xmlns="http://www.w3.org/2000/svg" viewBox="0 0 140 100"><g fill="#363639"><path d="M4.6 97.7h11.3v.5H4.6zM5.7 97.2h9.2v.5H5.7zM6.4 96.7h7.7v.5H6.4zM4.6 82.4h11.3v.5H4.6zM5.7 81.9h9.2v.5H5.7z"/><path d="M6.4 81.4h7.7v.6H6.4z"/><path d="M10.2 80.2c6.6 2.5 3.9 16.5 3.9 16.5l-3.6.5v.1h-.4v-.1l-3.6-.5c-.1 0-2.8-14 3.7-16.5z"/><path d="M8.7 28.3h3.2v55.2H8.7z"/><path d="M6.5 27.6H14v.9H6.5z"/><path d="M6.8 7.8l-5.5 5.8 5.5 14.1h6.9l5.5-14.1-5.6-5.9s-1.2-1-2.9-1.2c0-.4-.1-1.5-.1-2s.2-.5.5-.8c-.6 0-.9-1.2-.9-1.2s-.2 1.4-.8 1.4c.3.3.4.3.4.8s0 1.6-.1 2c-1.6.1-2.9 1.1-2.9 1.1zm6.1 19.5l1.8-14.7 3.9 1.2-5.2 13.6h-.5zm-7-14.7l1.8 14.7h-.6L1.9 13.8l4-1.2zm.5 0l7.8-.1-1.7 14.8H8.1L6.4 12.6z"/></g></svg>