<svg xmlns="http://www.w3.org/2000/svg" width="664.9" height="507.8" viewBox="0 0 664.9 507.8"><g style="isolation:isolate"><g id="Chain"><path id="Chain-2" data-name="Chain" d="M82.7,252.6a14.8,14.8,0,0,1,2.3,8.3,15.5,15.5,0,0,1-2,7.8,14.6,14.6,0,0,0-.9,1.6,7.5,7.5,0,0,0-.7,3.3v1.2a6.8,6.8,0,0,0,1.1,3.2,6.3,6.3,0,0,0,.7,1,14.6,14.6,0,0,1,3.2,8,15.2,15.2,0,0,1-1.2,7.9l-.7,1.7a9.6,9.6,0,0,0-.4,3.4c0,.2.1.4.1.6s.1.4.1.6a6.8,6.8,0,0,0,1.4,3.1l.8,1a15.7,15.7,0,0,1,3.6,15.6l-.6,1.7a7.8,7.8,0,0,0,0,3.4c0,.2.1.4.1.6a1.4,1.4,0,0,0,.2.6,11.1,11.1,0,0,0,1.7,3l.9.9a14.5,14.5,0,0,1,4.8,7.1,15.9,15.9,0,0,1,.5,8c-.1.3-.4,1.8-.4,1.8a8,8,0,0,0,.4,3.4c.1.2.1.4.2.6s.1.4.2.5a9.5,9.5,0,0,0,2,2.8,5.5,5.5,0,0,0,1,.8,14.7,14.7,0,0,1,5.5,6.6,15.5,15.5,0,0,1,1.3,7.9,16.2,16.2,0,0,0-.2,1.8,7.8,7.8,0,0,0,.7,3.3,3,3,0,0,0,.4.8l.2.3a7.9,7.9,0,0,0,2.3,2.5l1.1.7a14.2,14.2,0,0,1,6.2,6,14.7,14.7,0,0,1,2.1,7.7v1.8a8.6,8.6,0,0,0,1.1,3.3l.2.3.2.3c0,.1.1.1.1.2l.2.3a9,9,0,0,0,2.5,2.3l1.1.6a14.5,14.5,0,0,1,6.8,5.3,14.1,14.1,0,0,1,2.9,7.5c0,.3.2,1.8.2,1.8a7.3,7.3,0,0,0,1.4,3.1l.2.3.3.3h.1l.2.3a6.9,6.9,0,0,0,2.8,2l1.2.4a14.1,14.1,0,0,1,7.3,4.6,15.3,15.3,0,0,1,3.7,7.1,17.2,17.2,0,0,0,.4,1.8,7.5,7.5,0,0,0,1.7,3l.2.2.3.3h.1l.2.2a7.5,7.5,0,0,0,3,1.7,5,5,0,0,0,1.2.3A14.3,14.3,0,0,1,168,447a13.8,13.8,0,0,1,4.4,6.7,12.2,12.2,0,0,0,.5,1.7,7.6,7.6,0,0,0,2,2.8l.3.2.4.3h.1l.3.2a7.9,7.9,0,0,0,3.1,1.4l1.2.2a14,14,0,0,1,8.1,3,14.6,14.6,0,0,1,5.1,6.2l.7,1.7a7.8,7.8,0,0,0,2.3,2.5l.3.2.4.2h.1l.3.2a9.4,9.4,0,0,0,3.2,1.1h1.3a14.1,14.1,0,0,1,8.3,2.1,15.3,15.3,0,0,1,5.7,5.6l.9,1.6a9.2,9.2,0,0,0,2.5,2.3h.3l.8.4a7.8,7.8,0,0,0,3.3.7h1.3a15.9,15.9,0,0,1,14.8,6.2l1.1,1.5a9.5,9.5,0,0,0,2.8,2l.5.2.6.2a8,8,0,0,0,3.4.4l1.2-.2a14.2,14.2,0,0,1,8.6.3,14.5,14.5,0,0,1,6.8,4.3l1.2,1.4a7.4,7.4,0,0,0,3,1.7l.5.2.6.2a9.7,9.7,0,0,0,3.4,0l1.2-.3a14.4,14.4,0,0,1,8.6-.6,14.9,14.9,0,0,1,7.2,3.6l1.3,1.2a8.7,8.7,0,0,0,3.1,1.4h1.2a7.8,7.8,0,0,0,3.4-.4l1.2-.5a15.1,15.1,0,0,1,8.5-1.5l2.8.5a13.4,13.4,0,0,1,4.8,2.3l1.5,1.1a9.4,9.4,0,0,0,3.2,1.1h1.2a7.6,7.6,0,0,0,4.2-1.2l.8-.4a15.8,15.8,0,0,1,15.4,0,3.1,3.1,0,0,0,1,.5,8.1,8.1,0,0,0,4.1,1.1h1.2a8.6,8.6,0,0,0,4.1-1.6l.7-.5a12.1,12.1,0,0,1,4.7-2.2,12.6,12.6,0,0,1,2.8-.5,15.2,15.2,0,0,1,7.9,1.2l1,.4a7.5,7.5,0,0,0,4.2.6h1.2a8.1,8.1,0,0,0,3.9-2l.7-.6a14.8,14.8,0,0,1,7.1-3.5,15.8,15.8,0,0,1,7.9.3l1,.3a8.4,8.4,0,0,0,4.2.2h.6l.6-.2a7.6,7.6,0,0,0,3.6-2.4l.6-.6a15.8,15.8,0,0,1,14.6-4.8l1.1.2a8.6,8.6,0,0,0,4.2-.2l.5-.2.6-.2a8.4,8.4,0,0,0,3.4-2.8l.5-.7a15.9,15.9,0,0,1,14-6.2h1.1a8.3,8.3,0,0,0,4.1-.7l.8-.4.3-.2a9.2,9.2,0,0,0,3.1-3.1,5.6,5.6,0,0,0,.5-.8,15.8,15.8,0,0,1,13.4-7.7h1.1a8.7,8.7,0,0,0,4.1-1.1l.3-.2.4-.3.3-.2a8,8,0,0,0,2.7-3.4c.1-.3.3-.5.4-.8a13.9,13.9,0,0,1,5.1-6.1,14.7,14.7,0,0,1,7.4-2.9h1.1a9.3,9.3,0,0,0,3.9-1.5l.2-.2.3-.3a.1.1,0,0,0,.1-.1l.3-.2a9.1,9.1,0,0,0,2.4-3.7l.3-.8a15.6,15.6,0,0,1,4.4-6.6,14.8,14.8,0,0,1,7.1-3.7l1-.3a8.2,8.2,0,0,0,3.7-1.9l.2-.2.3-.3.2-.2a7.5,7.5,0,0,0,1.9-3.9,2.9,2.9,0,0,0,.2-.9,15.3,15.3,0,0,1,3.7-7.1,14.7,14.7,0,0,1,6.6-4.4l1-.4a7.9,7.9,0,0,0,3.5-2.3l.2-.3.3-.4.2-.3a7.9,7.9,0,0,0,1.5-4.1,2.8,2.8,0,0,0,.1-.9,15.7,15.7,0,0,1,2.9-7.4,15.9,15.9,0,0,1,6.1-5.1l1-.5a8.6,8.6,0,0,0,3.3-2.7l.2-.3.3-.4.2-.3a8,8,0,0,0,1.1-4.2v-.9a15.8,15.8,0,0,1,7.7-13.4l.9-.6a8.6,8.6,0,0,0,3-3,.4.4,0,0,0,.1-.3c.1-.3.3-.5.4-.8a9.3,9.3,0,0,0,.7-4.3,2.8,2.8,0,0,0-.1-.9,15,15,0,0,1,1.3-7.8,14.3,14.3,0,0,1,5-6.2,2.7,2.7,0,0,0,.8-.7,7.8,7.8,0,0,0,2.6-3.3,1.7,1.7,0,0,0,.2-.5c.1-.2.1-.4.2-.6a8,8,0,0,0,.2-4.3,2.9,2.9,0,0,0-.2-.9,14.5,14.5,0,0,1,.5-7.9,14.2,14.2,0,0,1,4.3-6.7l.8-.7a8.6,8.6,0,0,0,2.3-3.5c.1-.2.1-.4.2-.6a1.3,1.3,0,0,0,.1-.6,7.8,7.8,0,0,0-.3-4.3l-.3-.8a13.9,13.9,0,0,1-.3-7.9,14.8,14.8,0,0,1,3.5-7.1l.7-.8a8,8,0,0,0,1.9-3.8c0-.2.1-.4.1-.6s.1-.4.1-.6a7.9,7.9,0,0,0-.7-4.3l-.3-.8a15.9,15.9,0,0,1,1.6-15.4l.6-.9a8.8,8.8,0,0,0,1.5-3.9v-1.2a7.6,7.6,0,0,0-1.2-4.2c-.1-.3-.3-.5-.4-.8a15.8,15.8,0,0,1,0-15.4,4.1,4.1,0,0,0,.5-.9,8.1,8.1,0,0,0,1.1-4.1v-1.2a8.6,8.6,0,0,0-1.6-4.1l-.5-.7a14.9,14.9,0,0,1-2.8-7.5,15.2,15.2,0,0,1,1.2-7.9,4.2,4.2,0,0,0,.4-1,7.5,7.5,0,0,0,.6-4.2c0-.2-.1-.4-.1-.6s-.1-.4-.1-.6a8.1,8.1,0,0,0-2-3.9l-.6-.7a14.8,14.8,0,0,1-3.5-7.1,15.8,15.8,0,0,1,.3-7.9l.3-1a8.5,8.5,0,0,0,.2-4.2,3090632051108.1,3090632051108.1,0,0,1-.4-1.2,7.6,7.6,0,0,0-2.4-3.6l-.6-.6a15.6,15.6,0,0,1-4.3-6.7,14.6,14.6,0,0,1-.5-7.9,4.3,4.3,0,0,0,.2-1.1,8.6,8.6,0,0,0-.2-4.2c-.1-.2-.1-.4-.2-.6s-.1-.4-.2-.5a7.8,7.8,0,0,0-2.8-3.4l-.7-.5a15.9,15.9,0,0,1-6.2-14,4.1,4.1,0,0,0,.1-1.1,8.3,8.3,0,0,0-.7-4.1l-.4-.8v-.3a8.4,8.4,0,0,0-3.1-3.1l-.8-.4a15.8,15.8,0,0,1-7.7-13.4v-1.1A8.7,8.7,0,0,0,549,123l-.2-.3h-.1l-.2-.3-.2-.3a8,8,0,0,0-3.4-2.7l-.8-.4a16,16,0,0,1-9-12.5c0-.4-.1-.7-.1-1.1a9.3,9.3,0,0,0-1.5-3.9l-.2-.3h-.1l-.3-.3-.2-.3A9.1,9.1,0,0,0,529,98l-.8-.3a15.6,15.6,0,0,1-6.6-4.4,14.8,14.8,0,0,1-3.7-7.1l-.3-1a8.2,8.2,0,0,0-1.9-3.7l-.2-.2h-.1l-.3-.3-.2-.2L513,79.4l-2.1,4.5,1,.6a3.4,3.4,0,0,1,0,4.5,3.2,3.2,0,0,1-4,.7c-.8,1.5-1.6,2.9-2.5,4.3l.9.5,1.2.4a14.1,14.1,0,0,1,7.3,4.6,14.8,14.8,0,0,1,3.7,7.1,17.2,17.2,0,0,0,.4,1.8,7.7,7.7,0,0,0,1.4,2.5h0l.3.4a7.9,7.9,0,0,0,2.2,1.9l1.1.6a14.5,14.5,0,0,1,6.8,5.3,14.1,14.1,0,0,1,2.9,7.5c0,.3.2,1.8.2,1.8a7.3,7.3,0,0,0,1.4,3.1,10,10,0,0,0,2,2.1l1.1.7a14.2,14.2,0,0,1,6.2,6,14.7,14.7,0,0,1,2.1,7.7v1.8a8.6,8.6,0,0,0,1.1,3.3,10.2,10.2,0,0,0,1.8,2.3,5.5,5.5,0,0,0,1,.8,14.7,14.7,0,0,1,5.5,6.6,15.5,15.5,0,0,1,1.3,7.9,16.2,16.2,0,0,0-.2,1.8,7.5,7.5,0,0,0,.7,3.3,9.7,9.7,0,0,0,1.5,2.4l.9.9a14.5,14.5,0,0,1,4.8,7.1,15.9,15.9,0,0,1,.5,8c-.1.3-.4,1.8-.4,1.8a9.3,9.3,0,0,0,1.6,6l.8,1a15.7,15.7,0,0,1,3.6,15.6l-.6,1.7a8.6,8.6,0,0,0,0,3.2,7.6,7.6,0,0,0,1,3,6.3,6.3,0,0,0,.7,1,14.6,14.6,0,0,1,3.2,8,15.2,15.2,0,0,1-1.2,7.9l-.7,1.7a8,8,0,0,0-.4,3.1,8.2,8.2,0,0,0,.7,3.1,4.1,4.1,0,0,0,.6,1.1,14.8,14.8,0,0,1,2.4,8.3,15.5,15.5,0,0,1-2,7.8,14.6,14.6,0,0,0-.9,1.6,7.8,7.8,0,0,0-.7,3.1,8,8,0,0,0,.4,3.1l.5,1.2a15.1,15.1,0,0,1,1.5,8.5,14.9,14.9,0,0,1-2.8,7.5l-1.1,1.5a7.6,7.6,0,0,0-1,3,8.1,8.1,0,0,0,0,3.1l.3,1.2a14.3,14.3,0,0,1,.6,8.6,14.9,14.9,0,0,1-3.6,7.2l-1.2,1.3a7,7,0,0,0-1.3,2.9,8.2,8.2,0,0,0-.3,3.1s.1.8.2,1.2a15,15,0,0,1-.3,8.6,14.5,14.5,0,0,1-4.3,6.8l-1.4,1.2a8.7,8.7,0,0,0-1.5,2.5,7.8,7.8,0,0,0-.7,3.3,8.5,8.5,0,0,0,.1,1.3,15.9,15.9,0,0,1-6.2,14.8l-1.5,1.1a8.4,8.4,0,0,0-1.8,2.3,9.4,9.4,0,0,0-1.1,3.2,5.2,5.2,0,0,0,0,1.3,14.1,14.1,0,0,1-2.1,8.3,15.3,15.3,0,0,1-5.6,5.7l-1.6.9a10,10,0,0,0-2,2.1,7.9,7.9,0,0,0-1.4,3.1,7.1,7.1,0,0,0-.2,1.2,14,14,0,0,1-3,8.1,14.6,14.6,0,0,1-6.2,5.1l-1.7.7a7.9,7.9,0,0,0-2.2,1.9h-.1l-.3.3a8.9,8.9,0,0,0-1.4,2.5,5,5,0,0,0-.3,1.2,14.3,14.3,0,0,1-3.8,7.7,13.8,13.8,0,0,1-6.7,4.4l-1.7.5a7.8,7.8,0,0,0-2.4,1.6h-.1l-.3.3a7.8,7.8,0,0,0-1.6,2.4s-.3.8-.4,1.2a14.1,14.1,0,0,1-4.6,7.3,15.3,15.3,0,0,1-7.1,3.7l-1.8.4a7.7,7.7,0,0,0-2.5,1.4h-.1l-.4.3a7.9,7.9,0,0,0-1.9,2.2l-.6,1.1a14.5,14.5,0,0,1-5.3,6.8,14.1,14.1,0,0,1-7.5,2.9l-1.8.2a7.3,7.3,0,0,0-3.1,1.4,10,10,0,0,0-2.1,2l-.7,1.1a14.2,14.2,0,0,1-6,6.2,14.7,14.7,0,0,1-7.7,2.1h-1.8a7.6,7.6,0,0,0-3.2,1.1,10.2,10.2,0,0,0-2.3,1.8,5.5,5.5,0,0,0-.8,1,14.7,14.7,0,0,1-6.6,5.5,15.5,15.5,0,0,1-7.9,1.3l-1.8-.2a7.5,7.5,0,0,0-3.3.7,9.7,9.7,0,0,0-2.4,1.5l-.9.9a14.5,14.5,0,0,1-7.1,4.8,15.9,15.9,0,0,1-8,.5l-1.8-.4a8.2,8.2,0,0,0-3.1.3,9.5,9.5,0,0,0-2.9,1.3l-1,.8a15.7,15.7,0,0,1-15.6,3.6l-1.7-.6a8.6,8.6,0,0,0-3.2,0,7.6,7.6,0,0,0-3,1l-1.1.7a14.6,14.6,0,0,1-8,3.2h-2.8a13.2,13.2,0,0,1-5.1-1.3l-1.6-.8a8,8,0,0,0-3.1-.4H348a8.9,8.9,0,0,0-2.8.7,4.1,4.1,0,0,0-1.1.6,14.8,14.8,0,0,1-8.3,2.4,15.5,15.5,0,0,1-7.8-2l-1.6-.9a8.3,8.3,0,0,0-2.7-.7h-.3a9.6,9.6,0,0,0-4.1.7l-.8.3a12.7,12.7,0,0,1-5,1.2,13.1,13.1,0,0,1-2.8-.1,14.4,14.4,0,0,1-7.5-2.8l-.9-.6a8.9,8.9,0,0,0-7.8-1.2l-.8.3a14.2,14.2,0,0,1-8,.3,14.8,14.8,0,0,1-7.1-3.5l-.8-.7a7.8,7.8,0,0,0-3.5-1.8,8.2,8.2,0,0,0-4.1-.1l-.9.2a14.5,14.5,0,0,1-7.9-.5,14.2,14.2,0,0,1-6.7-4.3l-.7-.8a8.3,8.3,0,0,0-3.3-2.2,9.3,9.3,0,0,0-4-.6h-.9a15.9,15.9,0,0,1-14-6.2l-.7-.9a8.6,8.6,0,0,0-3.1-2.5,8.2,8.2,0,0,0-4-1h-.9a15.8,15.8,0,0,1-13.4-7.7l-.6-.9a8.3,8.3,0,0,0-2.8-2.8,9.3,9.3,0,0,0-3.8-1.4h-.9a15.7,15.7,0,0,1-7.4-2.9,15.9,15.9,0,0,1-5.1-6.1,4.7,4.7,0,0,0-.5-1,7.5,7.5,0,0,0-2.5-3.1,8.5,8.5,0,0,0-3.7-1.8l-.9-.2a15.3,15.3,0,0,1-7.1-3.7,15.6,15.6,0,0,1-4.4-6.6,4.2,4.2,0,0,0-.4-1,7.8,7.8,0,0,0-2.1-3.3,8.4,8.4,0,0,0-3.5-2.1l-.8-.3a15.6,15.6,0,0,1-6.6-4.4,14.8,14.8,0,0,1-3.7-7.1l-.3-1a7.8,7.8,0,0,0-1.8-3.5,8.5,8.5,0,0,0-3.2-2.5l-.8-.4a16,16,0,0,1-9-12.5c0-.4-.1-.7-.1-1.1a7.3,7.3,0,0,0-1.4-3.7,7.8,7.8,0,0,0-2.9-2.8l-.8-.5a15.8,15.8,0,0,1-7.7-13.4v-1.1a7.5,7.5,0,0,0-1-3.8,7.9,7.9,0,0,0-2.6-3.1l-.7-.5a15.9,15.9,0,0,1-6.2-14c0-.4.1-.7.1-1.1a7.6,7.6,0,0,0-.6-3.9,8.9,8.9,0,0,0-2.3-3.4l-.7-.6a15.8,15.8,0,0,1-4.8-14.6c.1-.4.1-.7.2-1.1a9.3,9.3,0,0,0-2.1-7.6l-.6-.7a15.8,15.8,0,0,1-3.3-15l.3-1a8.9,8.9,0,0,0,.3-4,7.6,7.6,0,0,0-1.6-3.8,1.8,1.8,0,0,0-.5-.7A14.9,14.9,0,0,1,96,286a15.2,15.2,0,0,1,1.2-7.9,4.2,4.2,0,0,0,.4-1,8.9,8.9,0,0,0-.4-7.8c-.1-.3-.3-.5-.4-.8a15.8,15.8,0,0,1,0-15.4,3.1,3.1,0,0,0,.5-1,9.4,9.4,0,0,0,1.1-3.8,8.9,8.9,0,0,0-.7-4l-.3-.8A15.9,15.9,0,0,1,99,228.1l.6-.9a7,7,0,0,0,1.4-3.7,8.1,8.1,0,0,0-.3-4.1,3.1,3.1,0,0,1-.2-.8,14.2,14.2,0,0,1-.3-8,14.8,14.8,0,0,1,3.5-7.1l.7-.8a7.8,7.8,0,0,0,1.8-3.5,8.2,8.2,0,0,0,.1-4.1,2.9,2.9,0,0,0-.2-.9,14.5,14.5,0,0,1,.5-7.9,14.2,14.2,0,0,1,4.3-6.7l.8-.7a8.3,8.3,0,0,0,2.2-3.3,7.9,7.9,0,0,0,.5-4,2.8,2.8,0,0,0-.1-.9,15.9,15.9,0,0,1,6.2-14l.9-.7a9.1,9.1,0,0,0,2.5-3,8.2,8.2,0,0,0,1-4v-.9a15.8,15.8,0,0,1,7.7-13.4l.9-.6a8.3,8.3,0,0,0,2.8-2.8,8,8,0,0,0,1.4-3.9,2.8,2.8,0,0,0,.1-.9,15.7,15.7,0,0,1,2.9-7.4,15.9,15.9,0,0,1,6.1-5.1l1-.5a8.2,8.2,0,0,0,3.1-2.5,9.1,9.1,0,0,0,1.8-3.7c.1-.3.1-.6.2-.9a15.3,15.3,0,0,1,3.7-7.1,14.7,14.7,0,0,1,6.6-4.4l1-.4a8,8,0,0,0,1.6-.8l-2.5-4.4a3.2,3.2,0,0,1-4-.7,3.4,3.4,0,0,1,0-4.5,2.1,2.1,0,0,1,1-.6L158.2,79a7.6,7.6,0,0,0-1.9,1.2l-.2.2-.2.2-.2.2-.2.2a7.5,7.5,0,0,0-1.7,3,5,5,0,0,0-.3,1.2A15.8,15.8,0,0,1,143,97.3l-1.7.6a9,9,0,0,0-2.8,2l-.2.3-.2.2-.2.2-.2.3a7.9,7.9,0,0,0-1.4,3.1,7,7,0,0,0-.2,1.3,14,14,0,0,1-3,8.1,14.6,14.6,0,0,1-6.2,5.1l-1.7.7a7.8,7.8,0,0,0-2.5,2.3l-.2.3c0,.1-.1.1-.1.2s-.1.1-.1.2l-.2.3a7.5,7.5,0,0,0-1,3.3s-.1.8-.1,1.3a14.1,14.1,0,0,1-2.1,8.3,15.3,15.3,0,0,1-5.6,5.7l-1.6.9a9.2,9.2,0,0,0-2.3,2.5l-.2.3-.4.8a7.8,7.8,0,0,0-.7,3.3,8.5,8.5,0,0,0,.1,1.3A15.9,15.9,0,0,1,102,165l-1.5,1.1a8.4,8.4,0,0,0-2,2.8l-.2.5c-.1.2-.1.4-.2.6a8,8,0,0,0-.4,3.4s.1.8.2,1.2a15,15,0,0,1-.3,8.6,14.5,14.5,0,0,1-4.3,6.8l-1.4,1.2a7.4,7.4,0,0,0-1.7,3c-.1.2-.1.4-.2.6a1.3,1.3,0,0,0-.1.6,7.8,7.8,0,0,0,0,3.4l.3,1.2a14.3,14.3,0,0,1,.6,8.6,14.9,14.9,0,0,1-3.6,7.2L86,217.1a8.7,8.7,0,0,0-1.4,3.1c0,.2-.1.4-.1.6s-.1.4-.1.6a7.8,7.8,0,0,0,.4,3.4l.5,1.2A15.8,15.8,0,0,1,84,242l-1.1,1.5a9.4,9.4,0,0,0-1.1,3.2v1.2a7.2,7.2,0,0,0,.7,3.3c-.4.3,0,1,.2,1.4ZM528.2,108.5a3.3,3.3,0,0,1-4.7-.3,3.4,3.4,0,0,1,5.3-4.2,3.5,3.5,0,0,1-.6,4.5Zm14.9,21.1a3.4,3.4,0,0,1-4.7-.7,3.3,3.3,0,0,1,1.2-4.5,3.4,3.4,0,0,1,4.4.9,3.2,3.2,0,0,1-.9,4.3ZM555.7,152a3.4,3.4,0,0,1-4.6-1.2,3.3,3.3,0,0,1,1.7-4.4,3.2,3.2,0,1,1,2.9,5.6Zm10.1,23.7a3.2,3.2,0,1,1-2.3-5.9,3.4,3.4,0,0,1,4.1,1.8,3.3,3.3,0,0,1-1.8,4.1Zm14.7,101.2a3.3,3.3,0,0,1-3.3-3.3,3.4,3.4,0,1,1,3.3,3.3Zm3.4-29.1a3.3,3.3,0,0,1-3,3.3,3.4,3.4,0,0,1-3.7-3,3.3,3.3,0,0,1,3.3-3.3A3.4,3.4,0,0,1,583.9,247.8Zm-14.6-49.7h0a3.4,3.4,0,0,1,2.6-4,3.3,3.3,0,0,1,3.9,2.3,3.4,3.4,0,0,1-2.2,3.9,3.4,3.4,0,0,1-4.3-2.2Zm5.2,24.8a3.3,3.3,0,0,1,6.6-1,3.2,3.2,0,0,1-2.6,3.6A3.4,3.4,0,0,1,574.5,222.9Zm0,75.8a3.5,3.5,0,0,1,4-2.6,3.4,3.4,0,0,1,2.6,3.7,3.4,3.4,0,0,1-6.6-1.1Zm-5.3,24.9h0a3.4,3.4,0,0,1,4.2-2.2,3.2,3.2,0,0,1,2.2,3.9,3.3,3.3,0,0,1-6.4-1.7Zm-7.8,24.1a3.3,3.3,0,1,1,2.1,4.2,3.3,3.3,0,0,1-2.1-4.2Zm-10.3,23.2a3.4,3.4,0,0,1,4.6-1.3,3.2,3.2,0,0,1-2.9,5.7A3.3,3.3,0,0,1,551.1,370.9Zm-12.7,22a3.5,3.5,0,0,1,4.7-.8,3.2,3.2,0,1,1-4.7.8Zm-14.9,20.5a3.3,3.3,0,0,1,4.7-.3,3.2,3.2,0,1,1-4,5A3.4,3.4,0,0,1,523.5,413.4Zm-17,18.9a3.3,3.3,0,0,1,4.7.2,3.2,3.2,0,0,1-4.5,4.5A3.4,3.4,0,0,1,506.5,432.3Zm-18.9,17h0a3.4,3.4,0,0,1,4.7.7,3.4,3.4,0,0,1-.5,4.5,3.3,3.3,0,0,1-4.4-.5,3.4,3.4,0,0,1,.2-4.7Zm-20.5,14.9a3.4,3.4,0,0,1,4.6,1.2,3.3,3.3,0,0,1-1,4.4,3.4,3.4,0,0,1-4.4-.9A3.5,3.5,0,0,1,467.1,464.2Zm-22,12.7h0a3.3,3.3,0,0,1,4.4,1.7,3.2,3.2,0,0,1-5.7,2.9A3.5,3.5,0,0,1,445.1,476.9Zm-23.2,10.3h0a3.3,3.3,0,0,1,4.2,2.1,3.4,3.4,0,0,1-1.8,4.1,3.4,3.4,0,0,1-4.1-1.8,3.4,3.4,0,0,1,1.7-4.4ZM397.8,495a3.4,3.4,0,0,1,4,2.6,3.3,3.3,0,0,1-2.3,3.9,3.4,3.4,0,0,1-3.9-2.2,3.6,3.6,0,0,1,2.2-4.3ZM373,500.3a3.3,3.3,0,0,1,1,6.6,3.2,3.2,0,0,1-3.6-2.6A3.4,3.4,0,0,1,373,500.3Zm-25.2,2.6h.2a3.3,3.3,0,0,1,3.2,3.3,3.3,3.3,0,0,1-3,3.3h-.1a3.3,3.3,0,0,1-.3-6.6Zm-25.5,0h.2a3.3,3.3,0,0,1,2.9,3.7,3.2,3.2,0,1,1-6.3-.3A3.3,3.3,0,0,1,322.3,502.9Zm-25.1-2.6a3.4,3.4,0,0,1,2.6,4,3.3,3.3,0,0,1-3.6,2.6,3.4,3.4,0,0,1-2.7-3.6A3.3,3.3,0,0,1,297.2,500.3Zm-28.8-2.7a3.4,3.4,0,0,1,4-2.6,3.3,3.3,0,0,1-1.8,6.4,3.2,3.2,0,0,1-2.2-3.8ZM244,489.3a3.3,3.3,0,0,1,4.2-2.1,3.3,3.3,0,0,1-2.4,6.2,3.3,3.3,0,0,1-1.8-4.1Zm-23.4-10.8a3.2,3.2,0,1,1,1.3,4.3,3.5,3.5,0,0,1-1.3-4.3Zm-22.1-13.1a3.4,3.4,0,0,1,4.6-1.2,3.4,3.4,0,0,1,.7,4.7,3.2,3.2,0,1,1-5.3-3.5ZM177.8,450a3.2,3.2,0,1,1,5,4,3.4,3.4,0,0,1-4.5.5A3.5,3.5,0,0,1,177.8,450Zm-18.9-17.5a3.2,3.2,0,0,1,4.7-.2,3.3,3.3,0,0,1-.3,4.7,3.4,3.4,0,0,1-4.5,0A3.6,3.6,0,0,1,158.9,432.5ZM142,413.1a3.3,3.3,0,0,1,4.7.3,3.4,3.4,0,0,1-.7,4.7,3.2,3.2,0,0,1-4-5Zm-14.9-21a3.4,3.4,0,0,1,4.7.7,3.4,3.4,0,0,1-5.6,3.7,3.3,3.3,0,0,1,.9-4.4Zm-12.6-22.4a3.4,3.4,0,0,1,4.6,1.2,3.3,3.3,0,0,1-1.7,4.4,3.4,3.4,0,0,1-4.3-1.4A3.3,3.3,0,0,1,114.5,369.7ZM104.3,346a3.2,3.2,0,1,1,2.3,5.9,3.4,3.4,0,0,1-4.1-1.8,3.5,3.5,0,0,1,1.8-4.1Zm37.2-241.9a3.3,3.3,0,0,1,5.2,4.2,3.3,3.3,0,0,1-4.7.3A3.4,3.4,0,0,1,141.5,104.1Zm-15.3,21.1a3.4,3.4,0,0,1,4.4-1,3.3,3.3,0,0,1,1.2,4.6,3.4,3.4,0,0,1-4.7.7,3.2,3.2,0,0,1-.9-4.3Zm-13.1,22.6a3.4,3.4,0,0,1,6,3,3.4,3.4,0,0,1-4.6,1.2A3.3,3.3,0,0,1,113.1,147.8Zm-10.6,23.8a3.2,3.2,0,0,1,4.1-1.8,3.2,3.2,0,1,1-2.3,5.9,3.5,3.5,0,0,1-1.8-4.1Zm-1.6,152a3.4,3.4,0,0,1-2.6,4,3.2,3.2,0,1,1,2.6-4Zm-5.3-24.8a3.4,3.4,0,0,1-6.6,1.1,3.2,3.2,0,0,1,2.6-3.6A3.1,3.1,0,0,1,95.6,298.8ZM94.5,196.4a3.5,3.5,0,0,1,3.9-2.3,3.4,3.4,0,0,1,2.6,4,3.3,3.3,0,0,1-4.2,2.1,3.2,3.2,0,0,1-2.3-3.8Zm-1.8,22.8a3.2,3.2,0,1,1-1,6.3,3.3,3.3,0,0,1-2.6-3.6A3.2,3.2,0,0,1,92.7,219.2Zm-3.1,25.6a3.3,3.3,0,0,1,3.3,3.3,3.4,3.4,0,0,1-6.7-.3A3.5,3.5,0,0,1,89.6,244.8Zm-.3,25.7a3.2,3.2,0,1,1,.4,6.3,3.2,3.2,0,0,1-.4-6.3Z" transform="translate(-2.1 -7)" style="fill:#3c4d57"/><path id="Chain-3" data-name="Chain" d="M588,269.2a14.8,14.8,0,0,1-2.3-8.3,15.5,15.5,0,0,1,2-7.8,14.6,14.6,0,0,0,.9-1.6,7.5,7.5,0,0,0,.7-3.3V247a6.8,6.8,0,0,0-1.1-3.2,6.3,6.3,0,0,0-.7-1,14.6,14.6,0,0,1-3.2-8,15.2,15.2,0,0,1,1.2-7.9l.7-1.7a9.6,9.6,0,0,0,.4-3.4c0-.2-.1-.4-.1-.6s-.1-.4-.1-.6a6.8,6.8,0,0,0-1.4-3.1l-.8-1a15.7,15.7,0,0,1-3.6-15.6l.6-1.7a7.8,7.8,0,0,0,0-3.4c0-.2-.1-.4-.1-.6a1.4,1.4,0,0,0-.2-.6,11.1,11.1,0,0,0-1.7-3l-.9-.9a14.5,14.5,0,0,1-4.8-7.1,15.9,15.9,0,0,1-.5-8c.1-.3.4-1.8.4-1.8a8,8,0,0,0-.4-3.4c-.1-.2-.1-.4-.2-.6s-.1-.4-.2-.5a9.5,9.5,0,0,0-2-2.8,5.5,5.5,0,0,0-1-.8,14.7,14.7,0,0,1-5.5-6.6,15.5,15.5,0,0,1-1.3-7.9,16.2,16.2,0,0,0,.2-1.8,7.8,7.8,0,0,0-.7-3.3,3,3,0,0,0-.4-.8l-.2-.3a7.9,7.9,0,0,0-2.3-2.5l-1.1-.7a14.2,14.2,0,0,1-6.2-6,14.7,14.7,0,0,1-2.1-7.7v-1.8a8.6,8.6,0,0,0-1.1-3.3l-.2-.3-.2-.3c0-.1-.1-.1-.1-.2l-.2-.3a9,9,0,0,0-2.5-2.3l-1.1-.6a14.5,14.5,0,0,1-6.8-5.3,14.1,14.1,0,0,1-2.9-7.5c0-.3-.2-1.8-.2-1.8a7.3,7.3,0,0,0-1.4-3.1l-.2-.3-.3-.3h-.1l-.2-.3a6.9,6.9,0,0,0-2.8-2l-1.2-.4a14.1,14.1,0,0,1-7.3-4.6,15.3,15.3,0,0,1-3.7-7.1,17.2,17.2,0,0,0-.4-1.8,7.5,7.5,0,0,0-1.7-3l-.2-.2-.3-.3h-.1c-.1-.1-.1-.2-.2-.2a7.5,7.5,0,0,0-3-1.7,5,5,0,0,0-1.2-.3,14.3,14.3,0,0,1-7.7-3.8,13.8,13.8,0,0,1-4.4-6.7,12.2,12.2,0,0,0-.5-1.7,7.6,7.6,0,0,0-2-2.8l-.3-.2-.4-.3H495l-.3-.2a7.9,7.9,0,0,0-3.1-1.4l-1.2-.2a14,14,0,0,1-8.1-3,14.6,14.6,0,0,1-5.1-6.2l-.7-1.7a7.8,7.8,0,0,0-2.3-2.5l-.3-.2a.5.5,0,0,0-.4-.2h-.1l-.3-.2a9.4,9.4,0,0,0-3.2-1.1,5.2,5.2,0,0,0-1.3,0,14.1,14.1,0,0,1-8.3-2.1,15.3,15.3,0,0,1-5.7-5.6l-.9-1.6a9.2,9.2,0,0,0-2.5-2.3h-.3l-.8-.4a7.8,7.8,0,0,0-3.3-.7h-1.3a14.7,14.7,0,0,1-8.5-1.2,14.8,14.8,0,0,1-6.3-5l-1.1-1.5a9.5,9.5,0,0,0-2.8-2l-.5-.2-.6-.2a8,8,0,0,0-3.4-.4l-1.2.2a14.2,14.2,0,0,1-8.6-.3,14.5,14.5,0,0,1-6.8-4.3l-1.2-1.4a7.4,7.4,0,0,0-3-1.7l-.5-.2-.6-.2a9.7,9.7,0,0,0-3.4,0l-1.2.3a14.4,14.4,0,0,1-8.6.6,14.9,14.9,0,0,1-7.2-3.6l-1.3-1.2a8.7,8.7,0,0,0-3.1-1.4h-1.2a7.8,7.8,0,0,0-3.4.4l-1.2.5a15.1,15.1,0,0,1-8.5,1.5l-2.8-.5a13.4,13.4,0,0,1-4.8-2.3l-1.5-1.1A9.4,9.4,0,0,0,349,7h-1.2a7.6,7.6,0,0,0-4.2,1.2l-.8.4a15.1,15.1,0,0,1-7.7,2,15.1,15.1,0,0,1-7.7-2,3.1,3.1,0,0,0-1-.5A8.1,8.1,0,0,0,322.3,7h-1.2A8.6,8.6,0,0,0,317,8.7l-.7.5a12.1,12.1,0,0,1-4.7,2.2,12.6,12.6,0,0,1-2.8.5,15.2,15.2,0,0,1-7.9-1.2l-1-.4a7.5,7.5,0,0,0-4.2-.6h-1.2a8.1,8.1,0,0,0-3.9,2l-.7.6a14.8,14.8,0,0,1-7.1,3.5,15.8,15.8,0,0,1-7.9-.3l-1-.3a8.4,8.4,0,0,0-4.2-.2h-.6l-.6.2a7.6,7.6,0,0,0-3.6,2.4l-.6.6a15.8,15.8,0,0,1-14.6,4.8l-1.1-.2a8.6,8.6,0,0,0-4.2.2l-.5.2-.6.2a8.4,8.4,0,0,0-3.4,2.8l-.5.7a15.9,15.9,0,0,1-14,6.2h-1.1a8.3,8.3,0,0,0-4.1.7l-.8.4-.3.2a9.2,9.2,0,0,0-3.1,3.1,5.6,5.6,0,0,0-.5.8,14.6,14.6,0,0,1-5.7,5.6,14.5,14.5,0,0,1-7.7,2.1H201a8.7,8.7,0,0,0-4.1,1.1l-.3.2-.4.3-.3.2a8,8,0,0,0-2.7,3.4c-.1.3-.3.5-.4.8a13.9,13.9,0,0,1-5.1,6.1,14.7,14.7,0,0,1-7.4,2.9h-1.1a9.3,9.3,0,0,0-3.9,1.5c-.1.1-.2.1-.2.2l-.3.3a.1.1,0,0,0-.1.1l-.3.2a9.1,9.1,0,0,0-2.4,3.7l-.3.8a15.6,15.6,0,0,1-4.4,6.6,14.8,14.8,0,0,1-7.1,3.7l-1,.3a8.2,8.2,0,0,0-3.7,1.9l-.2.2-.3.3-.2.2a7.5,7.5,0,0,0-1.9,3.9,2.9,2.9,0,0,0-.2.9,15.3,15.3,0,0,1-3.7,7.1,14.7,14.7,0,0,1-6.6,4.4l-1,.4a7.9,7.9,0,0,0-3.5,2.3l-.2.3-.3.4-.2.3a7.9,7.9,0,0,0-1.5,4.1,2.8,2.8,0,0,0-.1.9,15.7,15.7,0,0,1-2.9,7.4,15.9,15.9,0,0,1-6.1,5.1l-1,.5a8.6,8.6,0,0,0-3.3,2.7l-.2.3-.3.4-.2.3a8,8,0,0,0-1.1,4.2v.9a15.8,15.8,0,0,1-7.7,13.4l-.9.6a8.6,8.6,0,0,0-3,3,.4.4,0,0,0-.1.3l-.4.8a9.3,9.3,0,0,0-.7,4.3,2.8,2.8,0,0,0,.1.9,15,15,0,0,1-1.3,7.8,14.3,14.3,0,0,1-5,6.2,2.7,2.7,0,0,0-.8.7,7.8,7.8,0,0,0-2.6,3.3l-.2.5c-.1.2-.1.4-.2.6a8,8,0,0,0-.2,4.3,2.9,2.9,0,0,0,.2.9,14.5,14.5,0,0,1-.5,7.9,14.2,14.2,0,0,1-4.3,6.7l-.8.7a8.6,8.6,0,0,0-2.3,3.5c-.1.2-.1.4-.2.6a1.3,1.3,0,0,0-.1.6,7.8,7.8,0,0,0,.3,4.3l.3.8a13.9,13.9,0,0,1,.3,7.9,14.8,14.8,0,0,1-3.5,7.1l-.7.8a8,8,0,0,0-1.9,3.8c0,.2-.1.4-.1.6s-.1.4-.1.6a7.9,7.9,0,0,0,.7,4.3l.3.8a15.9,15.9,0,0,1-1.6,15.4l-.6.9a8.8,8.8,0,0,0-1.5,3.9v1.2a7.6,7.6,0,0,0,1.2,4.2l.4.8a15.8,15.8,0,0,1,0,15.4,4.1,4.1,0,0,0-.5.9,8.1,8.1,0,0,0-1.1,4.1v1.2a8.6,8.6,0,0,0,1.6,4.1l.5.7a14.9,14.9,0,0,1,2.8,7.5,15.2,15.2,0,0,1-1.2,7.9,4.2,4.2,0,0,0-.4,1,7.5,7.5,0,0,0-.6,4.2c0,.2.1.4.1.6s.1.4.1.6a8.1,8.1,0,0,0,2,3.9l.6.7a14.8,14.8,0,0,1,3.5,7.1,15.8,15.8,0,0,1-.3,7.9l-.3,1a8.5,8.5,0,0,0-.2,4.2,12362528204882.9,12362528204882.9,0,0,1,.4,1.2,7.6,7.6,0,0,0,2.4,3.6l.6.6a15.6,15.6,0,0,1,4.3,6.7,14.6,14.6,0,0,1,.5,7.9,4.3,4.3,0,0,0-.2,1.1,8.6,8.6,0,0,0,.2,4.2c.1.2.1.4.2.6s.1.4.2.5a7.8,7.8,0,0,0,2.8,3.4l.7.5a15.9,15.9,0,0,1,6.2,14,4.1,4.1,0,0,0-.1,1.1,8.3,8.3,0,0,0,.7,4.1l.4.8c0,.1.1.2.1.3a8.4,8.4,0,0,0,3.1,3.1,2,2,0,0,0,.8.4,15.8,15.8,0,0,1,7.7,13.4v1.1a8.7,8.7,0,0,0,1.1,4.1l.2.3h.1l.2.3.2.3a8,8,0,0,0,3.4,2.7l.8.4a16,16,0,0,1,9,12.5c0,.4.1.7.1,1.1a9.3,9.3,0,0,0,1.5,3.9l.2.3a.1.1,0,0,0,.1.1l.3.3.2.3a9.1,9.1,0,0,0,3.7,2.4l.8.3a15.6,15.6,0,0,1,6.6,4.4,14.8,14.8,0,0,1,3.7,7.1l.3,1a8.2,8.2,0,0,0,1.9,3.7l.2.2h.1l.3.3.2.2,1.9,1.3,2.1-4.5-1-.6a3.4,3.4,0,0,1,0-4.5,3.2,3.2,0,0,1,4-.7c.8-1.5,1.6-2.9,2.5-4.3l-.9-.5-1.2-.4a14.1,14.1,0,0,1-7.3-4.6,14.8,14.8,0,0,1-3.7-7.1,17.2,17.2,0,0,0-.4-1.8,7.7,7.7,0,0,0-1.4-2.5h0l-.3-.4a7.9,7.9,0,0,0-2.2-1.9l-1.1-.6a14.5,14.5,0,0,1-6.8-5.3,14.1,14.1,0,0,1-2.9-7.5c0-.3-.2-1.8-.2-1.8a7.3,7.3,0,0,0-1.4-3.1,10,10,0,0,0-2-2.1l-1.1-.7a14.2,14.2,0,0,1-6.2-6,14.7,14.7,0,0,1-2.1-7.7v-1.8a8.6,8.6,0,0,0-1.1-3.3,10.2,10.2,0,0,0-1.8-2.3,5.5,5.5,0,0,0-1-.8,14.7,14.7,0,0,1-5.5-6.6,15.5,15.5,0,0,1-1.3-7.9,16.2,16.2,0,0,0,.2-1.8,7.5,7.5,0,0,0-.7-3.3,9.7,9.7,0,0,0-1.5-2.4l-.9-.9a14.5,14.5,0,0,1-4.8-7.1,15.9,15.9,0,0,1-.5-8c.1-.3.4-1.8.4-1.8a9.3,9.3,0,0,0-1.6-6l-.8-1a15.7,15.7,0,0,1-3.6-15.6l.6-1.7a8.6,8.6,0,0,0,0-3.2,7.6,7.6,0,0,0-1-3,6.3,6.3,0,0,0-.7-1,14.6,14.6,0,0,1-3.2-8,15.2,15.2,0,0,1,1.2-7.9l.7-1.7a8,8,0,0,0,.4-3.1,8.2,8.2,0,0,0-.7-3.1,4.1,4.1,0,0,0-.6-1.1,14.8,14.8,0,0,1-2.4-8.3,15.5,15.5,0,0,1,2-7.8,14.6,14.6,0,0,0,.9-1.6,7.8,7.8,0,0,0,.7-3.1,8,8,0,0,0-.4-3.1l-.5-1.2a15.1,15.1,0,0,1-1.5-8.5,14.9,14.9,0,0,1,2.8-7.5l1.1-1.5a7.6,7.6,0,0,0,1-3,8.1,8.1,0,0,0,0-3.1l-.3-1.2a14.3,14.3,0,0,1-.6-8.6,14.9,14.9,0,0,1,3.6-7.2l1.2-1.3a7,7,0,0,0,1.3-2.9,8.2,8.2,0,0,0,.3-3.1s-.1-.8-.2-1.2a15,15,0,0,1,.3-8.6,14.5,14.5,0,0,1,4.3-6.8l1.4-1.2a8.7,8.7,0,0,0,1.5-2.5,7.8,7.8,0,0,0,.7-3.3,8.5,8.5,0,0,0-.1-1.3,15.9,15.9,0,0,1,6.2-14.8l1.5-1.1a8.4,8.4,0,0,0,1.8-2.3A9.4,9.4,0,0,0,124,150a5.2,5.2,0,0,0,0-1.3,14.1,14.1,0,0,1,2.1-8.3,15.3,15.3,0,0,1,5.6-5.7l1.6-.9a10,10,0,0,0,2-2.1,7.9,7.9,0,0,0,1.4-3.1,7.1,7.1,0,0,0,.2-1.2,14,14,0,0,1,3-8.1,14.6,14.6,0,0,1,6.2-5.1l1.7-.7a7.9,7.9,0,0,0,2.2-1.9h.1l.3-.3a8.9,8.9,0,0,0,1.4-2.5,5,5,0,0,0,.3-1.2,14.3,14.3,0,0,1,3.8-7.7,13.8,13.8,0,0,1,6.7-4.4l1.7-.5a7.8,7.8,0,0,0,2.4-1.6h.1l.3-.3a7.8,7.8,0,0,0,1.6-2.4s.3-.8.4-1.2a14.1,14.1,0,0,1,4.6-7.3,15.3,15.3,0,0,1,7.1-3.7l1.8-.4a7.7,7.7,0,0,0,2.5-1.4h.1l.4-.3a7.9,7.9,0,0,0,1.9-2.2l.6-1.1a14.5,14.5,0,0,1,5.3-6.8,14.1,14.1,0,0,1,7.5-2.9l1.8-.2a7.3,7.3,0,0,0,3.1-1.4,10,10,0,0,0,2.1-2l.7-1.1a14.2,14.2,0,0,1,6-6.2,14.7,14.7,0,0,1,7.7-2.1h1.8a7.6,7.6,0,0,0,3.2-1.1,10.2,10.2,0,0,0,2.3-1.8,5.5,5.5,0,0,0,.8-1,14.7,14.7,0,0,1,6.6-5.5,15.5,15.5,0,0,1,7.9-1.3l1.8.2A7.5,7.5,0,0,0,250,39a9.7,9.7,0,0,0,2.4-1.5l.9-.9a14.5,14.5,0,0,1,7.1-4.8,15.9,15.9,0,0,1,8-.5l1.8.4a8.2,8.2,0,0,0,3.1-.3,9.5,9.5,0,0,0,2.9-1.3l1-.8a15.7,15.7,0,0,1,15.6-3.6l1.7.6a8.6,8.6,0,0,0,3.2,0,7.6,7.6,0,0,0,3-1l1.1-.7a14.6,14.6,0,0,1,8-3.2h2.8a13.2,13.2,0,0,1,5.1,1.3l1.6.8a8,8,0,0,0,3.1.4h.3a8.9,8.9,0,0,0,2.8-.7,4.1,4.1,0,0,0,1.1-.6,14.8,14.8,0,0,1,8.3-2.4,15.5,15.5,0,0,1,7.8,2l1.6.9a8.3,8.3,0,0,0,2.7.7h.3a9.6,9.6,0,0,0,4.1-.7l.8-.3a12.7,12.7,0,0,1,5-1.2,13.1,13.1,0,0,1,2.8.1,14.4,14.4,0,0,1,7.5,2.8l.9.6a8.9,8.9,0,0,0,7.8,1.2l.8-.3a14.2,14.2,0,0,1,8-.3,14.8,14.8,0,0,1,7.1,3.5l.8.7a7.8,7.8,0,0,0,3.5,1.8,8.2,8.2,0,0,0,4.1.1l.9-.2a14.5,14.5,0,0,1,7.9.5,14.2,14.2,0,0,1,6.7,4.3l.7.8a8.3,8.3,0,0,0,3.3,2.2,9.3,9.3,0,0,0,4,.6h.9a15.9,15.9,0,0,1,14,6.2l.7.9a8.6,8.6,0,0,0,3.1,2.5,8.2,8.2,0,0,0,4,1h.9A15.8,15.8,0,0,1,461,58.1l.6.9a8.3,8.3,0,0,0,2.8,2.8,9.3,9.3,0,0,0,3.8,1.4h.9a15.7,15.7,0,0,1,7.4,2.9,15.9,15.9,0,0,1,5.1,6.1,4.7,4.7,0,0,0,.5,1,7.5,7.5,0,0,0,2.5,3.1,8.5,8.5,0,0,0,3.7,1.8l.9.2a15.3,15.3,0,0,1,7.1,3.7,15.6,15.6,0,0,1,4.4,6.6,4.2,4.2,0,0,0,.4,1,7.8,7.8,0,0,0,2.1,3.3,8.4,8.4,0,0,0,3.5,2.1l.8.3a15.6,15.6,0,0,1,6.6,4.4,14.8,14.8,0,0,1,3.7,7.1l.3,1a7.8,7.8,0,0,0,1.8,3.5,8.5,8.5,0,0,0,3.2,2.5l.8.4a16,16,0,0,1,9,12.5c0,.4.1.7.1,1.1a7.3,7.3,0,0,0,1.4,3.7,7.8,7.8,0,0,0,2.9,2.8l.8.5a15.8,15.8,0,0,1,7.7,13.4v1.1a7.5,7.5,0,0,0,1,3.8,7.9,7.9,0,0,0,2.6,3.1l.7.5a15.9,15.9,0,0,1,6.2,14c0,.4-.1.7-.1,1.1a7.6,7.6,0,0,0,.6,3.9,8.9,8.9,0,0,0,2.3,3.4l.7.6a15.8,15.8,0,0,1,4.8,14.6c-.1.4-.1.7-.2,1.1a9.3,9.3,0,0,0,2.1,7.6l.6.7a15.8,15.8,0,0,1,3.3,15l-.3,1a8.9,8.9,0,0,0-.3,4,7.6,7.6,0,0,0,1.6,3.8,1.8,1.8,0,0,0,.5.7,14.9,14.9,0,0,1,2.8,7.5,15.2,15.2,0,0,1-1.2,7.9,4.2,4.2,0,0,0-.4,1,8.9,8.9,0,0,0,.4,7.8l.4.8a15.8,15.8,0,0,1,0,15.4,3.1,3.1,0,0,0-.5,1,9.4,9.4,0,0,0-1.1,3.8,8.9,8.9,0,0,0,.7,4l.3.8a15.9,15.9,0,0,1-1.6,15.4l-.6.9a7,7,0,0,0-1.4,3.7,8.1,8.1,0,0,0,.3,4.1,3.1,3.1,0,0,1,.2.8,14.2,14.2,0,0,1,.3,8,14.8,14.8,0,0,1-3.5,7.1l-.7.8a7.8,7.8,0,0,0-1.8,3.5,8.2,8.2,0,0,0-.1,4.1,2.9,2.9,0,0,0,.2.9,14.5,14.5,0,0,1-.5,7.9,14.2,14.2,0,0,1-4.3,6.7l-.8.7a8.3,8.3,0,0,0-2.2,3.3,7.9,7.9,0,0,0-.5,4,2.8,2.8,0,0,0,.1.9,15.9,15.9,0,0,1-6.2,14l-.9.7a9.1,9.1,0,0,0-2.5,3,8.2,8.2,0,0,0-1,4v.9a15.8,15.8,0,0,1-7.7,13.4l-.9.6a8.3,8.3,0,0,0-2.8,2.8,8,8,0,0,0-1.4,3.9,2.8,2.8,0,0,0-.1.9,15.7,15.7,0,0,1-2.9,7.4,15.9,15.9,0,0,1-6.1,5.1l-1,.5a8.2,8.2,0,0,0-3.1,2.5,9.1,9.1,0,0,0-1.8,3.7c-.1.3-.1.6-.2.9a15.3,15.3,0,0,1-3.7,7.1,14.7,14.7,0,0,1-6.6,4.4l-1,.4a8,8,0,0,0-1.6.8l2.5,4.4a3.2,3.2,0,0,1,4,.7,3.4,3.4,0,0,1,0,4.5,2.1,2.1,0,0,1-1,.6l2.1,4.5a7.6,7.6,0,0,0,1.9-1.2l.2-.2.2-.2.2-.2.2-.2a7.5,7.5,0,0,0,1.7-3,5,5,0,0,0,.3-1.2,15.8,15.8,0,0,1,10.5-12.1l1.7-.6a9,9,0,0,0,2.8-2l.2-.3.2-.2.2-.2.2-.3a7.9,7.9,0,0,0,1.4-3.1,7,7,0,0,0,.2-1.3,14,14,0,0,1,3-8.1,14.6,14.6,0,0,1,6.2-5.1l1.7-.7a7.8,7.8,0,0,0,2.5-2.3l.2-.3c0-.1.1-.1.1-.2v-.2l.2-.3a7.5,7.5,0,0,0,1-3.3s.1-.8.1-1.3a14.1,14.1,0,0,1,2.1-8.3,15.3,15.3,0,0,1,5.6-5.7l1.6-.9a9.2,9.2,0,0,0,2.3-2.5l.2-.3.4-.8a7.8,7.8,0,0,0,.7-3.3,8.5,8.5,0,0,0-.1-1.3,15.9,15.9,0,0,1,6.2-14.8l1.5-1.1a8.4,8.4,0,0,0,2-2.8,1.7,1.7,0,0,0,.2-.5c.1-.2.1-.4.2-.6a8,8,0,0,0,.4-3.4s-.1-.8-.2-1.2a15,15,0,0,1,.3-8.6,14.5,14.5,0,0,1,4.3-6.8l1.4-1.2a7.4,7.4,0,0,0,1.7-3c.1-.2.1-.4.2-.6a1.3,1.3,0,0,0,.1-.6,7.8,7.8,0,0,0,0-3.4l-.3-1.2a14.3,14.3,0,0,1-.6-8.6,14.9,14.9,0,0,1,3.6-7.2l1.2-1.3a8.7,8.7,0,0,0,1.4-3.1c0-.2.1-.4.1-.6s.1-.4.1-.6a7.8,7.8,0,0,0-.4-3.4l-.5-1.2a15.8,15.8,0,0,1,1.3-16l1.1-1.5a9.4,9.4,0,0,0,1.1-3.2v-1.2a7.2,7.2,0,0,0-.7-3.3c.4-.3,0-1-.2-1.4ZM142.5,413.3a3.3,3.3,0,0,1,4.7.3,3.4,3.4,0,0,1-5.3,4.2,3.5,3.5,0,0,1,.6-4.5Zm-14.9-21.1a3.4,3.4,0,0,1,4.7.7,3.3,3.3,0,0,1-1.2,4.5,3.4,3.4,0,0,1-4.4-.9,3.2,3.2,0,0,1,.9-4.3ZM115,369.8a3.4,3.4,0,0,1,4.6,1.2,3.3,3.3,0,0,1-1.7,4.4,3.2,3.2,0,1,1-2.9-5.6Zm-10.1-23.7a3.2,3.2,0,1,1,2.3,5.9,3.4,3.4,0,0,1-4.1-1.8,3.3,3.3,0,0,1,1.8-4.1ZM90.2,244.9a3.3,3.3,0,0,1,3.3,3.3,3.4,3.4,0,1,1-3.3-3.3ZM86.8,274a3.3,3.3,0,0,1,3-3.3,3.4,3.4,0,0,1,3.7,3,3.3,3.3,0,0,1-3.3,3.3A3.4,3.4,0,0,1,86.8,274Zm14.6,49.7h0a3.4,3.4,0,0,1-2.6,4,3.3,3.3,0,0,1-3.9-2.3,3.4,3.4,0,0,1,2.2-3.9,3.4,3.4,0,0,1,4.3,2.2Zm-5.2-24.8a3.3,3.3,0,0,1-6.6,1,3.2,3.2,0,0,1,2.6-3.6A3.4,3.4,0,0,1,96.2,298.9Zm0-75.8a3.5,3.5,0,0,1-4,2.6,3.4,3.4,0,0,1-2.6-3.7,3.4,3.4,0,0,1,6.6,1.1Zm5.3-24.9h0a3.4,3.4,0,0,1-4.2,2.2,3.2,3.2,0,0,1-2.2-3.9,3.3,3.3,0,0,1,6.4,1.7Zm7.8-24.1a3.3,3.3,0,1,1-2.1-4.2,3.3,3.3,0,0,1,2.1,4.2Zm10.3-23.2a3.4,3.4,0,0,1-4.6,1.3,3.2,3.2,0,1,1,2.9-5.7A3.3,3.3,0,0,1,119.6,150.9Zm12.7-22a3.5,3.5,0,0,1-4.7.8,3.2,3.2,0,1,1,4.7-.8Zm14.9-20.5a3.3,3.3,0,0,1-4.7.3,3.2,3.2,0,1,1,4-5A3.4,3.4,0,0,1,147.2,108.4Zm17-18.9a3.3,3.3,0,0,1-4.7-.2,3.2,3.2,0,0,1,4.5-4.5A3.4,3.4,0,0,1,164.2,89.5Zm18.9-17h0a3.4,3.4,0,0,1-4.7-.7,3.4,3.4,0,0,1,.5-4.5,3.3,3.3,0,0,1,4.4.5,3.4,3.4,0,0,1-.2,4.7Zm20.5-14.9a3.4,3.4,0,0,1-4.6-1.2,3.3,3.3,0,0,1,1-4.4,3.4,3.4,0,0,1,4.4.9A3.5,3.5,0,0,1,203.6,57.6Zm22-12.7h0a3.3,3.3,0,0,1-4.4-1.7,3.2,3.2,0,0,1,5.7-2.9A3.5,3.5,0,0,1,225.6,44.9Zm23.2-10.3h0a3.3,3.3,0,0,1-4.2-2.1,3.4,3.4,0,0,1,1.8-4.1,3.4,3.4,0,0,1,4.1,1.8,3.4,3.4,0,0,1-1.7,4.4Zm24.1-7.8a3.4,3.4,0,0,1-4-2.6,3.3,3.3,0,0,1,2.3-3.9,3.4,3.4,0,0,1,3.9,2.2,3.6,3.6,0,0,1-2.2,4.3Zm24.8-5.3a3.3,3.3,0,0,1-1-6.6,3.2,3.2,0,0,1,3.6,2.6A3.4,3.4,0,0,1,297.7,21.5Zm25.2-2.6h-.2a3.3,3.3,0,0,1-3.2-3.3,3.3,3.3,0,0,1,3-3.3h.1a3.3,3.3,0,0,1,.3,6.6Zm25.5,0h-.2a3.3,3.3,0,0,1-2.9-3.7,3.2,3.2,0,1,1,6.3.3A3.3,3.3,0,0,1,348.4,18.9Zm25.1,2.6a3.4,3.4,0,0,1-2.6-4,3.3,3.3,0,0,1,3.6-2.6,3.4,3.4,0,0,1,2.7,3.6A3.3,3.3,0,0,1,373.5,21.5Zm28.8,2.7a3.4,3.4,0,0,1-4,2.6,3.3,3.3,0,0,1,1.8-6.4,3.2,3.2,0,0,1,2.2,3.8Zm24.4,8.3a3.3,3.3,0,0,1-4.2,2.1,3.3,3.3,0,0,1,2.4-6.2,3.3,3.3,0,0,1,1.8,4.1Zm23.4,10.8a3.2,3.2,0,1,1-1.3-4.3,3.5,3.5,0,0,1,1.3,4.3Zm22.1,13.1a3.4,3.4,0,0,1-4.6,1.2,3.4,3.4,0,0,1-.7-4.7,3.2,3.2,0,0,1,5.3,3.5Zm20.7,15.4a3.2,3.2,0,1,1-5-4,3.4,3.4,0,0,1,4.5-.5A3.5,3.5,0,0,1,492.9,71.8Zm18.9,17.5a3.2,3.2,0,0,1-4.7.2,3.3,3.3,0,0,1,.3-4.7,3.4,3.4,0,0,1,4.5,0A3.6,3.6,0,0,1,511.8,89.3Zm16.9,19.4a3.3,3.3,0,0,1-4.7-.3,3.4,3.4,0,0,1,.7-4.7,3.2,3.2,0,0,1,4,5Zm14.9,21a3.4,3.4,0,0,1-4.7-.7,3.4,3.4,0,0,1,5.6-3.7,3.3,3.3,0,0,1-.9,4.4Zm12.6,22.4a3.4,3.4,0,0,1-4.6-1.2,3.3,3.3,0,0,1,1.7-4.4,3.4,3.4,0,0,1,4.3,1.4A3.3,3.3,0,0,1,556.2,152.1Zm10.2,23.7a3.2,3.2,0,1,1-2.3-5.9,3.4,3.4,0,0,1,4.1,1.8,3.5,3.5,0,0,1-1.8,4.1ZM529.2,417.7a3.3,3.3,0,0,1-5.2-4.2,3.3,3.3,0,0,1,4.7-.3A3.4,3.4,0,0,1,529.2,417.7Zm15.3-21.1a3.4,3.4,0,0,1-4.4,1,3.3,3.3,0,0,1-1.2-4.6,3.4,3.4,0,0,1,4.7-.7,3.2,3.2,0,0,1,.9,4.3ZM557.6,374a3.4,3.4,0,0,1-6-3,3.4,3.4,0,0,1,4.6-1.2A3.3,3.3,0,0,1,557.6,374Zm10.6-23.8a3.2,3.2,0,0,1-4.1,1.8,3.2,3.2,0,1,1,2.3-5.9,3.5,3.5,0,0,1,1.8,4.1Zm1.6-152a3.4,3.4,0,0,1,2.6-4,3.2,3.2,0,1,1-2.6,4Zm5.3,24.8a3.4,3.4,0,0,1,6.6-1.1,3.2,3.2,0,0,1-2.6,3.6A3.1,3.1,0,0,1,575.1,223Zm1.1,102.4a3.5,3.5,0,0,1-3.9,2.3,3.4,3.4,0,0,1-2.6-4,3.3,3.3,0,0,1,4.2-2.1,3.2,3.2,0,0,1,2.3,3.8Zm1.8-22.8a3.2,3.2,0,1,1,1-6.3,3.3,3.3,0,0,1,2.6,3.6A3.2,3.2,0,0,1,578,302.6Zm3.1-25.6a3.3,3.3,0,0,1-3.3-3.3,3.4,3.4,0,0,1,6.7.3A3.5,3.5,0,0,1,581.1,277Zm.3-25.7a3.2,3.2,0,1,1-.4-6.3,3.2,3.2,0,0,1,.4,6.3Z" transform="translate(-2.1 -7)" style="fill:#3c4d57"/></g><g id="Layer_1" data-name="Layer 1"><g id="Ride"><path d="M262.3,304c0-3.5,2.9-7,6-8.5S311,271.6,311,247.4c0-6.3-8.1-11.3-17.4-11.3-36.3.1-66.3,22.2-66.3,22.2s1.9,4.2,1.9,7.1-4.1,4.6-12.5,11.4-10,10-12.2,10-8.9-4.5-8.9-7.6,3.1-17.5,35.9-34.6c27.6-14.5,44.7-17.6,61.3-17.6s31.1,16.6,31.1,30.5c0,28.7-48.7,45-48.7,45,3.8,13.9,14,23.8,23.2,23.8,12.7-.1,25.3-14.6,30.9-22.4,2.3-3.3,3-4.4,3.6-4.4s3.3,3.3,3.3,5.4-.6,3.7-3.4,7.4c-5.1,6.8-22.9,27.8-41.7,27.8C277.7,340.1,262.3,322.7,262.3,304Zm16.3-51.1c0,2.8-10.7,17-24.7,42.7s-16.1,36.9-17.2,42.8c-.2,1.6-.8,2.6-3.1,2.6s-10.5-5.4-10.5-13,4.4-18.8,18.1-42.2S259.8,256,264.8,246c.9-1.9,1.9-2.3,3.5-2.3S278.6,250,278.6,252.9Z" transform="translate(-2.1 -7)" style="fill:#039be5;stroke:#039be5;stroke-miterlimit:10;stroke-width:20px"/><path d="M363.4,303.9c2.3-3.3,3-4.4,3.7-4.4s3.2,3.3,3.2,5.3-.5,3.7-3.4,7.4c-5.1,6.9-14.5,19.3-23.5,19.4s-16.2-6.9-16.2-17.3,7.4-23.5,12-35.3c1.7-4.6,3.1-7.3,5-7.3,3.5,0,11.5,3.1,11.5,6s-1.6,4.8-4.3,10.4c-9.9,20.6-11.6,25-11.6,30.7,0,3.6,1.7,5.4,3.8,5.4C348,324.2,357.9,311.7,363.4,303.9Zm5.7-53c0,4.2-4.5,11.7-9.5,11.8s-8-3.3-8-7.8,5.5-11,9.2-11S369.1,246.6,369.1,250.9Z" transform="translate(-2.1 -7)" style="fill:#039be5;stroke:#039be5;stroke-miterlimit:10;stroke-width:20px"/><path d="M434.7,303.8c2.3-3.3,3-4.4,3.6-4.4s3.3,3.3,3.3,5.4-.5,3.7-3.4,7.4c-5.1,6.8-14.2,20.6-23.3,20.7-4.5,0-6.5-2.1-6.5-2.1-5.3,0-11.8-6.8-11.8-17.5-3.4,7.5-11.9,18.6-20,18.6s-15.9-3.9-15.9-17.1c0-16.1,21-43.5,30.2-43.6s16.4,4.6,16.7,11.3c.7-1.8,15.8-36.2,19.6-36.2s10.2,3.9,10.2,6.3-1.9,3.5-5.3,10-20.3,42.2-20.3,56c0,4.3,1.2,5.5,3.1,5.5C419.2,324.1,429.1,311.6,434.7,303.8Zm-59.6,16.8c0,1.5.2,3,2,3,5.6,0,15.5-15,19.5-23.2,3.1-6.3,5.8-14.6,5.8-17s-.8-3.3-2.1-3.3C393.1,280.1,375.1,304.7,375.1,320.6Z" transform="translate(-2.1 -7)" style="fill:#039be5;stroke:#039be5;stroke-miterlimit:10;stroke-width:20px"/><path d="M433.6,309.3c0-14.3,16.8-36.1,26.6-36.1,6.5,0,16.6,6,16.6,11.9s-2.7,13.9-9.9,20.9c-5.7,5.6-18.7,5.6-18.7,5.6a26.6,26.6,0,0,0-.2,3.1,9.1,9.1,0,0,0,8.9,9.4c6.6-.1,9.9-3.5,11.7-3.5s2.9,1.7,2.9,3.4-6.7,7.3-16.1,7.3C443.8,331.3,433.6,323.4,433.6,309.3Zm34-22.9c0-.8-.7-1.4-1.8-1.4-3.1,0-16.2,16.6-16.2,20.2C454.9,305.2,467.6,294.2,467.6,286.4Z" transform="translate(-2.1 -7)" style="fill:#039be5;stroke:#039be5;stroke-miterlimit:10;stroke-width:20px"/><path d="M262.3,304c0-3.5,2.9-7,6-8.5S311,271.6,311,247.4c0-6.3-8.1-11.3-17.4-11.3-36.3.1-66.3,22.2-66.3,22.2s1.9,4.2,1.9,7.1-4.1,4.6-12.5,11.4-10,10-12.2,10-8.9-4.5-8.9-7.6,3.1-17.5,35.9-34.6c27.6-14.5,44.7-17.6,61.3-17.6s31.1,16.6,31.1,30.5c0,28.7-48.7,45-48.7,45,3.8,13.9,14,23.8,23.2,23.8,12.7-.1,25.3-14.6,30.9-22.4,2.3-3.3,3-4.4,3.6-4.4s3.3,3.3,3.3,5.4-.6,3.7-3.4,7.4c-5.1,6.8-22.9,27.8-41.7,27.8C277.7,340.1,262.3,322.7,262.3,304Zm16.3-51.1c0,2.8-10.7,17-24.7,42.7s-16.1,36.9-17.2,42.8c-.2,1.6-.8,2.6-3.1,2.6s-10.5-5.4-10.5-13,4.4-18.8,18.1-42.2S259.8,256,264.8,246c.9-1.9,1.9-2.3,3.5-2.3S278.6,250,278.6,252.9Z" transform="translate(-2.1 -7)" style="fill:#3c4d57"/><path d="M363.4,303.9c2.3-3.3,3-4.4,3.7-4.4s3.2,3.3,3.2,5.3-.5,3.7-3.4,7.4c-5.1,6.9-14.5,19.3-23.5,19.4s-16.2-6.9-16.2-17.3,7.4-23.5,12-35.3c1.7-4.6,3.1-7.3,5-7.3,3.5,0,11.5,3.1,11.5,6s-1.6,4.8-4.3,10.4c-9.9,20.6-11.6,25-11.6,30.7,0,3.6,1.7,5.4,3.8,5.4C348,324.2,357.9,311.7,363.4,303.9Zm5.7-53c0,4.2-4.5,11.7-9.5,11.8s-8-3.3-8-7.8,5.5-11,9.2-11S369.1,246.6,369.1,250.9Z" transform="translate(-2.1 -7)" style="fill:#3c4d57"/><path d="M434.7,303.8c2.3-3.3,3-4.4,3.6-4.4s3.3,3.3,3.3,5.4-.5,3.7-3.4,7.4c-5.1,6.8-14.2,20.6-23.3,20.7-4.5,0-6.5-2.1-6.5-2.1-5.3,0-11.8-6.8-11.8-17.5-3.4,7.5-11.9,18.6-20,18.6s-15.9-3.9-15.9-17.1c0-16.1,21-43.5,30.2-43.6s16.4,4.6,16.7,11.3c.7-1.8,15.8-36.2,19.6-36.2s10.2,3.9,10.2,6.3-1.9,3.5-5.3,10-20.3,42.2-20.3,56c0,4.3,1.2,5.5,3.1,5.5C419.2,324.1,429.1,311.6,434.7,303.8Zm-59.6,16.8c0,1.5.2,3,2,3,5.6,0,15.5-15,19.5-23.2,3.1-6.3,5.8-14.6,5.8-17s-.8-3.3-2.1-3.3C393.1,280.1,375.1,304.7,375.1,320.6Z" transform="translate(-2.1 -7)" style="fill:#3c4d57"/><path d="M433.6,309.3c0-14.3,16.8-36.1,26.6-36.1,6.5,0,16.6,6,16.6,11.9s-2.7,13.9-9.9,20.9c-5.7,5.6-18.7,5.6-18.7,5.6a26.6,26.6,0,0,0-.2,3.1,9.1,9.1,0,0,0,8.9,9.4c6.6-.1,9.9-3.5,11.7-3.5s2.9,1.7,2.9,3.4-6.7,7.3-16.1,7.3C443.8,331.3,433.6,323.4,433.6,309.3Zm34-22.9c0-.8-.7-1.4-1.8-1.4-3.1,0-16.2,16.6-16.2,20.2C454.9,305.2,467.6,294.2,467.6,286.4Z" transform="translate(-2.1 -7)" style="fill:#3c4d57"/></g><g id="Melbourne"><path d="M197,172.6c2.3-3.3,3-4.4,3.6-4.4s3.3,3.3,3.3,5.3-.5,3.7-3.4,7.4c-5.1,6.9-20,26.2-33.5,26.2-9.7,0-18.2-9.6-18.2-19.3,0-20.9,26.9-54.5,26.9-61.1,0-1.8-.8-2.5-1.7-2.5-8.4,0-32.8,26.5-44.6,44.5s-12.9,27.9-16,27.9-10.6-5-10.6-10.7,5.4-18.3,16.2-38.3c11.5-21.7,21-35.2,21-42,0-2.6-.9-3.4-2.8-3.4-8.4,0-42.1,43.3-56.5,67.5-7.9,13.4-13.5,23.3-16.2,30s-3.3,7.4-5.3,7.4-11.1-4.1-11.1-8.4,9.5-25.2,22.9-50.4,19.9-39.7,19.9-42.9a3.2,3.2,0,0,0-3.2-3.3c-9.1,0-30.1,27.5-30.1,27.5a6.8,6.8,0,0,1,2.7,5.7c0,1.9-3.4,6.2-8,11.8-7.7,9.4-9.4,13-12.3,13s-8.8-6.8-8.8-9.3c.1-7.3,36.1-55.2,55-55.2,9.9-.1,16.4,10.1,16.4,15.6,0,10.1-8.8,26.7-8.8,26.7s28.5-42.4,42.8-42.4c10.3,0,16.9,8.8,16.9,15.9,0,10-14.2,33.7-15.3,35.5,2-2.9,22.6-30.7,35.8-30.7,8.8-.1,15.1,8.7,15.1,14.9,0,12-23.4,40.1-23.4,59.7,0,3.4,1.3,6.3,5,6.3C179.2,197.1,191.4,180.4,197,172.6Z" transform="translate(-2.1 -7)" style="fill:#039be5;stroke:#039be5;stroke-miterlimit:10;stroke-width:20px"/><path d="M195.9,178c0-14.2,16.8-36,26.6-36,6.5,0,16.6,6,16.6,11.9s-4,13.6-11.2,20.6-17.4,5.9-17.4,5.9a26.6,26.6,0,0,0-.2,3.1,9,9,0,0,0,8.9,9.3c9.2,0,19.9-12.5,25.5-20.3,2.3-3.3,3-4.4,3.6-4.4s3.3,3.3,3.3,5.4-.5,3.7-3.4,7.4c-5.1,6.8-16.4,19.7-30.6,19.7C207.8,200.6,195.9,192.1,195.9,178Zm34-22.9c0-.8-.7-1.3-1.7-1.3-3.2,0-16.3,16.6-16.3,20.1C217.2,173.9,229.9,159.5,229.9,155.1Z" transform="translate(-2.1 -7)" style="fill:#039be5;stroke:#039be5;stroke-miterlimit:10;stroke-width:20px"/><path d="M241.8,184.6c0-14.7,26.3-68.5,26.3-71.8,0-.8.7-1,1.5-1,2.9,0,9.9,5.9,9.9,8.5s-7.2,17.8-14.8,34.4-10.3,27.4-10.3,34.1c0,1.5,1,2.9,2.3,2.9s11.6-11.4,17.1-19.2c2.3-3.3,3-4.4,3.7-4.4s3.2,3.3,3.2,5.3-.5,3.7-3.4,7.4c-5.1,6.9-14.5,19.1-22.3,19.1S241.8,192.9,241.8,184.6Z" transform="translate(-2.1 -7)" style="fill:#039be5;stroke:#039be5;stroke-miterlimit:10;stroke-width:20px"/><path d="M309.2,119.7c0,1.9-9.1,15.1-15.7,32.2s-8.3,23.2-8.3,23.2c6.2-7.7,20.9-33.7,32.8-33.7s16.4,8.2,16.4,16.1-4.8,19.6-11.3,27.8c7.9-1.6,14-6.6,18.5-12.9,2.3-3.3,2.9-4.4,3.6-4.4s3.3,3.3,3.3,5.4-.7,3.4-3.6,7.4c-5,7-15.3,12.9-29.2,12.9H315c-4.7,3.8-9.8,6.2-14.2,6.2-9.2,0-17-7.1-17-7.1s-2.4,6.5-5,6.5-8.8-3.1-8.8-8.9,4.9-26.4,11.5-42.4,14.9-35.1,17.6-35.1S309.2,117.8,309.2,119.7Zm-22.7,66.7s5.3,3.5,9.3,3.5a9.9,9.9,0,0,0,4.7-1.5c-.4-.5-.5-.7-.5-1.1,0-3.5,3.1-6.9,5.9-6.9a4.6,4.6,0,0,1,1.8.7c6.9-9.3,12.3-23.7,12.3-30.7a2.5,2.5,0,0,0-2.4-2.5C311.3,147.9,286.5,186.4,286.5,186.4Z" transform="translate(-2.1 -7)" style="fill:#039be5;stroke:#039be5;stroke-miterlimit:10;stroke-width:20px"/><path d="M383.4,148.1c1,0,6.7,1.5,6.7,10.9,0,6.9-4.2,18.6-10.9,28,9-1.2,14.2-7.5,19.3-14.6,2.3-3.3,2.9-4.4,3.6-4.4s3.3,3.3,3.3,5.3-.7,3.4-3.6,7.4c-5,7-14.6,15-28.5,15h-1.8c-4.3,3.5-9.2,6-14.2,6-9.2,0-18-9-18-19.5,0-14,17.3-41.8,28.9-41.9C372.4,140.3,381.5,144.9,383.4,148.1ZM354,187.2c0,4,2.2,5.6,4.1,5.6a7.4,7.4,0,0,0,4.3-1.6,4.8,4.8,0,0,1-.4-1.5c0-2.5,3.3-5.9,5.4-5.9a3.1,3.1,0,0,1,1.5.4c6-8.7,11-21.5,11-27.3,0-3-1.4-4.8-3.7-4.8C368.4,152.1,354,174.7,354,187.2Z" transform="translate(-2.1 -7)" style="fill:#039be5;stroke:#039be5;stroke-miterlimit:10;stroke-width:20px"/><path d="M432.1,184.7c-3.8,6-10.7,14.8-18.3,14.8S396,194.6,396,182.9c0-14.1,13.2-34.8,16-41.5.8-1.9,1.8-2.7,2.6-2.7s11.4,4.6,11.4,7.8-.7,4.1-6.4,16-8.8,18.8-8.8,25.7c0,2.2,1.2,3.7,2.6,3.7s9.7-5.6,18.4-18.3,13.9-26.3,14.8-29.5,1.3-2.6,2.7-2.6,10.4,5.1,10.4,7.7-1.1,7-7.2,20.4-6.8,15.6-6.8,18.1a3.4,3.4,0,0,0,3.7,3.4c5.4,0,14.9-11,20.5-18.8,2.3-3.3,2.9-4.4,3.6-4.4s3.3,3.3,3.3,5.4-.6,3.7-3.4,7.4c-5.2,6.8-15.2,18.6-24.3,18.6S432.1,191.5,432.1,184.7Z" transform="translate(-2.1 -7)" style="fill:#039be5;stroke:#039be5;stroke-miterlimit:10;stroke-width:20px"/><path d="M471.2,181.5c-1.5,0-3.6-3-3.6-4.7s1.5-3.1,2.3-4.5c9.6-15.5,13.9-22.7,13.9-24.8s-3.6-5.1-3.6-9.2,7.1-19.7,10.5-19.7,11.5,3.7,11.5,7.7-7.5,17.8-7.5,22.3,12.8,6.3,12.8,17.6c0,5-7.8,16.8-7.8,23.1,0,2,1.2,3.2,2.4,3.2,4.3,0,14.2-12.4,19.8-20.2,2.3-3.3,3-4.4,3.6-4.4s3.3,3.2,3.3,5.3-.5,3.7-3.4,7.4c-5.1,6.9-14.3,19.2-23.4,19.2-6.1,0-15.2-6.4-15.2-16s7.6-20.3,7.6-24-4.6-6.1-4.6-6.1-3.8,8.5-14,23.4C474.1,179.7,472.7,181.5,471.2,181.5Z" transform="translate(-2.1 -7)" style="fill:#039be5;stroke:#039be5;stroke-miterlimit:10;stroke-width:20px"/><path d="M554.8,187.4c0-10.7,16.4-31.9,16.4-35.6a1.9,1.9,0,0,0-1.9-1.8c-1.6,0-7.6,5.1-14.1,13-4,5-8.4,11.6-12.6,17.4-11,15.5-9.7,19.8-12.2,19.8s-13.3-4-13.3-10.5c0-11.8,15.9-43.5,16.7-48,.1-1,.7-1.1,2.3-1.1,4.9,0,11.3,3.4,11.3,7.2s-13,26.1-13,31.6c0,0,8.6-12,17.3-22s16.1-16.3,20.7-16.3c7.1,0,13.8,4.8,13.8,9.3,0,6.3-16.3,29.6-16.3,41.5,0,2.2,1.2,3.2,2.4,3.2,3.9,0,14.6-15.1,20.2-22.9,2.3-3.3,3-4.4,3.6-4.4s3.3,3.3,3.3,5.3-.6,3.7-3.4,7.4c-5.1,6.9-15.6,21-24,21S554.8,195.8,554.8,187.4Z" transform="translate(-2.1 -7)" style="fill:#039be5;stroke:#039be5;stroke-miterlimit:10;stroke-width:20px"/><path d="M591.3,177.7c0-14.3,16.8-36.1,26.5-36.1,6.5,0,16.7,6,16.7,11.9s-2.7,13.9-9.9,20.8-18.7,5.7-18.7,5.7a17.9,17.9,0,0,0-.3,3.1,9,9,0,0,0,9,9.3c6.6,0,9.9-3.4,11.6-3.4a3.5,3.5,0,0,1,3,3.4c0,1.8-6.8,7.3-16.1,7.3C601.4,199.7,591.3,191.8,591.3,177.7Zm34-22.9c0-.9-.7-1.4-1.8-1.4-3.1,0-16.3,16.6-16.3,20.1C612.5,173.5,625.3,162.6,625.3,154.8Z" transform="translate(-2.1 -7)" style="fill:#039be5;stroke:#039be5;stroke-miterlimit:10;stroke-width:20px"/><path d="M197,172.6c2.3-3.3,3-4.4,3.6-4.4s3.3,3.3,3.3,5.3-.5,3.7-3.4,7.4c-5.1,6.9-20,26.2-33.5,26.2-9.7,0-18.2-9.6-18.2-19.3,0-20.9,26.9-54.5,26.9-61.1,0-1.8-.8-2.5-1.7-2.5-8.4,0-32.8,26.5-44.6,44.5s-12.9,27.9-16,27.9-10.6-5-10.6-10.7,5.4-18.3,16.2-38.3c11.5-21.7,21-35.2,21-42,0-2.6-.9-3.4-2.8-3.4-8.4,0-42.1,43.3-56.5,67.5-7.9,13.4-13.5,23.3-16.2,30s-3.3,7.4-5.3,7.4-11.1-4.1-11.1-8.4,9.5-25.2,22.9-50.4,19.9-39.7,19.9-42.9a3.2,3.2,0,0,0-3.2-3.3c-9.1,0-30.1,27.5-30.1,27.5a6.8,6.8,0,0,1,2.7,5.7c0,1.9-3.4,6.2-8,11.8-7.7,9.4-9.4,13-12.3,13s-8.8-6.8-8.8-9.3c.1-7.3,36.1-55.2,55-55.2,9.9-.1,16.4,10.1,16.4,15.6,0,10.1-8.8,26.7-8.8,26.7s28.5-42.4,42.8-42.4c10.3,0,16.9,8.8,16.9,15.9,0,10-14.2,33.7-15.3,35.5,2-2.9,22.6-30.7,35.8-30.7,8.8-.1,15.1,8.7,15.1,14.9,0,12-23.4,40.1-23.4,59.7,0,3.4,1.3,6.3,5,6.3C179.2,197.1,191.4,180.4,197,172.6Z" transform="translate(-2.1 -7)" style="fill:#3c4d57"/><path d="M195.9,178c0-14.2,16.8-36,26.6-36,6.5,0,16.6,6,16.6,11.9s-4,13.6-11.2,20.6-17.4,5.9-17.4,5.9a26.6,26.6,0,0,0-.2,3.1,9,9,0,0,0,8.9,9.3c9.2,0,19.9-12.5,25.5-20.3,2.3-3.3,3-4.4,3.6-4.4s3.3,3.3,3.3,5.4-.5,3.7-3.4,7.4c-5.1,6.8-16.4,19.7-30.6,19.7C207.8,200.6,195.9,192.1,195.9,178Zm34-22.9c0-.8-.7-1.3-1.7-1.3-3.2,0-16.3,16.6-16.3,20.1C217.2,173.9,229.9,159.5,229.9,155.1Z" transform="translate(-2.1 -7)" style="fill:#3c4d57"/><path d="M241.8,184.6c0-14.7,26.3-68.5,26.3-71.8,0-.8.7-1,1.5-1,2.9,0,9.9,5.9,9.9,8.5s-7.2,17.8-14.8,34.4-10.3,27.4-10.3,34.1c0,1.5,1,2.9,2.3,2.9s11.6-11.4,17.1-19.2c2.3-3.3,3-4.4,3.7-4.4s3.2,3.3,3.2,5.3-.5,3.7-3.4,7.4c-5.1,6.9-14.5,19.1-22.3,19.1S241.8,192.9,241.8,184.6Z" transform="translate(-2.1 -7)" style="fill:#3c4d57"/><path d="M309.2,119.7c0,1.9-9.1,15.1-15.7,32.2s-8.3,23.2-8.3,23.2c6.2-7.7,20.9-33.7,32.8-33.7s16.4,8.2,16.4,16.1-4.8,19.6-11.3,27.8c7.9-1.6,14-6.6,18.5-12.9,2.3-3.3,2.9-4.4,3.6-4.4s3.3,3.3,3.3,5.4-.7,3.4-3.6,7.4c-5,7-15.3,12.9-29.2,12.9H315c-4.7,3.8-9.8,6.2-14.2,6.2-9.2,0-17-7.1-17-7.1s-2.4,6.5-5,6.5-8.8-3.1-8.8-8.9,4.9-26.4,11.5-42.4,14.9-35.1,17.6-35.1S309.2,117.8,309.2,119.7Zm-22.7,66.7s5.3,3.5,9.3,3.5a9.9,9.9,0,0,0,4.7-1.5c-.4-.5-.5-.7-.5-1.1,0-3.5,3.1-6.9,5.9-6.9a4.6,4.6,0,0,1,1.8.7c6.9-9.3,12.3-23.7,12.3-30.7a2.5,2.5,0,0,0-2.4-2.5C311.3,147.9,286.5,186.4,286.5,186.4Z" transform="translate(-2.1 -7)" style="fill:#3c4d57"/><path d="M383.4,148.1c1,0,6.7,1.5,6.7,10.9,0,6.9-4.2,18.6-10.9,28,9-1.2,14.2-7.5,19.3-14.6,2.3-3.3,2.9-4.4,3.6-4.4s3.3,3.3,3.3,5.3-.7,3.4-3.6,7.4c-5,7-14.6,15-28.5,15h-1.8c-4.3,3.5-9.2,6-14.2,6-9.2,0-18-9-18-19.5,0-14,17.3-41.8,28.9-41.9C372.4,140.3,381.5,144.9,383.4,148.1ZM354,187.2c0,4,2.2,5.6,4.1,5.6a7.4,7.4,0,0,0,4.3-1.6,4.8,4.8,0,0,1-.4-1.5c0-2.5,3.3-5.9,5.4-5.9a3.1,3.1,0,0,1,1.5.4c6-8.7,11-21.5,11-27.3,0-3-1.4-4.8-3.7-4.8C368.4,152.1,354,174.7,354,187.2Z" transform="translate(-2.1 -7)" style="fill:#3c4d57"/><path d="M432.1,184.7c-3.8,6-10.7,14.8-18.3,14.8S396,194.6,396,182.9c0-14.1,13.2-34.8,16-41.5.8-1.9,1.8-2.7,2.6-2.7s11.4,4.6,11.4,7.8-.7,4.1-6.4,16-8.8,18.8-8.8,25.7c0,2.2,1.2,3.7,2.6,3.7s9.7-5.6,18.4-18.3,13.9-26.3,14.8-29.5,1.3-2.6,2.7-2.6,10.4,5.1,10.4,7.7-1.1,7-7.2,20.4-6.8,15.6-6.8,18.1a3.4,3.4,0,0,0,3.7,3.4c5.4,0,14.9-11,20.5-18.8,2.3-3.3,2.9-4.4,3.6-4.4s3.3,3.3,3.3,5.4-.6,3.7-3.4,7.4c-5.2,6.8-15.2,18.6-24.3,18.6S432.1,191.5,432.1,184.7Z" transform="translate(-2.1 -7)" style="fill:#3c4d57"/><path d="M471.2,181.5c-1.5,0-3.6-3-3.6-4.7s1.5-3.1,2.3-4.5c9.6-15.5,13.9-22.7,13.9-24.8s-3.6-5.1-3.6-9.2,7.1-19.7,10.5-19.7,11.5,3.7,11.5,7.7-7.5,17.8-7.5,22.3,12.8,6.3,12.8,17.6c0,5-7.8,16.8-7.8,23.1,0,2,1.2,3.2,2.4,3.2,4.3,0,14.2-12.4,19.8-20.2,2.3-3.3,3-4.4,3.6-4.4s3.3,3.2,3.3,5.3-.5,3.7-3.4,7.4c-5.1,6.9-14.3,19.2-23.4,19.2-6.1,0-15.2-6.4-15.2-16s7.6-20.3,7.6-24-4.6-6.1-4.6-6.1-3.8,8.5-14,23.4C474.1,179.7,472.7,181.5,471.2,181.5Z" transform="translate(-2.1 -7)" style="fill:#3c4d57"/><path d="M554.8,187.4c0-10.7,16.4-31.9,16.4-35.6a1.9,1.9,0,0,0-1.9-1.8c-1.6,0-7.6,5.1-14.1,13-4,5-8.4,11.6-12.6,17.4-11,15.5-9.7,19.8-12.2,19.8s-13.3-4-13.3-10.5c0-11.8,15.9-43.5,16.7-48,.1-1,.7-1.1,2.3-1.1,4.9,0,11.3,3.4,11.3,7.2s-13,26.1-13,31.6c0,0,8.6-12,17.3-22s16.1-16.3,20.7-16.3c7.1,0,13.8,4.8,13.8,9.3,0,6.3-16.3,29.6-16.3,41.5,0,2.2,1.2,3.2,2.4,3.2,3.9,0,14.6-15.1,20.2-22.9,2.3-3.3,3-4.4,3.6-4.4s3.3,3.3,3.3,5.3-.6,3.7-3.4,7.4c-5.1,6.9-15.6,21-24,21S554.8,195.8,554.8,187.4Z" transform="translate(-2.1 -7)" style="fill:#3c4d57"/><path d="M591.3,177.7c0-14.3,16.8-36.1,26.5-36.1,6.5,0,16.7,6,16.7,11.9s-2.7,13.9-9.9,20.8-18.7,5.7-18.7,5.7a17.9,17.9,0,0,0-.3,3.1,9,9,0,0,0,9,9.3c6.6,0,9.9-3.4,11.6-3.4a3.5,3.5,0,0,1,3,3.4c0,1.8-6.8,7.3-16.1,7.3C601.4,199.7,591.3,191.8,591.3,177.7Zm34-22.9c0-.9-.7-1.4-1.8-1.4-3.1,0-16.3,16.6-16.3,20.1C612.5,173.5,625.3,162.6,625.3,154.8Z" transform="translate(-2.1 -7)" style="fill:#3c4d57"/></g><g id="Ribbin"><polygon points="585 384.9 664.9 411.2 619.8 436.9 641.3 489 577.3 465.7 585 384.9" style="fill:#c04647;fill-rule:evenodd"/><polygon points="584.4 409.2 596.4 398.4 596.6 446.3 577.3 465.7 580.3 434.5 584.4 409.2" style="fill:#933636;fill-rule:evenodd"/><polygon points="79.9 384.9 0 411.2 45.1 436.9 23.7 489 87.6 465.7 79.9 384.9" style="fill:#c04647;fill-rule:evenodd"/><polygon points="80.5 409.2 68.5 398.4 68.3 446.3 87.6 465.7 84.6 434.5 80.5 409.2" style="fill:#933636;fill-rule:evenodd"/><path d="M58.4,380.8c184.2-33.1,367.6-30.1,550.4,2.1l-10.1,70.3c-183.4-32.4-344.9-31.3-528.3,0Z" transform="translate(-2.1 -7)" style="fill:#d74f4e;fill-rule:evenodd"/><g id="Date"><g style="opacity:0.30000000000000004;mix-blend-mode:multiply"><path d="M173.2,390.9c4.3-.4,5-2.9,5.6-5.7l3.7-.4c1.4,13.5,2.8,27.1,4.1,40.6l-5.4.6c-1.1-10.4-2.1-20.7-3.2-31l-4.3.4Z" transform="translate(-2.1 -7)"/><path d="M200.7,382.6c5.5-.5,8.6,3,9.1,9.5v1.3l-5.2.4-.2-1.6c-.2-3-1.3-4-3.1-3.8s-2.7,1.3-2.4,4.2,1.6,5.1,5.5,8.5,6.7,7.5,7.1,12.2c.6,6.5-1.9,10.4-7.2,10.9s-8.4-3-9-9.5l-.3-2.5,5.2-.5.3,3c.2,2.9,1.4,3.8,3.1,3.7s2.8-1.3,2.5-4.3-1.5-5-5.5-8.4-6.7-7.5-7.2-12.1C192.9,387.1,195.3,383.1,200.7,382.6Z" transform="translate(-2.1 -7)"/><path d="M214.6,381.9l17.2-1.3c.2,2.3.3,3.5.4,5.8l-5.8.4c.9,11.7,1.7,23.3,2.6,34.9l-5.4.5-2.7-35-5.8.5Z" transform="translate(-2.1 -7)"/><path d="M250.3,389.2c-.4-6.5,2.4-10.4,7.9-10.7s8.6,3.3,8.9,9.9l1,21.2c.3,6.5-2.4,10.4-7.7,10.6s-8.5-3.2-8.8-9.8C251.1,402,250.8,397.7,250.3,389.2Zm6.7,21.3c.2,3,1.3,4,3.1,3.9s2.7-1.2,2.6-4.1c-.5-8.9-.7-13.3-1.1-22.1-.2-2.9-1.3-3.9-3.1-3.9s-2.8,1.3-2.7,4.2C256.3,397.3,256.6,401.7,257,410.5Z" transform="translate(-2.1 -7)"/><path d="M291.3,403.2l.2,5.4c.2,6.6-2.4,10.4-7.8,10.6s-8.2-3.4-8.5-9.9c-.4-8.5-.6-12.8-.9-21.3-.3-6.5,2.4-10.4,7.9-10.6s8.4,3.5,8.6,10v4l-5.2.2-.2-4.4c-.1-2.9-1.2-4-3-3.9s-2.8,1.2-2.7,4.1c.4,8.8.5,13.2.9,22,.1,3,1.2,4,2.9,3.9s2.8-1.2,2.7-4.1l-.2-5.8Z" transform="translate(-2.1 -7)"/><path d="M296.3,377.4l17.2-.4v5.9h-5.8c.3,11.7.5,23.3.8,35h-5.4l-.9-35-5.8.2Z" transform="translate(-2.1 -7)"/><path d="M319.7,386.7c-.1-6.5,2.9-10.3,8.3-10.3s8.5,3.7,8.5,10.2c.1,8.5.1,12.7.1,21.2,0,6.6-2.9,10.3-8.2,10.4s-8.3-3.7-8.4-10.2C319.9,399.5,319.8,395.2,319.7,386.7Zm5.8,21.6c0,2.9,1.1,4,2.8,4s2.9-1.1,2.8-4c0-8.8,0-13.3-.1-22.1,0-2.9-1.1-4-2.9-4s-2.9,1.2-2.9,4.1C325.3,395.1,325.4,399.5,325.5,408.3Z" transform="translate(-2.1 -7)"/><path d="M360.7,386.3v1.5c0,4.2-1.2,6.8-3.6,8.1h0c2.9,1.4,4,4.4,4,8.7v3.4c-.1,6.3-2.9,9.6-8.4,9.6h-8.5c0-13.6,0-27.2.1-40.8h8.4C358.4,376.9,360.8,380,360.7,386.3Zm-11-3.7v10.8h2.1c2.1,0,3.3-1.1,3.4-4.3v-2.3c0-2.9-.8-4.2-2.8-4.2Zm-.1,16.7v12.5h3.1c1.8.1,2.8-.9,2.8-4v-3.5c0-3.8-1-5-3.5-5Z" transform="translate(-2.1 -7)"/><path d="M374,394.3l7.6.2-.2,5.8h-7.5c-.1,4.8-.1,7.1-.2,11.9l9.4.2c-.1,2.4-.1,3.5-.2,5.9l-14.8-.3c.2-13.7.5-27.3.7-40.9l15.2.3c-.1,2.4-.1,3.5-.2,5.9l-9.5-.2C374.2,387.5,374.1,389.8,374,394.3Z" transform="translate(-2.1 -7)"/><path d="M401.6,418.8c-.3-1.1-.4-1.7-.3-5s.1-3.9.2-6.5-.9-5.2-3.4-5.3h-1.9l-.5,16.6-5.5-.2c.5-13.6.9-27.2,1.3-40.8l8.4.3c5.8.2,8.1,3.4,7.9,9.7l-.2,3.2c-.1,4.2-1.4,6.8-3.9,8v.2c2.7,1.4,3.5,4.5,3.3,8.7-.1,2.6-.2,3.8-.3,6.3a13.2,13.2,0,0,0,.4,5Zm-4.7-35.2-.5,12.5h2.2c2,.1,3.3-.9,3.5-4.2v-4c.1-2.9-.7-4.3-2.7-4.3Z" transform="translate(-2.1 -7)"/><path d="M435.7,384.9c-1.8-.1-3,1-3.2,3.9l-.2,4.4-5.2-.3.2-4c.3-6.5,3.4-10.1,8.9-9.8s8,4.3,7.6,10.8-2.4,9.6-7.8,15.7c-3.5,3.9-4.5,5.7-4.6,7.9a2.7,2.7,0,0,0,0,.9l10.3.6c-.2,2.3-.3,3.5-.4,5.8l-15.7-.9c.1-2,.2-3,.3-5,.2-4.6,1.8-7.9,6.2-12.7s5.9-8.1,6.1-12.4S437.4,385,435.7,384.9Z" transform="translate(-2.1 -7)"/><path d="M450.8,390.4c.4-6.6,3.7-10.1,9.1-9.7s8.2,4.4,7.7,10.9c-.7,8.5-1,12.7-1.7,21.2-.5,6.5-3.7,10-9.1,9.6s-7.9-4.3-7.5-10.9Zm4,21.9c-.3,2.9.7,4.1,2.5,4.3s2.9-.9,3.1-3.8c.7-8.8,1-13.2,1.7-22,.2-2.9-.8-4.1-2.6-4.3s-2.9.9-3.2,3.8Z" transform="translate(-2.1 -7)"/><path d="M483.7,388.5c-1.8-.1-3,.9-3.3,3.8s-.2,2.6-.4,4.3l-5.2-.4.4-4c.5-6.5,3.7-10,9.1-9.5s8,4.5,7.3,11-2.6,9.6-8.2,15.5c-3.7,3.7-4.7,5.6-4.9,7.7v.9l10.3,1c-.3,2.3-.4,3.4-.6,5.8l-15.7-1.4.5-5c.4-4.6,2-7.9,6.6-12.5s6.1-7.9,6.5-12.3S485.4,388.7,483.7,388.5Z" transform="translate(-2.1 -7)"/><path d="M498.6,394.4c.7-6.5,4-9.9,9.5-9.4s8,4.6,7.3,11.1c-1,8.5-1.4,12.7-2.4,21.2-.7,6.5-4,9.8-9.3,9.3s-7.8-4.6-7.2-11.1C497.4,407.1,497.8,402.8,498.6,394.4Zm3.3,22.1c-.3,2.9.7,4.1,2.4,4.3s2.9-.8,3.3-3.7c.9-8.8,1.4-13.2,2.3-22,.3-2.9-.7-4.1-2.4-4.3s-3,.8-3.3,3.7C503.3,403.3,502.8,407.7,501.9,416.5Z" transform="translate(-2.1 -7)"/></g><path d="M167,384.6c4.3-.5,5-3,5.6-5.8l3.7-.4,4.2,40.7-5.4.5-3.3-31-4.3.5Z" transform="translate(-2.1 -7)" style="fill:#f7f8f9"/><path d="M194.6,376.2c5.4-.5,8.5,2.9,9.1,9.5v1.2l-5.2.5-.2-1.7c-.2-2.9-1.4-3.9-3.1-3.7s-2.7,1.3-2.4,4.2,1.6,5.1,5.5,8.4,6.8,7.6,7.2,12.2c.6,6.5-1.9,10.5-7.2,11s-8.5-3-9.1-9.5l-.3-2.5,5.2-.5.3,2.9c.3,2.9,1.5,3.9,3.2,3.7s2.7-1.3,2.5-4.2-1.6-5.1-5.5-8.4-6.9-7.5-7.3-12.1C186.7,380.7,189.2,376.7,194.6,376.2Z" transform="translate(-2.1 -7)" style="fill:#f7f8f9"/><path d="M208.5,375.4l17.3-1.4c.2,2.4.3,3.5.4,5.9l-5.8.4,2.7,34.9-5.5.4c-.9-11.6-1.8-23.2-2.8-34.9l-5.8.5Z" transform="translate(-2.1 -7)" style="fill:#f7f8f9"/><path d="M244.4,382.6c-.4-6.5,2.4-10.4,7.9-10.7s8.7,3.3,9,9.8c.4,8.5.6,12.7,1.1,21.2.3,6.5-2.4,10.4-7.8,10.7s-8.5-3.3-8.9-9.8C245.2,395.3,244.9,391.1,244.4,382.6Zm6.8,21.3c.2,2.9,1.3,4,3.1,3.9s2.8-1.3,2.6-4.2c-.5-8.8-.7-13.2-1.2-22-.2-3-1.3-4-3.1-3.9s-2.8,1.3-2.7,4.2C250.4,390.7,250.7,395.1,251.2,403.9Z" transform="translate(-2.1 -7)" style="fill:#f7f8f9"/><path d="M285.6,396.5l.2,5.4c.2,6.5-2.4,10.3-7.8,10.6s-8.3-3.4-8.6-10c-.3-8.4-.5-12.7-.9-21.2-.3-6.5,2.3-10.4,7.8-10.6s8.5,3.4,8.8,10v3.9l-5.3.2v-4.4c-.1-2.9-1.3-3.9-3.1-3.9s-2.8,1.3-2.7,4.2l1,22c.1,2.9,1.2,3.9,3,3.9s2.8-1.2,2.6-4.1l-.2-5.9Z" transform="translate(-2.1 -7)" style="fill:#f7f8f9"/><path d="M290.6,370.7c6.9-.3,10.3-.4,17.3-.5,0,2.3,0,3.5.1,5.8l-5.8.2c.2,11.6.5,23.3.8,35h-5.4c-.4-11.7-.7-23.3-1-35l-5.9.2C290.7,374.2,290.6,373,290.6,370.7Z" transform="translate(-2.1 -7)" style="fill:#f7f8f9"/><path d="M314.1,379.9c-.1-6.6,2.8-10.4,8.3-10.4s8.5,3.6,8.6,10.2c0,8.5.1,12.7.1,21.2.1,6.5-2.8,10.3-8.2,10.4s-8.3-3.7-8.4-10.2C314.3,392.6,314.2,388.4,314.1,379.9Zm5.9,21.5c0,3,1.1,4,2.9,4s2.8-1.1,2.7-4c0-8.9-.1-13.3-.2-22.1,0-2.9-1.1-4-2.9-4s-2.9,1.2-2.9,4.1C319.8,388.2,319.8,392.6,320,401.4Z" transform="translate(-2.1 -7)" style="fill:#f7f8f9"/><path d="M355.3,379.3v1.4c-.1,4.2-1.2,6.9-3.7,8.2h0c3,1.4,4.1,4.4,4.1,8.7v3.4c0,6.3-2.9,9.6-8.3,9.6h-8.6c0-13.6-.1-27.2-.1-40.9h8.5C352.9,369.9,355.3,373,355.3,379.3Zm-11.1-3.6v10.8h2.2c2,0,3.3-1.1,3.3-4.3v-2.3c0-2.9-.8-4.2-2.8-4.2Zm0,16.6v12.5h3.1c1.8,0,2.8-1,2.9-4.1v-3.5c0-3.8-1.1-5-3.6-5Z" transform="translate(-2.1 -7)" style="fill:#f7f8f9"/><path d="M368.7,387.3h7.6c-.1,2.4-.1,3.5-.2,5.9l-7.5-.2c-.1,4.8-.2,7.2-.2,12l9.4.2c0,2.3-.1,3.5-.1,5.8l-14.9-.3.6-40.8,15.2.3c0,2.3-.1,3.5-.1,5.8l-9.6-.2C368.8,380.4,368.7,382.7,368.7,387.3Z" transform="translate(-2.1 -7)" style="fill:#f7f8f9"/><path d="M396.4,411.6a17,17,0,0,1-.3-5c.1-2.6.1-3.8.2-6.4s-.9-5.2-3.4-5.3H391l-.5,16.6H385l1.2-40.9,8.4.3c5.8.2,8.2,3.4,7.9,9.7,0,1.3,0,1.9-.1,3.2-.1,4.2-1.4,6.8-3.9,8.1h0c2.7,1.4,3.5,4.5,3.3,8.8-.1,2.5-.1,3.7-.2,6.3a12.9,12.9,0,0,0,.4,4.9Zm-4.8-35.2c-.2,5.1-.3,7.6-.4,12.6h2.1c2.1,0,3.4-1,3.5-4.2l.2-4.1c.1-2.9-.8-4.2-2.7-4.3Z" transform="translate(-2.1 -7)" style="fill:#f7f8f9"/><path d="M430.5,377.7c-1.7-.1-2.9.9-3.1,3.8s-.1,2.7-.2,4.4l-5.3-.3.2-3.9c.4-6.6,3.4-10.2,8.9-9.8s8.1,4.2,7.7,10.7-2.3,9.7-7.8,15.7c-3.4,3.9-4.4,5.8-4.6,8v.8l10.4.6c-.2,2.4-.2,3.5-.4,5.8l-15.7-.8c.1-2,.1-3,.2-5,.3-4.6,1.8-8,6.2-12.7s5.9-8.1,6.2-12.5S432.3,377.8,430.5,377.7Z" transform="translate(-2.1 -7)" style="fill:#f7f8f9"/><path d="M445.7,383c.5-6.5,3.7-10,9.2-9.6s8.2,4.3,7.7,10.8c-.6,8.5-1,12.7-1.6,21.2-.5,6.5-3.7,10-9,9.6s-8.1-4.2-7.6-10.8C444.9,395.8,445.2,391.5,445.7,383Zm4.1,22c-.2,2.9.8,4.1,2.6,4.2s2.9-.9,3.1-3.8c.6-8.8,1-13.2,1.6-22,.2-2.9-.8-4.1-2.6-4.2s-3,.9-3.2,3.8Z" transform="translate(-2.1 -7)" style="fill:#f7f8f9"/><path d="M478.7,381.1c-1.7-.2-2.9.9-3.2,3.8l-.3,4.3-5.3-.4.3-4c.6-6.5,3.7-10,9.2-9.5s8,4.5,7.4,11-2.6,9.6-8.3,15.5c-3.6,3.7-4.6,5.6-4.8,7.7a2.7,2.7,0,0,0,0,.9l10.3.9-.5,5.8-15.8-1.3.4-5c.4-4.6,2.1-7.9,6.6-12.5s6.1-7.9,6.5-12.3S480.5,381.2,478.7,381.1Z" transform="translate(-2.1 -7)" style="fill:#f7f8f9"/><path d="M493.8,386.9c.6-6.5,4-9.9,9.5-9.4s8,4.6,7.3,11.1c-.9,8.5-1.3,12.7-2.2,21.2-.7,6.5-4,9.8-9.4,9.3s-7.9-4.5-7.2-11Zm3.4,22.1c-.3,2.9.7,4.1,2.4,4.3s3-.8,3.3-3.7c.9-8.8,1.3-13.2,2.2-22,.3-2.9-.7-4.1-2.4-4.3s-3,.9-3.3,3.8C498.5,395.8,498.1,400.2,497.2,409Z" transform="translate(-2.1 -7)" style="fill:#f7f8f9"/></g></g></g></g></svg>