<svg xmlns="http://www.w3.org/2000/svg" viewBox="0 0 930 80"><path fill="#21B5A3" d="M-3 0H998v80H-3z"/><path fill="#86E2D5" d="M87.9 24.5c0 3.3-2.7 6-6 6H19c-3.3 0-6-2.7-6-6s2.7-6 6-6h62.9c3.3 0 6 2.7 6 6zM242 51.5c0 3.3-2.7 6-6 6h-62.9c-3.3 0-6-2.7-6-6s2.7-6 6-6H236c3.4 0 6 2.7 6 6z"/><path fill="#25C1AE" d="M140.3 51.5c0 3.3-2.7 6-6 6H71.4c-3.3 0-6-2.7-6-6s2.7-6 6-6h62.9c3.3 0 6 2.7 6 6zM140.3 24.5c0 3.3-2.7 6-6 6H123c-3.3 0-6-2.7-6-6s2.7-6 6-6h11.2c3.4 0 6.1 2.7 6.1 6zM321.4 24.5c0 3.3-2.7 6-6 6h-62.9c-3.3 0-6-2.7-6-6s2.7-6 6-6h62.9c3.3 0 6 2.7 6 6zM373.8 51.5c0 3.3-2.7 6-6 6h-62.9c-3.3 0-6-2.7-6-6s2.7-6 6-6h62.9c3.3 0 6 2.7 6 6zM373.8 24.5c0 3.3-2.7 6-6 6h-11.2c-3.3 0-6-2.7-6-6s2.7-6 6-6h11.2c3.3 0 6 2.7 6 6z"/><path fill="#86E2D5" d="M219.1 24.5c0 3.3-2.7 6-6 6h-31.9c-3.3 0-6-2.7-6-6s2.7-6 6-6h31.9c3.3 0 6 2.7 6 6zM482.9 51.5c0-3.3-2.7-6-6-6H414c-3.3 0-6 2.7-6 6s2.7 6 6 6h62.9c3.3 0 6-2.7 6-6zM637.1 24.5c0-3.3-2.7-6-6-6h-62.9c-3.3 0-6 2.7-6 6s2.7 6 6 6h62.9c3.3 0 6-2.7 6-6z"/><path fill="#25C1AE" d="M535.3 24.5c0-3.3-2.7-6-6-6h-62.9c-3.3 0-6 2.7-6 6s2.7 6 6 6h62.9c3.3 0 6-2.7 6-6zM535.3 51.5c0-3.3-2.7-6-6-6h-11.2c-3.3 0-6 2.7-6 6s2.7 6 6 6h11.2c3.3 0 6-2.7 6-6z"/><path fill="#86E2D5" d="M424.5 24.5c0-3.3-2.7-6-6-6h-11.2c-3.3 0-6 2.7-6 6s2.7 6 6 6h11.2c3.3 0 6-2.7 6-6z"/><path fill="#25C1AE" d="M716.4 51.5c0-3.3-2.7-6-6-6h-62.9c-3.3 0-6 2.7-6 6s2.7 6 6 6h62.9c3.4 0 6-2.7 6-6zM768.8 24.5c0-3.3-2.7-6-6-6H700c-3.3 0-6 2.7-6 6s2.7 6 6 6h62.9c3.3 0 5.9-2.7 5.9-6zM768.8 51.5c0-3.3-2.7-6-6-6h-11.2c-3.3 0-6 2.7-6 6s2.7 6 6 6h11.2c3.4 0 6-2.7 6-6z"/><path fill="#86E2D5" d="M614.1 51.5c0-3.3-2.7-6-6-6h-31.9c-3.3 0-6 2.7-6 6s2.7 6 6 6h31.9c3.4 0 6-2.7 6-6zM865.1 24.5c0 3.3-2.7 6-6 6h-62.9c-3.3 0-6-2.7-6-6s2.7-6 6-6h62.9c3.3 0 6 2.7 6 6z"/><path fill="#25C1AE" d="M917.5 51.5c0 3.3-2.7 6-6 6h-62.9c-3.3 0-6-2.7-6-6s2.7-6 6-6h62.9c3.3 0 6 2.7 6 6zM917.5 24.5c0 3.3-2.7 6-6 6h-11.2c-3.3 0-6-2.7-6-6s2.7-6 6-6h11.2c3.3 0 6 2.7 6 6z"/><path fill="#86E2D5" d="M813.5 51.5c0 3.3-2.7 6-6 6h-11.2c-3.3 0-6-2.7-6-6s2.7-6 6-6h11.2c3.3 0 6 2.7 6 6zM56.9 51.5c0 3.3-2.7 6-6 6H19c-3.3 0-6-2.7-6-6s2.7-6 6-6h31.9c3.3 0 6 2.7 6 6z"/></svg>