<?xml version="1.0" encoding="utf-8"?>
<!-- Generator: Adobe Illustrator 24.1.1, SVG Export Plug-In . SVG Version: 6.00 Build 0)  -->
<svg version="1.1" id="Layer_1" xmlns="http://www.w3.org/2000/svg" xmlns:xlink="http://www.w3.org/1999/xlink" x="0px" y="0px"
	 width="930px" height="80px" viewBox="0 0 930 80" style="enable-background:new 0 0 930 80;" xml:space="preserve">
<path style="fill:#21B5A3;" d="M0,0h930v80H0V0z"/>
<path style="fill:#86E2D5;" d="M87.9,24.5c0,3.3-2.7,6-6,6H19c-3.3,0-6-2.7-6-6s2.7-6,6-6h62.9C85.2,18.5,87.9,21.2,87.9,24.5z
	 M242,51.5c0,3.3-2.7,6-6,6h-62.9c-3.3,0-6-2.7-6-6s2.7-6,6-6H236C239.4,45.5,242,48.2,242,51.5z"/>
<path style="fill:#25C1AE;" d="M140.3,51.5c0,3.3-2.7,6-6,6H71.4c-3.3,0-6-2.7-6-6s2.7-6,6-6h62.9C137.6,45.5,140.3,48.2,140.3,51.5
	z M140.3,24.5c0,3.3-2.7,6-6,6H123c-3.3,0-6-2.7-6-6s2.7-6,6-6h11.2C137.6,18.5,140.3,21.2,140.3,24.5z M321.4,24.5c0,3.3-2.7,6-6,6
	h-62.9c-3.3,0-6-2.7-6-6s2.7-6,6-6h62.9C318.7,18.5,321.4,21.2,321.4,24.5z M373.8,51.5c0,3.3-2.7,6-6,6h-62.9c-3.3,0-6-2.7-6-6
	s2.7-6,6-6h62.9C371.1,45.5,373.8,48.2,373.8,51.5z M373.8,24.5c0,3.3-2.7,6-6,6h-11.2c-3.3,0-6-2.7-6-6s2.7-6,6-6h11.2
	C371.1,18.5,373.8,21.2,373.8,24.5z"/>
<path style="fill:#86E2D5;" d="M219.1,24.5c0,3.3-2.7,6-6,6h-31.9c-3.3,0-6-2.7-6-6s2.7-6,6-6h31.9
	C216.4,18.5,219.1,21.2,219.1,24.5z M482.9,51.5c0-3.3-2.7-6-6-6H414c-3.3,0-6,2.7-6,6s2.7,6,6,6h62.9
	C480.2,57.5,482.9,54.8,482.9,51.5z M637.1,24.5c0-3.3-2.7-6-6-6h-62.9c-3.3,0-6,2.7-6,6s2.7,6,6,6h62.9
	C634.4,30.5,637.1,27.8,637.1,24.5z"/>
<path style="fill:#25C1AE;" d="M535.3,24.5c0-3.3-2.7-6-6-6h-62.9c-3.3,0-6,2.7-6,6s2.7,6,6,6h62.9
	C532.6,30.5,535.3,27.8,535.3,24.5z M535.3,51.5c0-3.3-2.7-6-6-6h-11.2c-3.3,0-6,2.7-6,6s2.7,6,6,6h11.2
	C532.6,57.5,535.3,54.8,535.3,51.5z"/>
<path style="fill:#86E2D5;" d="M424.5,24.5c0-3.3-2.7-6-6-6h-11.2c-3.3,0-6,2.7-6,6s2.7,6,6,6h11.2
	C421.8,30.5,424.5,27.8,424.5,24.5z"/>
<path style="fill:#25C1AE;" d="M716.4,51.5c0-3.3-2.7-6-6-6h-62.9c-3.3,0-6,2.7-6,6s2.7,6,6,6h62.9
	C713.8,57.5,716.4,54.8,716.4,51.5z M768.8,24.5c0-3.3-2.7-6-6-6H700c-3.3,0-6,2.7-6,6s2.7,6,6,6h62.9
	C766.2,30.5,768.8,27.8,768.8,24.5L768.8,24.5z M768.8,51.5c0-3.3-2.7-6-6-6h-11.2c-3.3,0-6,2.7-6,6s2.7,6,6,6h11.2
	C766.2,57.5,768.8,54.8,768.8,51.5z"/>
<path style="fill:#86E2D5;" d="M614.1,51.5c0-3.3-2.7-6-6-6h-31.9c-3.3,0-6,2.7-6,6s2.7,6,6,6h31.9
	C611.5,57.5,614.1,54.8,614.1,51.5z M865.1,24.5c0,3.3-2.7,6-6,6h-62.9c-3.3,0-6-2.7-6-6s2.7-6,6-6h62.9
	C862.4,18.5,865.1,21.2,865.1,24.5z"/>
<path style="fill:#25C1AE;" d="M917.5,51.5c0,3.3-2.7,6-6,6h-62.9c-3.3,0-6-2.7-6-6s2.7-6,6-6h62.9
	C914.8,45.5,917.5,48.2,917.5,51.5z M917.5,24.5c0,3.3-2.7,6-6,6h-11.2c-3.3,0-6-2.7-6-6s2.7-6,6-6h11.2
	C914.8,18.5,917.5,21.2,917.5,24.5z"/>
<path style="fill:#86E2D5;" d="M813.5,51.5c0,3.3-2.7,6-6,6h-11.2c-3.3,0-6-2.7-6-6s2.7-6,6-6h11.2
	C810.8,45.5,813.5,48.2,813.5,51.5z M56.9,51.5c0,3.3-2.7,6-6,6H19c-3.3,0-6-2.7-6-6s2.7-6,6-6h31.9C54.2,45.5,56.9,48.2,56.9,51.5z
	"/>
</svg>
