<?xml version="1.0" encoding="iso-8859-1"?>
<!-- Generator: Adobe Illustrator 19.0.0, SVG Export Plug-In . SVG Version: 6.00 Build 0)  -->
<svg version="1.1" id="Capa_1" xmlns="http://www.w3.org/2000/svg" xmlns:xlink="http://www.w3.org/1999/xlink" x="0px" y="0px"
	 viewBox="0 0 480 480" style="enable-background:new 0 0 480 480;" xml:space="preserve">
<path style="fill:#F2BB80;" d="M376,375.86l41.728-47.944c7.253-8.16,6.517-20.655-1.644-27.908
	c-0.408-0.363-0.831-0.708-1.268-1.036c-8.333-6.251-20.087-4.959-26.864,2.952L352,343.86c-29.416,14.71-47.998,44.775-48,77.664
	v50.336h88l80-128v-136c0-11.046-8.954-20-20-20s-20,8.954-20,20v104L376,375.86z"/>
<circle style="fill:#4398D1;" cx="240" cy="167.86" r="160"/>
<path style="fill:#F2BB80;" d="M104,375.86l-41.728-47.944c-7.253-8.16-6.517-20.655,1.644-27.908
	c0.408-0.363,0.831-0.708,1.268-1.036c8.333-6.251,20.087-4.959,26.864,2.952L128,343.86c29.416,14.71,47.998,44.775,48,77.664
	v50.336H88l-80-128v-136c0-11.046,8.954-20,20-20s20,8.954,20,20v104L104,375.86z"/>
<g>
	<path style="fill:#E8A16D;" d="M104,383.86c-2.316,0.006-4.519-0.999-6.032-2.752L56.24,333.164
		c-3.011-3.233-2.831-8.295,0.402-11.307c3.233-3.011,8.295-2.831,11.307,0.402c0.123,0.132,0.242,0.269,0.356,0.409l41.728,47.944
		c2.898,3.335,2.545,8.388-0.79,11.286C107.788,383.162,105.927,383.858,104,383.86L104,383.86z"/>
	<path style="fill:#E8A16D;" d="M376,383.86c-4.418-0.003-7.997-3.588-7.994-8.006c0.001-1.927,0.698-3.788,1.962-5.242
		l41.728-47.944c2.785-3.43,7.824-3.952,11.253-1.166s3.952,7.824,1.166,11.253c-0.114,0.14-0.233,0.277-0.356,0.409l-41.728,47.944
		C380.519,382.86,378.316,383.866,376,383.86L376,383.86z"/>
</g>
<path style="fill:#3E8CC7;" d="M354.064,55.748c-42.24,125.6-138.528,191.496-226.312,226.056
	c63.038,61.88,164.305,60.941,226.185-2.097C414.958,217.544,415.015,117.98,354.064,55.748z"/>
<g>
	<path style="fill:#88B337;" d="M176,191.86h64v88l-40-16v-32l-24-8V191.86z"/>
	<path style="fill:#88B337;" d="M312,103.86l-32,40l24,24v64h32l40-56h-24v-72H312z"/>
	<path style="fill:#88B337;" d="M288,79.86l43.296-43.296C308.998,20.974,283.073,11.366,256,8.66v47.2L288,79.86z"/>
	<path style="fill:#88B337;" d="M136,159.86l40,32v-48h56v-40l-32-32v24h-32V25.116c-38.543,19.436-67.62,53.593-80.656,94.744H136
		V159.86z"/>
</g>
<path d="M383.12,172.196c-1.373-2.665-4.122-4.339-7.12-4.336h-16v-64c0-4.418-3.582-8-8-8h-40c-2.43-0.001-4.729,1.103-6.248,3
	l-32,40c-2.547,3.184-2.292,7.774,0.592,10.656L296,171.172v60.688c0,4.418,3.582,8,8,8h32c2.582-0.002,5.004-1.251,6.504-3.352
	l40-56C384.25,178.071,384.488,174.863,383.12,172.196L383.12,172.196z M331.88,223.86H312v-56c0-2.122-0.844-4.156-2.344-5.656
	l-18.936-18.936l25.12-31.408H344v64c0,4.418,3.582,8,8,8h8.456L331.88,223.86z"/>
<path d="M452,179.86c-15.464,0-28,12.536-28,28l0,0v88.8c-1.306-1.527-2.776-2.906-4.384-4.112
	c-11.719-8.743-28.204-6.937-37.752,4.136l-34.912,40.776c-31.4,16.254-51.07,48.707-50.952,84.064v50.336c0,4.418,3.582,8,8,8h88
	c2.758,0,5.322-1.421,6.784-3.76l80-128c0.795-1.271,1.216-2.741,1.216-4.24v-136C480,192.396,467.464,179.86,452,179.86L452,179.86
	z M464,341.564L387.56,463.86H312v-42.336c-0.085-29.872,16.813-57.196,43.576-70.464c0.955-0.48,1.805-1.144,2.504-1.952
	l35.936-41.944c4.047-4.69,11.03-5.458,16-1.76c5.202,3.896,6.26,11.272,2.364,16.474c-0.213,0.284-0.438,0.559-0.676,0.822
	l-41.728,47.952c-2.905,3.329-2.561,8.383,0.768,11.288s8.383,2.561,11.288-0.768l56-64c1.282-1.471,1.982-3.361,1.968-5.312v-104
	c0-6.627,5.373-12,12-12s12,5.373,12,12L464,341.564z"/>
<path d="M408,167.86c-0.049-57.045-29.061-110.162-77.032-141.032l-0.624-0.624l-0.152,0.152
	C251.959-23.372,148.226-0.264,98.498,77.97s-26.619,181.966,51.614,231.694s181.966,26.619,231.694-51.614
	C398.941,231.091,408.028,199.803,408,167.86z M264,17.948c19.315,3.074,37.847,9.881,54.56,20.04L287.248,69.3L264,51.86V17.948z
	 M160,38.86v57c0,4.418,3.582,8,8,8h32c4.418,0,8-3.582,8-8v-4.688l16,16v28.688h-48c-4.418,0-8,3.582-8,8v31.352l-24-19.2V119.86
	c0-4.418-3.582-8-8-8H98.824C110.91,81.626,132.346,56.048,160,38.86z M202.528,224.268L184,218.092V199.86h48v68.184l-24-9.6
	V231.86C208.001,228.415,205.796,225.356,202.528,224.268L202.528,224.268z M240,319.86
	c-83.66,0.287-151.712-67.299-151.999-150.959c-0.048-13.869,1.81-27.678,5.519-41.041H128v32c-0.001,2.43,1.103,4.729,3,6.248
	l37,29.6v28.152c-0.001,3.445,2.204,6.503,5.472,7.592L192,237.628v26.232c-0.001,3.274,1.992,6.218,5.032,7.432l40,16
	c2.464,0.987,5.257,0.687,7.456-0.8c2.199-1.49,3.515-3.975,3.512-6.632v-88c0-4.418-3.582-8-8-8h-56v-32h48c4.418,0,8-3.582,8-8
	v-40c0-2.122-0.844-4.156-2.344-5.656l-32-32c-3.125-3.124-8.19-3.123-11.314,0.002c-1.499,1.5-2.342,3.534-2.342,5.654v16h-16
	V30.18c20.026-9.406,41.875-14.295,64-14.32c2.704,0,5.336,0.264,8,0.408V55.86c0,2.518,1.186,4.889,3.2,6.4l32,24
	c3.185,2.388,7.641,2.071,10.456-0.744l38.4-38.4c66.787,50.691,79.835,145.926,29.143,212.713
	C332.437,297.724,287.574,319.945,240,319.86z"/>
<path d="M81.216,476.1c1.462,2.339,4.026,3.76,6.784,3.76h88c4.418,0,8-3.582,8-8v-50.336c0.118-35.357-19.552-67.81-50.952-84.064
	l-34.92-40.744c-9.546-11.072-26.027-12.878-37.744-4.136c-1.606,1.196-3.076,2.564-4.384,4.08v-88.8c0-15.464-12.536-28-28-28
	s-28,12.536-28,28v136c0,1.499,0.421,2.969,1.216,4.24L81.216,476.1z M16,207.86c0-6.627,5.373-12,12-12s12,5.373,12,12v104
	c-0.002,1.939,0.7,3.812,1.976,5.272l56,64c2.905,3.329,7.959,3.673,11.288,0.768c3.329-2.905,3.673-7.959,0.768-11.288l0,0
	l-41.784-48c-4.315-4.86-3.874-12.298,0.986-16.613c0.244-0.217,0.497-0.423,0.758-0.619c4.966-3.715,11.961-2.945,16,1.76
	l35.944,41.944c0.699,0.808,1.549,1.472,2.504,1.952c26.765,13.277,43.657,40.611,43.56,70.488v42.336H92.44L16,341.564V207.86z"/>
<g>
</g>
<g>
</g>
<g>
</g>
<g>
</g>
<g>
</g>
<g>
</g>
<g>
</g>
<g>
</g>
<g>
</g>
<g>
</g>
<g>
</g>
<g>
</g>
<g>
</g>
<g>
</g>
<g>
</g>
</svg>
