<svg xmlns="http://www.w3.org/2000/svg" viewBox="0 0 300 48"><ellipse fill="#72B522" cx="150.1" cy="20.4" rx="18.6" ry="4.4"/><ellipse fill="#72B522" cx="175.6" cy="29.7" rx="9.3" ry="3.4"/><ellipse fill="#67A31F" cx="111.4" cy="32" rx="7.2" ry="1.1"/><ellipse fill="#578A1A" cx="138.1" cy="32.5" rx="2.1" ry=".5"/><ellipse fill="#578A1A" cx="79.2" cy="36.9" rx="2.1" ry=".5"/><path fill="#248C0E" d="M94.3 48c-.6-1.8-1-3.8-1-5.8 0-7.9 5.2-14.6 12.3-16.9.9-12.3 11.2-21.9 23.7-21.9 8.7 0 16.4 4.7 20.5 11.7 2.3-1 4.9-1.6 7.6-1.6 10.6 0 19.2 8.6 19.2 19.2v.7c5.9 1.4 10.4 6.7 10.4 13 0 .5 0 1-.1 1.5H94.3z"/><path fill="#207D0C" d="M87.1 48c-.6-1.8-1-3.8-1-5.8 0-7.9 5.2-14.6 12.3-16.9.9-12.3 11.2-21.9 23.7-21.9 8.7 0 16.4 4.7 20.5 11.7 2.3-1 4.9-1.6 7.6-1.6 10.6 0 19.2 8.6 19.2 19.2v.7c5.9 1.4 10.4 6.7 10.4 13 0 .5 0 1-.1 1.5H87.1z"/><path fill="#25910F" d="M243.2 48c.5-1.4.8-2.9.8-4.4 0-6.1-4-11.2-9.5-12.9-.7-9.4-8.6-16.8-18.1-16.8-6.7 0-12.5 3.6-15.7 9-1.8-.8-3.7-1.2-5.8-1.2-8.1 0-14.7 6.6-14.7 14.7v.5c-4.6 1-8 5.1-8 10 0 .4 0 .8.1 1.1h70.9z"/><path fill="#22850D" d="M237.5 48c.5-1.4.8-2.9.8-4.4 0-6.1-4-11.2-9.5-12.9-.7-9.4-8.6-16.8-18.1-16.8-6.7 0-12.5 3.6-15.7 9-1.8-.8-3.7-1.2-5.8-1.2-8.1 0-14.7 6.6-14.7 14.7v.5c-4.6 1-8 5.1-8 10 0 .4 0 .8.1 1.1h70.9z"/><circle opacity=".28" fill="#165408" cx="110.4" cy="20.2" r="2.3"/><circle opacity=".28" fill="#165408" cx="126.6" cy="14.8" r="2.3"/><circle opacity=".28" fill="#165408" cx="136.7" cy="17.7" r="1.8"/><circle opacity=".28" fill="#165408" cx="136.1" cy="29.2" r="2.3"/><circle opacity=".2" fill="#165408" cx="204.1" cy="22.4" r="2.1"/><circle opacity=".2" fill="#165408" cx="219.8" cy="27.8" r="3.6"/><circle opacity=".2" fill="#165408" cx="193.4" cy="35.1" r="3.6"/><circle opacity=".2" fill="#165408" cx="206.2" cy="29.7" r="1.7"/><circle opacity=".2" fill="#165408" cx="190" cy="26.6" r="1.2"/><circle opacity=".2" fill="#165408" cx="215.8" cy="20.3" r="1.2"/><path fill="#25910F" d="M61 48c-.4-1.1-.6-2.4-.6-3.7 0-5 3.3-9.3 7.8-10.7.6-7.8 7.1-13.9 15-13.9 5.5 0 10.4 3 13 7.4 1.5-.6 3.1-1 4.8-1 6.7 0 12.2 5.4 12.2 12.2v.4c3.8.9 6.6 4.2 6.6 8.3 0 .3 0 .6-.1.9H61z"/><path fill="#22850D" d="M56.4 48c-.4-1.1-.6-2.4-.6-3.7 0-5 3.3-9.3 7.8-10.7.6-7.8 7.1-13.9 15-13.9 5.5 0 10.4 3 13 7.4 1.5-.6 3.1-1 4.8-1 6.7 0 12.2 5.4 12.2 12.2v.4c3.8.9 6.6 4.2 6.6 8.3 0 .3 0 .6-.1.9H56.4z"/><g fill="#165408"><circle opacity=".2" cx="84.6" cy="29.7" r="1.7"/><circle opacity=".2" cx="72.4" cy="34" r="2.8"/><circle opacity=".2" cx="93" cy="39.6" r="2.8"/><circle opacity=".2" cx="83" cy="35.4" r="1.3"/><circle opacity=".2" cx="95.6" cy="33" r=".9"/><circle opacity=".2" cx="75.6" cy="28.1" r=".9"/></g><circle opacity=".28" fill="#165408" cx="155.1" cy="22.2" r="2.3"/><circle opacity=".28" fill="#165408" cx="123.4" cy="24" r="1.1"/><circle opacity=".28" fill="#165408" cx="117.1" cy="11.6" r="1.1"/></svg>