<svg xmlns="http://www.w3.org/2000/svg" viewBox="0 0 370 370"><g fill="#FFD84F"><path d="M76.6 184.8c0 59.7 48.4 108.1 108.2 108.1 59.7 0 108.2-48.4 108.2-108.1 0-59.7-48.4-108.2-108.2-108.2-59.8 0-108.2 48.5-108.2 108.2zM166.8 21.1c0 9.9 8 17.9 17.9 17.9 9.9 0 17.9-8 17.9-17.9 0-9.9-8-17.9-17.9-17.9-9.9 0-17.9 8-17.9 17.9zM251.1 34.1c-4.9 8.6-2 19.5 6.6 24.4 8.6 4.9 19.5 2 24.4-6.6 4.9-8.6 2-19.5-6.6-24.4-8.5-4.9-19.5-2-24.4 6.6zM317.6 87.4c-8.6 4.9-11.5 15.9-6.6 24.4 4.9 8.6 15.9 11.5 24.5 6.5 8.6-4.9 11.5-15.9 6.5-24.4-4.9-8.5-15.9-11.4-24.4-6.5zM348.4 166.9c-9.9 0-17.9 8-17.9 17.9 0 9.9 8 17.9 17.9 17.9 9.9 0 17.9-8 17.9-17.9 0-9.9-8-17.9-17.9-17.9zM335.4 251.1c-8.6-4.9-19.5-2-24.5 6.5-4.9 8.6-2 19.5 6.6 24.4 8.6 4.9 19.5 2 24.4-6.5 5-8.5 2.1-19.4-6.5-24.4zM282.1 317.6c-4.9-8.6-15.9-11.5-24.4-6.6-8.6 4.9-11.5 15.9-6.6 24.4 4.9 8.6 15.9 11.5 24.4 6.5 8.6-4.8 11.5-15.7 6.6-24.3zM202.6 348.5c0-9.9-8-17.9-17.9-17.9-9.9 0-17.9 8-17.9 17.9 0 9.9 8 17.9 17.9 17.9 9.9 0 17.9-8 17.9-17.9zM118.4 335.5c4.9-8.6 2-19.5-6.5-24.4-8.6-4.9-19.5-2-24.5 6.5-4.9 8.6-2 19.5 6.6 24.4 8.5 5 19.4 2.1 24.4-6.5zM51.9 282.1c8.6-4.9 11.5-15.9 6.6-24.4-4.9-8.6-15.9-11.5-24.5-6.6s-11.5 15.9-6.5 24.4c4.9 8.6 15.8 11.6 24.4 6.6zM21 202.7c9.9 0 17.9-8 17.9-17.9 0-9.9-8-17.9-17.9-17.9-9.9 0-17.9 8-17.9 17.9 0 9.9 8 17.9 17.9 17.9zM34 118.4c8.6 4.9 19.5 2 24.5-6.5 4.9-8.6 2-19.5-6.6-24.5-8.6-4.9-19.5-2-24.4 6.5-5 8.6-2 19.6 6.5 24.5zM87.4 51.9c4.9 8.6 15.9 11.5 24.5 6.6s11.5-15.9 6.5-24.5c-4.9-8.6-15.9-11.5-24.4-6.5-8.6 4.9-11.6 15.9-6.6 24.4z"/></g></svg>