<svg version="1.1" id="Layer_1" xmlns="http://www.w3.org/2000/svg" x="0" y="0" viewBox="-51 181 857 199" xml:space="preserve"><style>.st0,.st1{fill:#636363;stroke:#333;stroke-width:3;stroke-linejoin:round;stroke-miterlimit:10}.st1{stroke:#444;stroke-width:2}.st2{fill:#f4f4f4}.st3{fill:#a0a0a0;stroke:#333;stroke-width:2;stroke-miterlimit:10}.st4{fill:#7f7f7f}.st5{fill:none;stroke:#666;stroke-width:2;stroke-linejoin:round;stroke-miterlimit:10}.st6{fill:#e2e2e2}.st7{fill:#42428c;enable-background:new}.st7,.st8{opacity:.75}.st9{fill:#42428c}.st10{fill:#ffe269}.st11{opacity:.2;fill:#fff;enable-background:new}.st12,.st13{fill:none;stroke-linejoin:round;stroke-miterlimit:10}.st12{stroke-width:2;stroke:#3f3c2d}.st13{opacity:.5;stroke:#756b41;enable-background:new}.st14{fill:#ddd}.st15{fill:#ccc}.st16,.st17,.st18{fill:none;stroke:#ccc;stroke-width:2;stroke-linejoin:round;stroke-miterlimit:10}.st17,.st18{stroke:#756b41}.st18{stroke:#333;stroke-width:3}.st19{opacity:.2}.st20{fill:#fff}.st21{fill:none;stroke:#333;stroke-width:2;stroke-linejoin:round;stroke-miterlimit:10}.st22{opacity:.85;fill:#42428c;enable-background:new}.st23{fill:#8cc63f}.st24{fill:#82af3a}</style><circle class="st0" cx="189.8" cy="366.8" r="10.2"/><circle class="st1" cx="189.8" cy="366.8" r="5.2"/><circle class="st0" cx="108.8" cy="366.8" r="10.2"/><circle class="st1" cx="108.8" cy="366.8" r="5.2"/><path class="st2" d="M219.2 236.4H7.6c-9.6 0-18.2 6.4-21.6 17.2l-4.5 13.8H33v75h-73.2c0 15 10 27 23.4 27h236c7.5 0 11.8-9.8 11.8-17.2V247.5c0-7.4-4.3-11.1-11.8-11.1zM74 357.6c0 1.5-1.3 2.8-2.8 2.8H58.8c-1.5 0-2.8-1.3-2.8-2.8v-80.4c0-1.5 1.3-2.8 2.8-2.8h12.4c1.5 0 2.8 1.3 2.8 2.8v80.4zm72-20.2c0 1.7-1.3 3-3 3H99c-1.7 0-3-1.3-3-3v-68c0-1.7 1.3-3 3-3h44c1.7 0 3 1.3 3 3v68zm60 0c0 1.7-1.3 3-3 3h-44c-1.7 0-3-1.3-3-3v-68c0-1.7 1.3-3 3-3h44c1.7 0 3 1.3 3 3v68z"/><path class="st3" d="M785.3 321.4l5.7 20h-67v-20z"/><path class="st2" d="M512 239.4c0-2.2-1.8-4-4-4H249c-2.2 0-4 1.8-4 4v125c0 2.2 1.8 4 4 4h259c2.2 0 4-1.8 4-4v-125zm-229 121h-18v-86h18v86zm31 0h-17v-86h17v86zm59-23c0 1.7-1.3 3-3 3h-36c-1.7 0-3-1.3-3-3v-68c0-1.7 1.3-3 3-3h36c1.7 0 3 1.3 3 3v68zm54 0c0 1.7-1.3 3-3 3h-36c-1.7 0-3-1.3-3-3v-68c0-1.7 1.3-3 3-3h36c1.7 0 3 1.3 3 3v68zm35 23h-18v-86h18v86zm31 0h-17v-86h17v86z"/><circle class="st0" cx="649.8" cy="366.8" r="10.2"/><circle class="st1" cx="649.8" cy="366.8" r="5.2"/><circle class="st0" cx="568.8" cy="366.8" r="10.2"/><circle class="st1" cx="568.8" cy="366.8" r="5.2"/><path class="st2" d="M723 342.4v-75h52.6l-4.6-13.8c-3.4-10.8-12-17.2-21.5-17.2H537.9c-7.5 0-12.9 3.7-12.9 11.1v104.6c0 7.5 5.4 17.2 12.9 17.2h236c13.4 0 23.4-12 23.4-27H723v.1zm-119-5c0 1.7-1.3 3-3 3h-44c-1.7 0-3-1.3-3-3v-68c0-1.7 1.3-3 3-3h44c1.7 0 3 1.3 3 3v68zm60 0c0 1.7-1.3 3-3 3h-44c-1.7 0-3-1.3-3-3v-68c0-1.7 1.3-3 3-3h44c1.7 0 3 1.3 3 3v68zm47 0c0 1.7-1.3 3-3 3h-27c-1.7 0-3-1.3-3-3v-68c0-1.7 1.3-3 3-3h27c1.7 0 3 1.3 3 3v68z"/><path class="st4" d="M245 247.4h-12c-2.2 0-3 1.8-3 4v102c0 2.2.8 4 3 4h12v-110z"/><path class="st5" d="M236 247.4v110M240 247.4v110M233.1 247.4c-1 0-1.1.3-2.1.8v108.2c1 .6 1.1 1 2.1 1H245v-110h-11.9z"/><path class="st4" d="M526 247.4h-12c-2.2 0-3 1.8-3 4v102c0 2.2.8 4 3 4h12v-110z"/><path class="st5" d="M517 247.4v110M521 247.4v110M514.1 247.4c-1 0-1.1.3-2.1.8v108.2c1 .6 1.1 1 2.1 1H526v-110h-11.9z"/><path class="st6" d="M513 362.4c0-2.2-1.8-4-4-4H250c-2.2 0-4 1.8-4 4v2c0 2.2 1.8 4 4 4h259c2.2 0 4-1.8 4-4v-2z"/><path class="st7" d="M206 268.4c0-1.1-.9-2-2-2h-46c-1.1 0-2 .9-2 2s.9 2 2 2h46c1.1 0 2-.9 2-2z"/><g class="st8"><path class="st9" d="M329.5 337.3c0 1.6 1.4 3 3 3h36.4c1.6 0 3-1.4 3-3v-68.2c0-1.7-1.4-3-3-3h-36.4c-1.6 0-3 1.3-3 3v68.2z"/></g><path class="st6" d="M533.3 358.4h246.5c5.3 0 10.1-1.7 14-4.7-3.8 8.7-11.5 14.7-20.9 14.7H536.8c-6.3 0-9.6-6.9-10.5-13.5 1.7 2.1 4.1 3.5 7 3.5z"/><g class="st8"><path class="st9" d="M709.8 337.3c0 1.6-1.3 3-3 3h-26.7c-1.7 0-3-1.4-3-3v-68.2c0-1.7 1.3-3 3-3h26.7c1.7 0 3 1.3 3 3v68.2z"/></g><path class="st7" d="M267.6 360.1h11.1c1.8 0 3.3-1.5 3.3-3.3v-79.1c0-1.8-1.5-3.3-3.3-3.3h-11.1c-1.8 0-3.3 1.5-3.3 3.3v79.2c0 1.8 1.5 3.2 3.3 3.2z"/><path class="st10" d="M288.7 265.4H259v103h62v-103h-32.3zm-5.7 95h-18v-86h18v86zm31 0h-17v-86h17v86z"/><path class="st11" d="M265 346.3l18-41.5v-21.1l-18 41.5z"/><path class="st12" d="M264.3 357.1c0 1.7 1.3 3 3 3H279c1.6 0 3-1.3 3-3v-79.7c0-1.7-1.4-3-3-3h-11.7c-1.7 0-3 1.3-3 3v79.7z"/><path class="st7" d="M299.2 360.1h10.9c1.9 0 3.4-1.5 3.4-3.4v-79c0-1.9-1.5-3.4-3.4-3.4h-10.9c-1.9 0-3.4 1.5-3.4 3.4v79c0 1.9 1.5 3.4 3.4 3.4z"/><path class="st11" d="M296 346.3l18-41.5v-21.1l-18 41.5z"/><path class="st12" d="M295.8 357.1c0 1.7 1.3 3 3 3h11.7c1.6 0 3-1.3 3-3v-79.7c0-1.7-1.4-3-3-3h-11.7c-1.7 0-3 1.3-3 3v79.7z"/><path class="st13" d="M289.5 266.4v102"/><path class="st14" d="M231 258.4v-11.9c0-7.5-4.3-11.1-11.8-11.1H7.6c-9.6 0-18.2 6.6-21.6 17.5l-1.7 5.5H231z"/><path class="st15" d="M-14.7 258.4H232v-2H-14.1z"/><path class="st14" d="M527 258.4v-11.9c0-7.5 2.6-11.1 10.1-11.1h211.6c9.6 0 18.2 6.6 21.6 17.5l1.7 5.5H527zM513 258.4v-18.7c0-2.2-2.9-4.3-5.1-4.3H248.4c-2.2 0-3.4 2.1-3.4 4.3v18.7h268z"/><path class="st15" d="M245 256.4h268v2H245z"/><path class="st7" d="M373 268.4c0-1.1-.9-2-2-2h-38c-1.1 0-2 .9-2 2s.9 2 2 2h38c1.1 0 2-.9 2-2z"/><g class="st8"><path class="st9" d="M383.5 337.3c0 1.6 1.4 3 3 3h36.4c1.6 0 3-1.4 3-3v-68.2c0-1.7-1.4-3-3-3h-36.4c-1.6 0-3 1.3-3 3v68.2z"/></g><path class="st7" d="M427 268.4c0-1.1-.9-2-2-2h-38c-1.1 0-2 .9-2 2s.9 2 2 2h38c1.1 0 2-.9 2-2z"/><path class="st16" d="M150 237.4v19M67 237.4v19"/><path class="st15" d="M772 258.4H527v-2h244.4z"/><path class="st16" d="M609 237.4v19M692 237.4v19M312 235.4v21M379 235.4v21M446 235.4v21"/><g class="st8"><path class="st9" d="M94.5 337.3c0 1.6 1.4 3 3 3h44c1.6 0 3-1.4 3-3v-68.2c0-1.7-1.4-3-3-3h-44c-1.6 0-3 1.3-3 3v68.2z"/></g><path class="st7" d="M145 268.4c0-1.1-.9-2-2-2H97c-1.1 0-2 .9-2 2s.9 2 2 2h46c1.1 0 2-.9 2-2zM446.7 360.1h10.9c1.9 0 3.4-1.5 3.4-3.4v-79c0-1.9-1.5-3.4-3.4-3.4h-10.9c-1.9 0-3.4 1.5-3.4 3.4v79c0 1.9 1.5 3.4 3.4 3.4z"/><path class="st10" d="M467.7 265.4H438v103h62v-103h-32.3zm-5.7 95h-18v-86h18v86zm31 0h-17v-86h17v86z"/><path class="st11" d="M444 346.3l18-41.5v-21.1l-18 41.5z"/><path class="st12" d="M443.3 357.1c0 1.7 1.3 3 3 3H458c1.6 0 3-1.3 3-3v-79.7c0-1.7-1.4-3-3-3h-11.7c-1.7 0-3 1.3-3 3v79.7z"/><path class="st7" d="M478.7 360.1h10c2.1 0 3.8-1.7 3.8-3.8v-78.1c0-2.1-1.7-3.8-3.8-3.8h-10c-2.1 0-3.8 1.7-3.8 3.8v78.1c-.1 2.1 1.6 3.8 3.8 3.8z"/><path class="st11" d="M475 346.3l18-41.5v-21.1l-18 41.5z"/><path class="st12" d="M474.8 357.1c0 1.7 1.3 3 3 3h11.7c1.6 0 3-1.3 3-3v-79.7c0-1.7-1.4-3-3-3h-11.7c-1.7 0-3 1.3-3 3v79.7z"/><path class="st13" d="M469.5 266.4v102"/><path class="st17" d="M499 268.4c0-1.7-1.3-3-3-3h-56c-1.6 0-3 1.3-3 3v97c0 1.6 1.4 3 3 3h56c1.6 0 3-1.4 3-3v-97zM320 268.4c0-1.7-1.3-3-3-3h-56c-1.6 0-3 1.3-3 3v97c0 1.6 1.4 3 3 3h56c1.6 0 3-1.4 3-3v-97z"/><path class="st18" d="M507.2 369H247.8c-2.2 0-4-1.8-4-4V239.7c0-2.2 1.8-4 4-4h259.5c2.2 0 4 1.8 4 4V365c-.1 2.2-1.8 4-4.1 4z"/><g class="st8"><path class="st9" d="M613.3 337.3c0 1.6 1.4 3 3 3h44c1.7 0 3-1.4 3-3v-68.2c0-1.7-1.3-3-3-3h-44c-1.6 0-3 1.3-3 3v68.2z"/></g><path class="st7" d="M664 268.4c0-1.1-.9-2-2-2h-46c-1.1 0-2 .9-2 2s.9 2 2 2h46c1.1 0 2-.9 2-2z"/><g class="st8"><path class="st9" d="M552.5 337.3c0 1.6 1.4 3 3 3h44c1.7 0 3-1.4 3-3v-68.2c0-1.7-1.3-3-3-3h-44c-1.6 0-3 1.3-3 3v68.2z"/></g><path class="st7" d="M603 268.4c0-1.1-.9-2-2-2h-46c-1.1 0-2 .9-2 2s.9 2 2 2h46c1.1 0 2-.9 2-2z"/><path class="st11" d="M122 339.4l23-47.2v-7.1l-26.2 54.3zM350 339.4l23-47.2v-7.1l-26.2 54.3zM103.9 339.4h9.9l32.2-67.5v-3.8c0-1.7-2.8-2.7-4.5-2.7h-3.8l-33.8 74z"/><path class="st9" d="M711 268.4c0-1.1-.9-2-2-2h-29c-1.1 0-2 .9-2 2s.9 2 2 2h29c1.1 0 2-.9 2-2z"/><g class="st8"><path class="st9" d="M155.3 337.3c0 1.6 1.4 3 3 3h44c1.6 0 3-1.4 3-3v-68.2c0-1.7-1.4-3-3-3h-44c-1.6 0-3 1.3-3 3v68.2z"/></g><path class="st11" d="M195.5 266.4h-12.1l-27.4 61v10.3c0 1.7.5 2.7 2.1 2.7h3l34.4-74zM561.9 340.4h9.9l32.2-67.5v-3.8c0-1.7-2.8-2.7-4.5-2.7h-3.8l-33.8 74z"/><g class="st19"><path class="st20" d="M613 287.8c0 1.6.7 1.8 1.4.3l9.5-20.2c.7-1.5.6-2.7-.3-2.7-.9 0-2.2 1.2-2.9 2.7l-6.3 13.2c-.7 1.5-1.4 4.1-1.4 5.7v1z"/></g><path class="st11" d="M589.1 340.4l14.9-29v-7l-18.2 36zM370.5 266.4h-12.1l-27.4 61v10.3c0 1.7.5 2.7 2.1 2.7h3l34.4-74zM423.5 266.4h-12.1l-27.4 61v10.3c0 1.7.5 2.7 2.1 2.7h3l34.4-74z"/><path class="st21" d="M329.5 337.3c0 1.6 1.4 3 3 3h36.4c1.6 0 3-1.4 3-3v-68.2c0-1.7-1.4-3-3-3h-36.4c-1.6 0-3 1.3-3 3v68.2z"/><path class="st22" d="M771.1 267.4l21.5 75H723v-75z"/><path class="st18" d="M770.7 266.9l20.8 75h-68v-75z"/><path class="st11" d="M664 294.2l-22.1 46.2h9.8l12.3-24.3z"/><path class="st21" d="M613.3 337.3c0 1.6 1.4 3 3 3h44c1.7 0 3-1.4 3-3v-68.2c0-1.7-1.3-3-3-3h-44c-1.6 0-3 1.3-3 3v68.2zM383.9 337.3c0 1.6 1.4 3 3 3h35.6c1.6 0 3-1.4 3-3v-68.2c0-1.7-1.4-3-3-3h-35.6c-1.6 0-3 1.3-3 3v68.2zM94.5 337.3c0 1.6 1.4 3 3 3h44c1.6 0 3-1.4 3-3v-68.2c0-1.7-1.4-3-3-3h-44c-1.6 0-3 1.3-3 3v68.2z"/><path class="st6" d="M222.7 358.4H-23.8c-5.3 0-10.1-1.7-14-4.7 3.8 8.7 11.5 14.7 20.9 14.7h236c6.3 0 9.6-6.9 10.5-13.5-1.6 2.1-3.9 3.5-6.9 3.5z"/><path class="st7" d="M57.6 360.1h12.1c1.5 0 2.8-1.3 2.8-2.8v-80.1c0-1.5-1.3-2.8-2.8-2.8H57.6c-1.5 0-2.8 1.3-2.8 2.8v80.1c0 1.6 1.3 2.8 2.8 2.8z"/><path class="st11" d="M55 346.3l18-41.5v-21.1l-18 41.5z"/><path class="st10" d="M74.6 264.4H52.8c-2.5 0-4.7 1.6-4.7 4.1v100.9H80V268.5c0-2.5-3-4.1-5.4-4.1zm-1.6 96H56v-86h17v86z"/><path class="st17" d="M80 268.5c0-2.5-3-4.1-5.4-4.1H52.8c-2.5 0-4.7 1.6-4.7 4.1v100.9H80V268.5z"/><path class="st21" d="M54.8 357.1c0 1.7 1.4 3 3 3h11.7c1.7 0 3-1.3 3-3v-79.7c0-1.7-1.3-3-3-3H57.8c-1.6 0-3 1.3-3 3v79.7z"/><path class="st23" d="M167 258.4h15v7h-15zM176.4 341.4h-17.5c-4.2 7-10.2 13-17.2 17h20.2c6.7-4 11.4-10 14.5-17zM577 258.4h15v7h-15zM580.5 341.4H598c4.2 7 10.2 13 17.2 17H595c-6.8-4-11.5-10-14.5-17z"/><path class="st24" d="M563 258.4h15v7h-15zM582.5 341.4h-16c2.8 7 7.1 13 13.3 17h18.4c-6.4-4-11.9-10-15.7-17z"/><g><path class="st21" d="M552.5 337.3c0 1.6 1.4 3 3 3h44c1.7 0 3-1.4 3-3v-68.2c0-1.7-1.3-3-3-3h-44c-1.6 0-3 1.3-3 3v68.2z"/></g><g><path class="st24" d="M181 258.4h15v7h-15zM190.4 341.4h-16c-3.9 7-9.3 13-15.7 17h18.4c6.2-4 10.5-10 13.3-17z"/></g><g><path class="st21" d="M155.3 337.3c0 1.6 1.4 3 3 3h44c1.6 0 3-1.4 3-3v-68.2c0-1.7-1.4-3-3-3h-44c-1.6 0-3 1.3-3 3v68.2z"/></g><path class="st3" d="M-30.5 321.4l-5.7 20H33v-20z"/><path class="st22" d="M-15.4 267.4l-20.8 75H33v-75z"/><path class="st18" d="M-15.4 266.9l-20.8 75h69.7v-75z"/><g class="st19"><path class="st20" d="M710 269.1c0-1.7-1.2-3-2.5-3s-3 1.2-3.7 2.7l-25.5 54.7c-.7 1.5-1.3 4.1-1.3 5.7v5.1c0 1.6.4 3.5.9 4.1.5.6 2.9 1.1 3.8 1.1.8 0 2.1-1.2 2.8-2.7l24.2-51.9c.7-1.5 1.4-4.1 1.4-5.7v-10.1h-.1z"/></g><g><path class="st21" d="M709.8 337.3c0 1.6-1.3 3-3 3h-26.7c-1.7 0-3-1.4-3-3v-68.2c0-1.7 1.3-3 3-3h26.7c1.7 0 3 1.3 3 3v68.2z"/></g><path class="st11" d="M728.9 340.4h9.9l32.2-67.5v-3.8c0-1.7-2.8-2.7-4.5-2.7h-3.8l-33.8 74zM722 335.3l33-68.9h-2.4L722 330.3z"/><path d="M537.9 235.9h211.6c9.6 0 18.2 6.4 21.6 17.2l4.6 13.8h-52.1v75h73.8c0 15-10 27-23.4 27H537.9c-7.5 0-12.4-9.3-12.4-16.8V247.5c0-7.4 4.9-11.6 12.4-11.6z" fill="none" stroke="#333" stroke-width="3" stroke-linecap="round" stroke-linejoin="round" stroke-miterlimit="10"/><path class="st11" d="M-6 342.4l31.8-75.7-15.1.7-31.6 75z"/><path class="st18" d="M219.2 235.9H7.6c-9.6 0-18.2 6.4-21.6 17.2l-4.6 13.8h52v75h-73.6c0 15 10 27 23.4 27h236c7.5 0 12.3-9.3 12.3-16.8V247.5c0-7.4-4.8-11.6-12.3-11.6z"/><path fill="#898989" stroke="#333" stroke-width="3" stroke-linejoin="round" stroke-miterlimit="10" d="M261.4 195.9h-11.1l-10.4 19.6.2.2-.2.3 10.4 19.7h11.2l-10.4-20z"/><path class="st18" d="M131.2 195.9h252.7"/></svg>